<svg width="463" height="271" viewBox="0 0 463 271" fill="none" xmlns="http://www.w3.org/2000/svg">
<g clip-path="url(#clip0_442_1277)">
<path fill-rule="evenodd" clip-rule="evenodd" d="M274.627 181.5H4.50098V182.5H274.374L292.874 192.5H367.133L384.633 182.5H454.501V181.5H384.368L366.867 191.5H293.126L274.627 181.5Z" fill="#F1F2F4"/>
<path fill-rule="evenodd" clip-rule="evenodd" d="M173.5 182.5H93.5C93.4672 182.5 93.4347 182.497 93.4025 182.49C93.3703 182.484 93.3391 182.475 93.3087 182.462C93.2784 182.449 93.2496 182.434 93.2222 182.416C93.195 182.398 93.1697 182.377 93.1465 182.354C93.1232 182.33 93.1025 182.305 93.0843 182.278C93.066 182.25 93.0506 182.222 93.0381 182.191C93.0255 182.161 93.016 182.13 93.0096 182.098C93.0032 182.065 93 182.033 93 182C93 181.967 93.0032 181.935 93.0096 181.902C93.016 181.87 93.0255 181.839 93.0381 181.809C93.0506 181.778 93.066 181.75 93.0843 181.722C93.1025 181.695 93.1232 181.67 93.1465 181.646C93.1697 181.623 93.195 181.602 93.2222 181.584C93.2496 181.566 93.2784 181.551 93.3087 181.538C93.3391 181.525 93.3703 181.516 93.4025 181.51C93.4347 181.503 93.4672 181.5 93.5 181.5H173.5C173.533 181.5 173.565 181.503 173.598 181.51C173.63 181.516 173.661 181.525 173.691 181.538C173.722 181.551 173.75 181.566 173.778 181.584C173.805 181.602 173.83 181.623 173.854 181.646C173.877 181.67 173.897 181.695 173.916 181.722C173.934 181.75 173.949 181.778 173.962 181.809C173.974 181.839 173.984 181.87 173.99 181.902C173.997 181.935 174 181.967 174 182C174 182.033 173.997 182.065 173.99 182.098C173.984 182.13 173.974 182.161 173.962 182.191C173.949 182.222 173.934 182.25 173.916 182.278C173.897 182.305 173.877 182.33 173.854 182.354C173.83 182.377 173.805 182.398 173.778 182.416C173.75 182.434 173.722 182.449 173.691 182.462C173.661 182.475 173.63 182.484 173.598 182.49C173.565 182.497 173.533 182.5 173.5 182.5Z" fill="url(#paint0_linear_442_1277)"/>
<path d="M460.5 178.5H456.5C455.672 178.5 455 179.172 455 180V184C455 184.828 455.672 185.5 456.5 185.5H460.5C461.328 185.5 462 184.828 462 184V180C462 179.172 461.328 178.5 460.5 178.5Z" fill="white" stroke="#F1F2F4"/>
<path d="M314.5 59.5H310.5C309.672 59.5 309 60.1716 309 61V65C309 65.8284 309.672 66.5 310.5 66.5H314.5C315.328 66.5 316 65.8284 316 65V61C316 60.1716 315.328 59.5 314.5 59.5Z" stroke="#F1F2F4"/>
<path d="M361.5 150.5H357.5C356.672 150.5 356 151.172 356 152V156C356 156.828 356.672 157.5 357.5 157.5H361.5C362.328 157.5 363 156.828 363 156V152C363 151.172 362.328 150.5 361.5 150.5Z" stroke="#F1F2F4"/>
<path d="M396.5 104.5H392.5C391.672 104.5 391 105.172 391 106V110C391 110.828 391.672 111.5 392.5 111.5H396.5C397.328 111.5 398 110.828 398 110V106C398 105.172 397.328 104.5 396.5 104.5Z" stroke="#F1F2F4"/>
<path d="M180.5 254.5H176.5C175.672 254.5 175 255.172 175 256V260C175 260.828 175.672 261.5 176.5 261.5H180.5C181.328 261.5 182 260.828 182 260V256C182 255.172 181.328 254.5 180.5 254.5Z" stroke="#F1F2F4"/>
<path d="M73.5 113.5H57.5C56.6716 113.5 56 114.172 56 115V121C56 121.828 56.6716 122.5 57.5 122.5H73.5C74.3284 122.5 75 121.828 75 121V115C75 114.172 74.3284 113.5 73.5 113.5Z" stroke="#F1F2F4"/>
<path d="M279.5 261.5H263.5C262.672 261.5 262 262.172 262 263V269C262 269.828 262.672 270.5 263.5 270.5H279.5C280.328 270.5 281 269.828 281 269V263C281 262.172 280.328 261.5 279.5 261.5Z" stroke="#F1F2F4"/>
<path fill-rule="evenodd" clip-rule="evenodd" d="M206 142.207V182H207V141.793L183.207 118H75.5V119H182.793L206 142.207Z" fill="#F1F2F4"/>
<path fill-rule="evenodd" clip-rule="evenodd" d="M56 119H4.5V118H56V119Z" fill="#F1F2F4"/>
<path fill-rule="evenodd" clip-rule="evenodd" d="M105.5 42.5V0H104.5V41.5H65.001V113.5H66.001V42.5H105.5Z" fill="#F1F2F4"/>
<path fill-rule="evenodd" clip-rule="evenodd" d="M312 116.748V66.5H313V117.252L278.165 142.999H206.5V141.999H277.835L312 116.748Z" fill="#F1F2F4"/>
<path fill-rule="evenodd" clip-rule="evenodd" d="M424 167.473V183H425V166.937L404.797 153.5H363.5V154.5H404.495L424 167.473Z" fill="#F1F2F4"/>
<path fill-rule="evenodd" clip-rule="evenodd" d="M394 154V111H395V154H394Z" fill="#F1F2F4"/>
<path fill-rule="evenodd" clip-rule="evenodd" d="M272 229.5V261H271V228.5H332V192H333V229.5H272Z" fill="#F1F2F4"/>
<path fill-rule="evenodd" clip-rule="evenodd" d="M213.831 258.5H182V257.5H214.169L224.669 265.5H261.5V266.5H224.331L213.831 258.5Z" fill="#F1F2F4"/>
<path d="M6 178H2C0.89543 178 0 178.895 0 180V184C0 185.105 0.89543 186 2 186H6C7.10457 186 8 185.105 8 184V180C8 178.895 7.10457 178 6 178Z" fill="white"/>
<path d="M6 178.5H2C1.17157 178.5 0.5 179.172 0.5 180V184C0.5 184.828 1.17157 185.5 2 185.5H6C6.82843 185.5 7.5 184.828 7.5 184V180C7.5 179.172 6.82843 178.5 6 178.5Z" stroke="#F1F2F4"/>
</g>
<defs>
<linearGradient id="paint0_linear_442_1277" x1="161.788" y1="182.296" x2="112.297" y2="182.296" gradientUnits="userSpaceOnUse">
<stop stop-color="#F1F2F4" stop-opacity="0"/>
<stop offset="1" stop-color="#0055FF"/>
</linearGradient>
<clipPath id="clip0_442_1277">
<rect width="462.5" height="271" fill="white"/>
</clipPath>
</defs>
</svg>
