<svg width="16" height="16" viewBox="0 0 16 16" fill="none" xmlns="http://www.w3.org/2000/svg">
<mask id="mask0_116_671" style="mask-type:luminance" maskUnits="userSpaceOnUse" x="0" y="0" width="16" height="16">
<path d="M16 0H0V16H16V0Z" fill="white"/>
</mask>
<g mask="url(#mask0_116_671)">
<path fill-rule="evenodd" clip-rule="evenodd" d="M6.66667 0.666748C6.29848 0.666748 6 0.965225 6 1.33341C5.63181 1.33341 5.33333 1.63189 5.33333 2.00008C5.33333 2.36827 5.63181 2.66675 6 2.66675C6 3.03494 6.29848 3.33341 6.66667 3.33341C7.03486 3.33341 7.33333 3.03494 7.33333 2.66675C7.70152 2.66675 8 2.36827 8 2.00008C8 1.63189 7.70152 1.33341 7.33333 1.33341C7.33333 0.965225 7.03486 0.666748 6.66667 0.666748ZM14.8953 4.04767L4.05114 14.8917C3.76323 15.1876 3.41286 15.3355 3.00003 15.3355C2.5872 15.3355 2.23896 15.1897 1.95529 14.8982L1.1044 14.0473C0.813119 13.759 0.66748 13.4099 0.66748 13.0001C0.66748 12.5903 0.812307 12.242 1.10196 11.9554L8.85628 4.20107C8.86002 4.19723 8.86381 4.19344 8.86765 4.18969L11.9529 1.10448C12.2412 0.8132 12.5902 0.667562 13 0.667562C13.4099 0.667562 13.7581 0.812388 14.0448 1.10204L14.8916 1.949C15.1875 2.23691 15.3354 2.58728 15.3354 3.00011C15.3354 3.41124 15.1887 3.76043 14.8953 4.04767ZM13.9553 3.10204L11.3334 5.72398L10.2762 4.66677L12.9005 2.04241C12.9279 2.01473 12.9611 2.0009 13 2.0009C13.039 2.0009 13.0729 2.01555 13.102 2.04485L13.9618 2.90456C13.9887 2.93073 14.0021 2.96258 14.0021 3.00011C14.0021 3.03764 13.9887 3.06949 13.9618 3.09567L13.9553 3.10204ZM2.66667 4.00008C2.66667 3.63189 2.96514 3.33341 3.33333 3.33341C3.70152 3.33341 4 3.63189 4 4.00008V4.66675H4.66667C5.03486 4.66675 5.33333 4.96523 5.33333 5.33342C5.33333 5.7016 5.03486 6.00008 4.66667 6.00008H4V6.66675C4 7.03494 3.70152 7.33342 3.33333 7.33342C2.96514 7.33342 2.66667 7.03494 2.66667 6.66675V6.00008H2C1.63181 6.00008 1.33333 5.7016 1.33333 5.33342C1.33333 4.96523 1.63181 4.66675 2 4.66675H2.66667V4.00008ZM2.04477 12.8982L9.33336 5.60958L10.3906 6.66679L3.09558 13.9618C3.06941 13.9887 3.03756 14.0022 3.00003 14.0022C2.9625 14.0022 2.92852 13.9866 2.8981 13.9554L2.04233 13.0996C2.01465 13.0722 2.00081 13.0391 2.00081 13.0001C2.00081 12.9612 2.01547 12.9272 2.04477 12.8982ZM12 9.33342C12 8.96523 12.2985 8.66675 12.6667 8.66675C13.0349 8.66675 13.3333 8.96523 13.3333 9.33342V10.0001H14C14.3682 10.0001 14.6667 10.2986 14.6667 10.6667C14.6667 11.0349 14.3682 11.3334 14 11.3334H13.3333V12.0001C13.3333 12.3683 13.0349 12.6667 12.6667 12.6667C12.2985 12.6667 12 12.3683 12 12.0001V11.3334H11.3333C10.9651 11.3334 10.6667 11.0349 10.6667 10.6667C10.6667 10.2986 10.9651 10.0001 11.3333 10.0001H12V9.33342Z" fill="#545D6D" fill-opacity="0.8"/>
</g>
</svg>
