<svg
    xmlns="http://www.w3.org/2000/svg"
    width="117"
    height="24"
    viewBox="0 0 117 24"
    fill="none"
  >
    <path
      d="M9.84984 0.625732L16.3356 17.9235H13.5973L11.9882 13.4797H4.34739L2.73829 17.9235H0L6.48579 0.62574L9.84984 0.625732ZM11.1955 11.2942L8.16783 2.88647L5.14019 11.2942H11.1955Z"
      fill="#343A45"
    />
    <path
      d="M17.418 11.4851C17.418 8.05053 20.0598 5.23932 23.6167 5.23932C25.2494 5.23932 26.595 5.86508 27.5571 6.84841V5.42987H30.1049L30.032 17.8745C30.0084 21.5749 27.6771 24.0003 24.0731 24.0003C20.8526 24.0003 18.3543 21.789 17.7779 18.8343H20.3256C20.8055 20.4434 22.2005 21.622 24.0261 21.622C26.1151 21.622 27.5101 20.1329 27.5336 17.5381V16.1454C26.5738 17.1311 25.2282 17.731 23.6167 17.731C20.0598 17.731 17.418 14.9433 17.418 11.4851ZM27.8206 11.4851C27.8206 9.1068 26.2351 7.61767 23.6873 7.61767C21.4289 7.61767 19.9398 9.37262 19.9398 11.4851C19.9398 13.5977 21.4289 15.3762 23.6873 15.3762C25.9457 15.3762 27.8206 14.1035 27.8206 11.4851Z"
      fill="#343A45"
    />
    <path
      d="M38.1769 15.8349C39.6896 15.8349 41.0352 15.0891 41.7574 13.9364H44.3287C43.4159 16.3877 40.9881 18.1168 38.1793 18.1168C34.5024 18.1168 31.7876 15.235 31.7876 11.631C31.7876 8.027 34.5024 5.19226 38.1793 5.19226C41.8562 5.19226 44.571 8.0764 44.571 11.631C44.571 11.8474 44.571 12.0145 44.5474 12.2309H34.2154C34.4553 14.2493 36.0174 15.8349 38.1793 15.8349L38.1769 15.8349ZM41.948 10.2619C41.4422 8.67629 40.026 7.47417 38.1769 7.47417C36.3279 7.47417 34.8858 8.67628 34.38 10.2619H41.948Z"
      fill="#343A45"
    />
    <path
      d="M46.418 5.43226H48.9398V7.04135C49.7797 5.93568 51.2217 5.26288 52.7602 5.26288C56.0043 5.26288 58.0463 7.49773 58.0463 10.356V17.9239H55.5244V10.8359C55.5244 9.05743 54.4681 7.56831 52.5462 7.56831C50.3842 7.56831 48.9422 8.93745 48.9422 10.9794V17.9216H46.4203V5.42756L46.418 5.43226Z"
      fill="#343A45"
    />
    <path
      d="M61.8409 14.0799V7.5941H59.2461V5.43218H61.8409V1.97168H64.3886V5.43218H68.0161V7.5941H64.3886V13.8658C64.3886 16.1477 67.3669 15.6443 68.449 15.3549V17.9027C65.2543 18.6225 61.8432 17.5898 61.8432 14.0822L61.8409 14.0799Z"
      fill="#343A45"
    />
    <path
      d="M69.9385 1.63522C69.9385 0.722457 70.6583 0.000244141 71.5735 0.000244141C72.4886 0.000244141 73.2061 0.720102 73.2061 1.63522C73.2061 2.55034 72.4862 3.26784 71.5735 3.26784C70.6607 3.26784 69.9385 2.54798 69.9385 1.63522ZM70.3243 5.43213H72.8461V17.9261H70.3243V5.43213Z"
      fill="#343A45"
    />
    <path
      d="M81.2071 18.1168C77.5325 18.1168 74.8154 15.235 74.8154 11.631C74.8154 8.027 77.5302 5.19226 81.2071 5.19226C84.1148 5.19226 86.4437 7.04131 87.2624 9.58905H84.5712C83.9219 8.38693 82.7456 7.59414 81.2071 7.59414C78.8758 7.59414 77.3161 9.41967 77.3161 11.631C77.3161 13.8423 78.8782 15.7149 81.2071 15.7149C82.7692 15.7149 83.9713 14.8727 84.5947 13.6494H87.2624C86.4696 16.2677 84.1383 18.1191 81.2071 18.1191V18.1168Z"
      fill="#343A45"
    />
    <path
      d="M110.95 0.625977V10.8616C110.95 15.3313 107.826 18.1167 103.791 18.1167C99.757 18.1167 96.5835 15.329 96.5835 10.8616V0.625977H99.1548V10.6922C99.1548 13.407 101.197 15.6419 103.791 15.6419C106.386 15.6419 108.381 13.407 108.381 10.6922V0.625977H110.952H110.95Z"
      fill="#343A45"
    />
    <path
      d="M113.785 0.625977H116.38V17.9238H113.785V0.625977Z"
      fill="#343A45"
    />
  </svg>