<svg width="20" height="20" viewBox="0 0 20 20" fill="none" xmlns="http://www.w3.org/2000/svg">
<mask id="mask0_116_620" style="mask-type:luminance" maskUnits="userSpaceOnUse" x="0" y="0" width="20" height="20">
<path d="M20 0H0V20H20V0Z" fill="white"/>
</mask>
<g mask="url(#mask0_116_620)">
<g filter="url(#filter0_i_116_620)">
<path d="M10.0029 11.533C10.0026 11.5408 10.0022 11.5483 10.0014 11.5562C10.0006 11.5629 9.99979 11.5696 9.99901 11.5762C9.99783 11.5841 9.99665 11.5916 9.99547 11.599C9.9943 11.6057 9.99272 11.6124 9.99114 11.6195C9.98957 11.627 9.98761 11.6344 9.98564 11.6419C9.98368 11.6486 9.98171 11.6553 9.97974 11.6624C9.97738 11.6698 9.97502 11.6773 9.97227 11.6844C9.96991 11.6911 9.96755 11.6978 9.9648 11.7041C9.96165 11.7119 9.95851 11.7194 9.95497 11.7273C9.95221 11.7335 9.94906 11.7402 9.94592 11.7465C9.94199 11.7544 9.93806 11.7619 9.93412 11.7693C9.93058 11.7756 9.92743 11.7819 9.92389 11.7878C9.91878 11.7969 9.91289 11.8059 9.90698 11.815C9.90345 11.8205 9.8999 11.826 9.89637 11.8315C9.88968 11.8413 9.88221 11.8511 9.87474 11.861C9.87159 11.8653 9.86845 11.8696 9.8649 11.8739C9.85233 11.8897 9.83935 11.905 9.82519 11.9203C9.82165 11.9243 9.81771 11.9282 9.81378 11.9321C9.80277 11.9439 9.79097 11.9553 9.77918 11.9668C9.77367 11.9719 9.76816 11.9774 9.76227 11.9825C9.75518 11.9888 9.74772 11.9955 9.74025 12.0018C9.73316 12.0077 9.72648 12.0136 9.71901 12.0194C9.71114 12.0257 9.70328 12.032 9.69502 12.0383C9.68754 12.0442 9.68008 12.0497 9.6722 12.0556C9.66394 12.0619 9.6549 12.0678 9.64626 12.0737C9.63799 12.0792 9.63012 12.0847 9.62187 12.0902C9.61282 12.0961 9.60338 12.102 9.59395 12.1079C9.58215 12.1154 9.57075 12.1225 9.55855 12.1296L6.77423 13.7475C6.74081 13.7667 6.7062 13.7848 6.6708 13.8017C6.66137 13.8061 6.65193 13.8108 6.64249 13.8151C6.61064 13.83 6.5776 13.8438 6.54417 13.8572C6.53985 13.8588 6.53552 13.8607 6.5312 13.8627C6.49266 13.8772 6.45294 13.891 6.41243 13.9032C6.40614 13.9052 6.40024 13.9071 6.39395 13.9087C6.35501 13.9205 6.31569 13.9311 6.27557 13.9406C6.26928 13.9421 6.26299 13.9433 6.25709 13.9449C6.21698 13.9543 6.17608 13.9626 6.13518 13.9697C6.12653 13.9712 6.11788 13.9724 6.10922 13.9736C6.07422 13.9795 6.03883 13.9842 6.00304 13.9885C5.99282 13.9897 5.9822 13.9913 5.97197 13.9921C5.93068 13.9964 5.889 13.9999 5.84731 14.0023C5.83944 14.0027 5.83197 14.0031 5.82411 14.0035C5.78124 14.0054 5.73798 14.007 5.69472 14.007C5.6904 14.007 5.68607 14.007 5.68174 14.007C5.6495 14.007 5.61725 14.0054 5.58539 14.0043C5.55944 14.0031 5.53348 14.0019 5.50753 13.9999C5.48393 13.9984 5.46033 13.9964 5.43674 13.994C5.41118 13.9917 5.38562 13.9885 5.36005 13.9854C5.32623 13.9811 5.29241 13.9767 5.25898 13.9712C5.25662 13.9708 5.25387 13.9704 5.25151 13.97C5.20904 13.9626 5.16735 13.9539 5.12567 13.9445C5.11898 13.9429 5.1123 13.9417 5.10561 13.9402C5.06668 13.9307 5.02813 13.9205 4.98999 13.9091C4.97898 13.9059 4.96836 13.9024 4.95774 13.8989C4.92628 13.889 4.89521 13.8784 4.86454 13.867C4.85588 13.8639 4.84684 13.8607 4.8378 13.8572C4.80987 13.8466 4.78313 13.8344 4.75639 13.8226C4.74341 13.8167 4.72965 13.8116 4.71667 13.8053C4.67813 13.7868 4.64038 13.7675 4.6042 13.7467L1.80297 12.1296C1.50054 11.955 1.34953 11.7261 1.35032 11.4972L1.33301 15.8646C1.33222 16.0935 1.48322 16.3224 1.78565 16.497L4.58803 18.1149C4.62421 18.1357 4.66199 18.1554 4.70053 18.1735C4.71351 18.1798 4.72723 18.1849 4.7402 18.1908C4.76301 18.201 4.78555 18.2116 4.80915 18.2207C4.81308 18.2222 4.81738 18.2234 4.82131 18.225C4.82997 18.2285 4.83889 18.2313 4.84794 18.2348C4.87861 18.2462 4.90975 18.2568 4.94122 18.2667C4.95183 18.2702 4.96287 18.2733 4.97349 18.2769C4.98095 18.2789 4.9877 18.2816 4.99517 18.2836C5.02624 18.2922 5.0573 18.3005 5.08916 18.308C5.09584 18.3095 5.10243 18.3111 5.10873 18.3123C5.12406 18.3158 5.13937 18.3194 5.1551 18.3229C5.18145 18.3284 5.20788 18.3331 5.23463 18.3378C5.23699 18.3382 5.23964 18.3386 5.24239 18.339C5.26402 18.3426 5.28564 18.3461 5.30727 18.3493C5.31907 18.3508 5.33127 18.3516 5.34307 18.3532C5.36864 18.3563 5.39421 18.3591 5.41977 18.3618C5.43197 18.363 5.44426 18.365 5.45645 18.3658C5.46785 18.3666 5.47925 18.3669 5.49066 18.3677C5.51661 18.3697 5.54246 18.3709 5.56842 18.3721C5.5814 18.3725 5.59441 18.3736 5.60739 18.374C5.62666 18.3744 5.6456 18.3744 5.66487 18.3744C5.6692 18.3744 5.67341 18.3744 5.67774 18.3744C5.70684 18.3744 5.73557 18.374 5.76467 18.3728C5.77882 18.3725 5.79301 18.3713 5.80717 18.3709C5.81503 18.3709 5.82258 18.3701 5.83044 18.3697C5.86544 18.3677 5.9004 18.365 5.935 18.3618C5.94169 18.361 5.94842 18.3603 5.9551 18.3595C5.96533 18.3583 5.97591 18.3571 5.98614 18.3559C6.02192 18.3516 6.05729 18.3465 6.09229 18.341C6.10094 18.3394 6.10956 18.3382 6.11821 18.3367C6.12254 18.3359 6.12658 18.3355 6.1309 18.3347C6.16787 18.328 6.2044 18.3202 6.24058 18.3119C6.24687 18.3103 6.2528 18.3091 6.25909 18.3076C6.29921 18.2981 6.33848 18.2875 6.37741 18.2757C6.3837 18.2737 6.39003 18.2718 6.39593 18.2702C6.40418 18.2675 6.41284 18.2651 6.42149 18.2623C6.45295 18.2521 6.48392 18.2411 6.51459 18.2293C6.51892 18.2277 6.52331 18.2258 6.52764 18.2238C6.56107 18.2108 6.59379 18.1967 6.62603 18.1817C6.63547 18.1774 6.64481 18.1731 6.65425 18.1684C6.68964 18.151 6.72472 18.1333 6.75775 18.1141L9.54198 16.4962C9.54828 16.4926 9.55456 16.4887 9.56084 16.4852C9.56675 16.4816 9.57188 16.4781 9.57777 16.4746C9.58721 16.4687 9.59676 16.4628 9.60581 16.4569C9.61407 16.4513 9.62228 16.4458 9.63014 16.4403C9.6388 16.4344 9.6478 16.4281 9.65606 16.4222C9.66392 16.4167 9.67134 16.4108 9.67881 16.4049C9.68707 16.3986 9.6951 16.3924 9.70296 16.3861C9.71004 16.3802 9.71704 16.3743 9.72412 16.3684C9.73159 16.3621 9.73908 16.3554 9.74616 16.3491C9.74892 16.3463 9.75241 16.344 9.75516 16.3412C9.75792 16.3389 9.76037 16.3361 9.76274 16.3338C9.77493 16.3224 9.7863 16.311 9.7973 16.2992C9.80084 16.2952 9.80465 16.2913 9.80858 16.2874C9.82274 16.272 9.83624 16.2567 9.84843 16.2409C9.84883 16.2402 9.84962 16.2398 9.85002 16.239C9.85277 16.2354 9.85503 16.2315 9.85778 16.228C9.86525 16.2181 9.87278 16.2083 9.87947 16.1985C9.8834 16.193 9.88651 16.1875 9.89005 16.182C9.89595 16.1729 9.90147 16.1639 9.90698 16.1548C9.90855 16.1525 9.91016 16.1497 9.91174 16.1474C9.91371 16.1438 9.91558 16.1399 9.91755 16.1363C9.92149 16.1289 9.92583 16.121 9.92937 16.1131C9.93251 16.1068 9.93561 16.1002 9.93836 16.0939C9.9419 16.086 9.94509 16.0785 9.94824 16.0707C9.94981 16.0671 9.95147 16.0636 9.95264 16.0604C9.95383 16.0573 9.95464 16.0541 9.95582 16.051C9.95858 16.0435 9.96086 16.0361 9.96322 16.029C9.96519 16.0223 9.96708 16.0156 9.96904 16.0085C9.97101 16.0011 9.97311 15.9936 9.97468 15.9861C9.97548 15.9822 9.97651 15.9779 9.97768 15.9739C9.97808 15.9712 9.97852 15.9684 9.97892 15.9657C9.98049 15.9582 9.98126 15.9503 9.98244 15.9429C9.98323 15.9362 9.98452 15.9295 9.98491 15.9228C9.98571 15.9149 9.98611 15.9075 9.9865 15.8996C9.9865 15.8953 9.9872 15.8906 9.9872 15.8862C9.9872 15.8819 9.9872 15.8772 9.9872 15.8729L10.0045 11.5054C10.0045 11.5145 10.0033 11.5239 10.0029 11.533Z" fill="url(#paint0_linear_116_620)"/>
</g>
<g filter="url(#filter1_i_116_620)">
<path d="M18.6699 11.533C18.6695 11.5408 18.6691 11.5483 18.6684 11.5562C18.6676 11.5629 18.6668 11.5696 18.666 11.5762C18.6648 11.5841 18.6636 11.5916 18.6625 11.599C18.6613 11.6057 18.6597 11.6124 18.6581 11.6195C18.6566 11.627 18.6546 11.6344 18.6526 11.6419C18.6507 11.6486 18.6487 11.6553 18.6467 11.6624C18.6444 11.6698 18.642 11.6773 18.6393 11.6844C18.6369 11.6911 18.6345 11.6978 18.6318 11.7041C18.6286 11.7119 18.6255 11.7194 18.622 11.7273C18.6192 11.7335 18.6161 11.7402 18.6129 11.7465C18.609 11.7544 18.605 11.7619 18.6011 11.7693C18.5976 11.7756 18.5944 11.7819 18.5909 11.7878C18.5858 11.7969 18.5799 11.8059 18.574 11.815C18.5704 11.8205 18.5669 11.826 18.5634 11.8315C18.5567 11.8413 18.5492 11.8511 18.5417 11.861C18.5386 11.8653 18.5354 11.8696 18.5319 11.8739C18.5193 11.8897 18.5063 11.905 18.4922 11.9203C18.4886 11.9243 18.4847 11.9282 18.4808 11.9321C18.4698 11.9439 18.458 11.9553 18.4462 11.9668C18.4407 11.9719 18.4352 11.9774 18.4293 11.9825C18.4222 11.9888 18.4147 11.9955 18.4072 12.0018C18.4002 12.0077 18.3935 12.0136 18.386 12.0194C18.3781 12.0257 18.3703 12.032 18.362 12.0383C18.3545 12.0442 18.3471 12.0497 18.3392 12.0556C18.3309 12.0619 18.3219 12.0678 18.3132 12.0737C18.305 12.0792 18.2971 12.0847 18.2889 12.0902C18.2798 12.0961 18.2704 12.102 18.2609 12.1079C18.2491 12.1154 18.2377 12.1225 18.2255 12.1296L15.4412 13.7475C15.4078 13.7667 15.3732 13.7848 15.3378 13.8017C15.3284 13.8061 15.3189 13.8108 15.3095 13.8151C15.2776 13.83 15.2446 13.8438 15.2112 13.8572C15.2068 13.8588 15.2025 13.8607 15.1982 13.8627C15.1597 13.8772 15.1199 13.891 15.0794 13.9032C15.0731 13.9052 15.0672 13.9071 15.0609 13.9087C15.022 13.9205 14.9827 13.9311 14.9426 13.9406C14.9363 13.9421 14.93 13.9433 14.9241 13.9449C14.884 13.9543 14.8431 13.9626 14.8022 13.9697C14.7935 13.9712 14.7849 13.9724 14.7762 13.9736C14.7412 13.9795 14.7058 13.9842 14.67 13.9885C14.6598 13.9897 14.6492 13.9913 14.639 13.9921C14.5977 13.9964 14.556 13.9999 14.5143 14.0023C14.5064 14.0027 14.499 14.0031 14.4911 14.0035C14.4482 14.0054 14.405 14.007 14.3617 14.007C14.3574 14.007 14.3531 14.007 14.3487 14.007C14.3165 14.007 14.2842 14.0054 14.2524 14.0043C14.2264 14.0031 14.2005 14.0019 14.1745 13.9999C14.1509 13.9984 14.1273 13.9964 14.1037 13.994C14.0782 13.9917 14.0526 13.9885 14.027 13.9854C13.9932 13.9811 13.9594 13.9767 13.926 13.9712C13.9236 13.9708 13.9209 13.9704 13.9185 13.97C13.876 13.9626 13.8343 13.9539 13.7927 13.9445C13.786 13.9429 13.7793 13.9417 13.7726 13.9402C13.7337 13.9307 13.6951 13.9205 13.657 13.9091C13.646 13.9059 13.6354 13.9024 13.6247 13.8989C13.5933 13.889 13.5622 13.8784 13.5315 13.867C13.5229 13.8639 13.5138 13.8607 13.5048 13.8572C13.4769 13.8466 13.4501 13.8344 13.4234 13.8226C13.4104 13.8167 13.3966 13.8116 13.3837 13.8053C13.3451 13.7868 13.3074 13.7675 13.2712 13.7467L10.47 12.1296C10.1675 11.955 10.0165 11.7261 10.0173 11.4972L10 15.8646C9.99922 16.0935 10.1502 16.3224 10.4526 16.497L13.255 18.1149C13.2912 18.1357 13.329 18.1554 13.3675 18.1735C13.3805 18.1798 13.3942 18.1849 13.4072 18.1908C13.43 18.201 13.4525 18.2116 13.4761 18.2207C13.4801 18.2222 13.4844 18.2234 13.4883 18.225C13.497 18.2285 13.5059 18.2313 13.5149 18.2348C13.5456 18.2462 13.5767 18.2568 13.6082 18.2667C13.6188 18.2702 13.6299 18.2733 13.6405 18.2769C13.6479 18.2789 13.6547 18.2816 13.6622 18.2836C13.6932 18.2922 13.7243 18.3005 13.7561 18.308C13.7628 18.3095 13.7694 18.3111 13.7757 18.3123C13.7911 18.3158 13.8064 18.3194 13.8221 18.3229C13.8484 18.3284 13.8749 18.3331 13.9016 18.3378C13.904 18.3382 13.9066 18.3386 13.9094 18.339C13.931 18.3426 13.9526 18.3461 13.9743 18.3493C13.9861 18.3508 13.9983 18.3516 14.0101 18.3532C14.0356 18.3563 14.0612 18.3591 14.0868 18.3618C14.099 18.363 14.1112 18.365 14.1234 18.3658C14.1348 18.3666 14.1462 18.3669 14.1576 18.3677C14.1836 18.3697 14.2095 18.3709 14.2354 18.3721C14.2484 18.3725 14.2614 18.3736 14.2744 18.374C14.2936 18.3744 14.3126 18.3744 14.3319 18.3744C14.3362 18.3744 14.3404 18.3744 14.3447 18.3744C14.3738 18.3744 14.4026 18.374 14.4317 18.3728C14.4458 18.3725 14.46 18.3713 14.4742 18.3709C14.482 18.3709 14.4896 18.3701 14.4974 18.3697C14.5324 18.3677 14.5674 18.365 14.602 18.3618C14.6087 18.361 14.6154 18.3603 14.6221 18.3595C14.6323 18.3583 14.6429 18.3571 14.6531 18.3559C14.6889 18.3516 14.7243 18.3465 14.7593 18.341C14.7679 18.3394 14.7766 18.3382 14.7852 18.3367C14.7895 18.3359 14.7936 18.3355 14.7979 18.3347C14.8349 18.328 14.8714 18.3202 14.9076 18.3119C14.9139 18.3103 14.9198 18.3091 14.9261 18.3076C14.9662 18.2981 15.0055 18.2875 15.0444 18.2757C15.0507 18.2737 15.057 18.2718 15.0629 18.2702C15.0712 18.2675 15.0798 18.2651 15.0885 18.2623C15.1199 18.2521 15.1509 18.2411 15.1816 18.2293C15.1859 18.2277 15.1903 18.2258 15.1946 18.2238C15.2281 18.2108 15.2608 18.1967 15.293 18.1817C15.3025 18.1774 15.3118 18.1731 15.3212 18.1684C15.3566 18.151 15.3917 18.1333 15.4247 18.1141L18.209 16.4962C18.2153 16.4926 18.2215 16.4887 18.2278 16.4852C18.2337 16.4816 18.2389 16.4781 18.2448 16.4746C18.2542 16.4687 18.2638 16.4628 18.2728 16.4569C18.2811 16.4513 18.2893 16.4458 18.2971 16.4403C18.3058 16.4344 18.3148 16.4281 18.3231 16.4222C18.3309 16.4167 18.3383 16.4108 18.3458 16.4049C18.3541 16.3986 18.3621 16.3924 18.37 16.3861C18.377 16.3802 18.384 16.3743 18.3911 16.3684C18.3986 16.3621 18.4061 16.3554 18.4132 16.3491C18.4159 16.3463 18.4194 16.344 18.4222 16.3412C18.4249 16.3389 18.4274 16.3361 18.4297 16.3338C18.4419 16.3224 18.4533 16.311 18.4643 16.2992C18.4678 16.2952 18.4716 16.2913 18.4756 16.2874C18.4897 16.272 18.5032 16.2567 18.5154 16.2409C18.5158 16.2402 18.5166 16.2398 18.517 16.239C18.5198 16.2354 18.522 16.2315 18.5248 16.228C18.5322 16.2181 18.5398 16.2083 18.5465 16.1985C18.5504 16.193 18.5535 16.1875 18.557 16.182C18.5629 16.1729 18.5685 16.1639 18.574 16.1548C18.5755 16.1525 18.5772 16.1497 18.5787 16.1474C18.5807 16.1438 18.5826 16.1399 18.5845 16.1363C18.5885 16.1289 18.5928 16.121 18.5964 16.1131C18.5995 16.1068 18.6026 16.1002 18.6054 16.0939C18.6089 16.086 18.6121 16.0785 18.6152 16.0707C18.6168 16.0671 18.6185 16.0636 18.6196 16.0604C18.6208 16.0573 18.6216 16.0541 18.6228 16.051C18.6256 16.0435 18.6279 16.0361 18.6302 16.029C18.6322 16.0223 18.6341 16.0156 18.636 16.0085C18.638 16.0011 18.6401 15.9936 18.6417 15.9861C18.6425 15.9822 18.6435 15.9779 18.6447 15.9739C18.6451 15.9712 18.6455 15.9684 18.6459 15.9657C18.6475 15.9582 18.6483 15.9503 18.6494 15.9429C18.6502 15.9362 18.6515 15.9295 18.6519 15.9228C18.6527 15.9149 18.6531 15.9075 18.6535 15.8996C18.6535 15.8953 18.6542 15.8906 18.6542 15.8862C18.6542 15.8819 18.6542 15.8772 18.6542 15.8729L18.6715 11.5054C18.6715 11.5145 18.6703 11.5239 18.6699 11.533Z" fill="url(#paint1_linear_116_620)"/>
</g>
<g filter="url(#filter2_i_116_620)">
<path d="M9.55473 10.9011C10.1446 11.2416 10.1478 11.7957 9.56181 12.1363L6.75231 13.7691C6.16635 14.1097 5.20953 14.1097 4.61964 13.7691L1.79166 12.1363C1.20177 11.7957 1.19862 11.2416 1.78459 10.9011L4.59408 9.26861C5.18004 8.92804 6.13685 8.92804 6.72675 9.26861L9.55473 10.9011Z" fill="url(#paint2_linear_116_620)"/>
</g>
<g filter="url(#filter3_i_116_620)">
<path d="M18.2222 10.9011C18.8121 11.2416 18.8153 11.7957 18.2293 12.1363L15.4198 13.7691C14.8338 14.1097 13.877 14.1097 13.2871 13.7691L10.4591 12.1363C9.86925 11.7957 9.8661 11.2416 10.4521 10.9011L13.2616 9.26861C13.8475 8.92804 14.8043 8.92804 15.3942 9.26861L18.2222 10.9011Z" fill="url(#paint3_linear_116_620)"/>
</g>
<g filter="url(#filter4_i_116_620)">
<path d="M14.0752 4.3948C14.0748 4.40266 14.0744 4.41013 14.0736 4.418C14.0728 4.42468 14.0721 4.43137 14.0713 4.43806C14.0701 4.44592 14.0689 4.45339 14.0677 4.46086C14.0666 4.46755 14.065 4.47424 14.0634 4.48131C14.0618 4.48879 14.0599 4.49626 14.0579 4.50373C14.0559 4.51042 14.054 4.5171 14.052 4.52418C14.0496 4.53165 14.0473 4.53912 14.0445 4.5462C14.0422 4.55289 14.0398 4.55957 14.0371 4.56587C14.0339 4.57373 14.0308 4.5812 14.0272 4.58907C14.0245 4.59536 14.0213 4.60205 14.0182 4.60834C14.0143 4.6162 14.0103 4.62368 14.0064 4.63115C14.0028 4.63744 13.9997 4.64373 13.9962 4.64963C13.991 4.65868 13.9852 4.66772 13.9792 4.67677C13.9757 4.68227 13.9722 4.68778 13.9686 4.69328C13.9619 4.70312 13.9545 4.71295 13.947 4.72278C13.9439 4.72711 13.9407 4.73143 13.9372 4.73576C13.9246 4.75149 13.9116 4.76683 13.8975 4.78216C13.8939 4.7861 13.89 4.79003 13.8861 4.79396C13.875 4.80576 13.8632 4.81716 13.8514 4.82857C13.8459 4.83368 13.8404 4.83919 13.8345 4.8443C13.8274 4.85059 13.82 4.85728 13.8125 4.86357C13.8054 4.86947 13.7987 4.87537 13.7913 4.88127C13.7834 4.88756 13.7755 4.89385 13.7673 4.90014C13.7598 4.90604 13.7523 4.91155 13.7445 4.91745C13.7362 4.92374 13.7272 4.92964 13.7185 4.93554C13.7103 4.94104 13.7024 4.94655 13.6941 4.95205C13.6851 4.95795 13.6757 4.96385 13.6662 4.96975C13.6544 4.97722 13.643 4.9843 13.6308 4.99138L10.8465 6.60928C10.8131 6.62855 10.7785 6.64664 10.7431 6.66355C10.7336 6.66787 10.7242 6.67259 10.7148 6.67692C10.6829 6.69186 10.6499 6.70563 10.6164 6.719C10.6121 6.72057 10.6078 6.72254 10.6035 6.7245C10.5649 6.73905 10.5252 6.75282 10.4847 6.76501C10.4784 6.76697 10.4725 6.76894 10.4662 6.77051C10.4273 6.78231 10.388 6.79293 10.3478 6.80237C10.3415 6.80394 10.3353 6.80512 10.3294 6.80669C10.2892 6.81613 10.2483 6.82439 10.2074 6.83147C10.1988 6.83304 10.1901 6.83422 10.1815 6.8354C10.1465 6.8413 10.1111 6.84602 10.0753 6.85035C10.0651 6.85153 10.0545 6.8531 10.0442 6.85389C10.0029 6.85821 9.96126 6.86175 9.91957 6.86411C9.91171 6.8645 9.90423 6.8649 9.89637 6.86529C9.8535 6.86726 9.81025 6.86883 9.76699 6.86883C9.76266 6.86883 9.75833 6.86883 9.75401 6.86883C9.72176 6.86883 9.68951 6.86726 9.65766 6.86608C9.6317 6.8649 9.60575 6.86372 9.57979 6.86175C9.5562 6.86018 9.5326 6.85821 9.509 6.85585C9.48344 6.85349 9.45788 6.85035 9.43232 6.8472C9.39849 6.84288 9.36468 6.83855 9.33125 6.83304C9.32889 6.83265 9.32614 6.83226 9.32378 6.83186C9.2813 6.82439 9.23962 6.81574 9.19793 6.8063C9.19125 6.80473 9.18456 6.80355 9.17787 6.80197C9.13894 6.79254 9.1004 6.78231 9.06225 6.77091C9.05124 6.76776 9.04063 6.76422 9.03001 6.76068C8.99855 6.75085 8.96748 6.74023 8.9368 6.72883C8.92815 6.72568 8.91911 6.72253 8.91006 6.71899C8.88214 6.70838 8.8554 6.69619 8.82866 6.68439C8.81568 6.67849 8.80191 6.67338 8.78894 6.66708C8.7504 6.6486 8.71264 6.62933 8.67646 6.60849L5.87523 4.99138C5.57281 4.81677 5.4218 4.58789 5.42258 4.35901L5.40528 8.72641C5.40449 8.95529 5.55549 9.18417 5.85791 9.35878L8.6603 10.9767C8.69648 10.9975 8.73426 11.0172 8.77279 11.0353C8.78577 11.0416 8.79949 11.0467 8.81247 11.0526C8.83528 11.0628 8.85782 11.0734 8.88141 11.0825C8.88534 11.084 8.88965 11.0852 8.89358 11.0868C8.90223 11.0903 8.91116 11.0931 8.9202 11.0966C8.95088 11.108 8.98202 11.1186 9.01348 11.1285C9.0241 11.132 9.03513 11.1352 9.04575 11.1387C9.05322 11.1407 9.05997 11.1434 9.06744 11.1454C9.09851 11.154 9.12957 11.1623 9.16142 11.1698C9.16811 11.1713 9.1747 11.1729 9.18099 11.1741C9.19633 11.1776 9.21163 11.1812 9.22737 11.1847C9.25372 11.1902 9.28015 11.1949 9.30689 11.1997C9.30925 11.2001 9.3119 11.2005 9.31465 11.2008C9.33629 11.2044 9.35791 11.2079 9.37954 11.2111C9.39134 11.2126 9.40354 11.2134 9.41533 11.215C9.4409 11.2181 9.46648 11.2209 9.49204 11.2236C9.50423 11.2248 9.51652 11.2268 9.52871 11.2276C9.54012 11.2284 9.55151 11.2288 9.56292 11.2296C9.58888 11.2315 9.61473 11.2327 9.64068 11.2339C9.65366 11.2343 9.66668 11.2354 9.67965 11.2358C9.69892 11.2362 9.71787 11.2362 9.73713 11.2362C9.74146 11.2362 9.74568 11.2362 9.75001 11.2362C9.7791 11.2362 9.80783 11.2358 9.83694 11.2347C9.85109 11.2343 9.86527 11.2331 9.87943 11.2327C9.88729 11.2327 9.89484 11.2319 9.90271 11.2315C9.93771 11.2295 9.97266 11.2268 10.0073 11.2236C10.014 11.2229 10.0207 11.2221 10.0274 11.2213C10.0376 11.2201 10.0482 11.2189 10.0584 11.2178C10.0942 11.2134 10.1296 11.2083 10.1646 11.2028C10.1732 11.2012 10.1818 11.2 10.1905 11.1985C10.1948 11.1977 10.1988 11.1973 10.2032 11.1965C10.2401 11.1898 10.2767 11.182 10.3128 11.1737C10.3191 11.1721 10.3251 11.171 10.3314 11.1694C10.3715 11.1599 10.4107 11.1493 10.4497 11.1375C10.456 11.1356 10.4623 11.1336 10.4682 11.132C10.4765 11.1293 10.4851 11.1269 10.4938 11.1242C10.5252 11.1139 10.5562 11.1029 10.5869 11.0911C10.5912 11.0895 10.5956 11.0876 10.5999 11.0856C10.6333 11.0726 10.6661 11.0585 10.6983 11.0435C10.7077 11.0392 10.7171 11.0349 10.7265 11.0302C10.7619 11.0129 10.797 10.9952 10.83 10.9759L13.6142 9.358C13.6205 9.35446 13.6268 9.35053 13.6331 9.34698C13.639 9.34345 13.6441 9.33991 13.65 9.33637C13.6595 9.33047 13.669 9.32457 13.6781 9.31867C13.6863 9.31317 13.6945 9.30766 13.7024 9.30215C13.7111 9.29626 13.7201 9.28996 13.7283 9.28406C13.7362 9.27855 13.7436 9.27265 13.7511 9.26676C13.7593 9.26046 13.7674 9.25418 13.7752 9.24788C13.7823 9.24198 13.7893 9.23609 13.7964 9.23019C13.8039 9.22389 13.8113 9.21721 13.8184 9.21092C13.8212 9.20816 13.8247 9.2058 13.8274 9.20305C13.8302 9.20069 13.8326 9.19794 13.835 9.19558C13.8472 9.18418 13.8586 9.17277 13.8696 9.16097C13.8731 9.15704 13.8769 9.1531 13.8808 9.14917C13.895 9.13383 13.9085 9.1185 13.9207 9.10277C13.9211 9.10198 13.9219 9.10159 13.9223 9.1008C13.925 9.09726 13.9273 9.09333 13.93 9.08979C13.9375 9.07996 13.945 9.07013 13.9517 9.06029C13.9557 9.05479 13.9588 9.04928 13.9623 9.04378C13.9682 9.03474 13.9737 9.02569 13.9792 9.01664C13.9808 9.01429 13.9824 9.01153 13.984 9.00917C13.986 9.00563 13.9878 9.0017 13.9898 8.99816C13.9938 8.99069 13.9981 8.98282 14.0016 8.97496C14.0048 8.96866 14.0079 8.96198 14.0106 8.95568C14.0142 8.94782 14.0174 8.94035 14.0205 8.93249C14.0221 8.92895 14.0237 8.92541 14.0249 8.92226C14.0261 8.91911 14.0269 8.91596 14.0281 8.91282C14.0308 8.90535 14.0331 8.89788 14.0355 8.8908C14.0375 8.88411 14.0393 8.87742 14.0413 8.87034C14.0433 8.86287 14.0454 8.8554 14.047 8.84793C14.0477 8.844 14.0488 8.83967 14.0499 8.83574C14.0503 8.83299 14.0508 8.83023 14.0512 8.82748C14.0528 8.82001 14.0535 8.81214 14.0547 8.80467C14.0555 8.79799 14.0568 8.7913 14.0572 8.78462C14.058 8.77675 14.0584 8.76928 14.0588 8.76141C14.0588 8.75709 14.0595 8.75237 14.0595 8.74804C14.0595 8.74372 14.0595 8.739 14.0595 8.73467L14.0768 4.36727C14.0768 4.37631 14.0756 4.38575 14.0752 4.3948Z" fill="url(#paint4_linear_116_620)"/>
</g>
<g filter="url(#filter5_i_116_620)">
<path d="M13.6294 3.76287C14.2193 4.10344 14.2225 4.65755 13.6365 4.99812L10.827 6.63096C10.2411 6.97153 9.28424 6.97153 8.69435 6.63096L5.86637 4.99812C5.27647 4.65755 5.27333 4.10344 5.85929 3.76287L8.66878 2.13043C9.25475 1.78986 10.2116 1.78986 10.8015 2.13043L13.6294 3.76287Z" fill="url(#paint5_linear_116_620)"/>
</g>
</g>
<defs>
<filter id="filter0_i_116_620" x="1.33301" y="11.4972" width="8.67139" height="9.68394" filterUnits="userSpaceOnUse" color-interpolation-filters="sRGB">
<feFlood flood-opacity="0" result="BackgroundImageFix"/>
<feBlend mode="normal" in="SourceGraphic" in2="BackgroundImageFix" result="shape"/>
<feColorMatrix in="SourceAlpha" type="matrix" values="0 0 0 0 0 0 0 0 0 0 0 0 0 0 0 0 0 0 127 0" result="hardAlpha"/>
<feOffset dy="2.80674"/>
<feGaussianBlur stdDeviation="3.50843"/>
<feComposite in2="hardAlpha" operator="arithmetic" k2="-1" k3="1"/>
<feColorMatrix type="matrix" values="0 0 0 0 1 0 0 0 0 1 0 0 0 0 1 0 0 0 0.15 0"/>
<feBlend mode="normal" in2="shape" result="effect1_innerShadow_116_620"/>
</filter>
<filter id="filter1_i_116_620" x="10" y="11.4972" width="8.67139" height="9.68394" filterUnits="userSpaceOnUse" color-interpolation-filters="sRGB">
<feFlood flood-opacity="0" result="BackgroundImageFix"/>
<feBlend mode="normal" in="SourceGraphic" in2="BackgroundImageFix" result="shape"/>
<feColorMatrix in="SourceAlpha" type="matrix" values="0 0 0 0 0 0 0 0 0 0 0 0 0 0 0 0 0 0 127 0" result="hardAlpha"/>
<feOffset dy="2.80674"/>
<feGaussianBlur stdDeviation="3.50843"/>
<feComposite in2="hardAlpha" operator="arithmetic" k2="-1" k3="1"/>
<feColorMatrix type="matrix" values="0 0 0 0 1 0 0 0 0 1 0 0 0 0 1 0 0 0 0.15 0"/>
<feBlend mode="normal" in2="shape" result="effect1_innerShadow_116_620"/>
</filter>
<filter id="filter2_i_116_620" x="1.34717" y="9.01318" width="8.65186" height="7.8181" filterUnits="userSpaceOnUse" color-interpolation-filters="sRGB">
<feFlood flood-opacity="0" result="BackgroundImageFix"/>
<feBlend mode="normal" in="SourceGraphic" in2="BackgroundImageFix" result="shape"/>
<feColorMatrix in="SourceAlpha" type="matrix" values="0 0 0 0 0 0 0 0 0 0 0 0 0 0 0 0 0 0 127 0" result="hardAlpha"/>
<feOffset dy="2.80674"/>
<feGaussianBlur stdDeviation="3.50843"/>
<feComposite in2="hardAlpha" operator="arithmetic" k2="-1" k3="1"/>
<feColorMatrix type="matrix" values="0 0 0 0 1 0 0 0 0 1 0 0 0 0 1 0 0 0 0.15 0"/>
<feBlend mode="normal" in2="shape" result="effect1_innerShadow_116_620"/>
</filter>
<filter id="filter3_i_116_620" x="10.0146" y="9.01318" width="8.65186" height="7.8181" filterUnits="userSpaceOnUse" color-interpolation-filters="sRGB">
<feFlood flood-opacity="0" result="BackgroundImageFix"/>
<feBlend mode="normal" in="SourceGraphic" in2="BackgroundImageFix" result="shape"/>
<feColorMatrix in="SourceAlpha" type="matrix" values="0 0 0 0 0 0 0 0 0 0 0 0 0 0 0 0 0 0 127 0" result="hardAlpha"/>
<feOffset dy="2.80674"/>
<feGaussianBlur stdDeviation="3.50843"/>
<feComposite in2="hardAlpha" operator="arithmetic" k2="-1" k3="1"/>
<feColorMatrix type="matrix" values="0 0 0 0 1 0 0 0 0 1 0 0 0 0 1 0 0 0 0.15 0"/>
<feBlend mode="normal" in2="shape" result="effect1_innerShadow_116_620"/>
</filter>
<filter id="filter4_i_116_620" x="5.40527" y="4.35901" width="8.67139" height="9.68394" filterUnits="userSpaceOnUse" color-interpolation-filters="sRGB">
<feFlood flood-opacity="0" result="BackgroundImageFix"/>
<feBlend mode="normal" in="SourceGraphic" in2="BackgroundImageFix" result="shape"/>
<feColorMatrix in="SourceAlpha" type="matrix" values="0 0 0 0 0 0 0 0 0 0 0 0 0 0 0 0 0 0 127 0" result="hardAlpha"/>
<feOffset dy="2.80674"/>
<feGaussianBlur stdDeviation="3.50843"/>
<feComposite in2="hardAlpha" operator="arithmetic" k2="-1" k3="1"/>
<feColorMatrix type="matrix" values="0 0 0 0 1 0 0 0 0 1 0 0 0 0 1 0 0 0 0.15 0"/>
<feBlend mode="normal" in2="shape" result="effect1_innerShadow_116_620"/>
</filter>
<filter id="filter5_i_116_620" x="5.42188" y="1.875" width="8.65186" height="7.8181" filterUnits="userSpaceOnUse" color-interpolation-filters="sRGB">
<feFlood flood-opacity="0" result="BackgroundImageFix"/>
<feBlend mode="normal" in="SourceGraphic" in2="BackgroundImageFix" result="shape"/>
<feColorMatrix in="SourceAlpha" type="matrix" values="0 0 0 0 0 0 0 0 0 0 0 0 0 0 0 0 0 0 127 0" result="hardAlpha"/>
<feOffset dy="2.80674"/>
<feGaussianBlur stdDeviation="3.50843"/>
<feComposite in2="hardAlpha" operator="arithmetic" k2="-1" k3="1"/>
<feColorMatrix type="matrix" values="0 0 0 0 1 0 0 0 0 1 0 0 0 0 1 0 0 0 0.15 0"/>
<feBlend mode="normal" in2="shape" result="effect1_innerShadow_116_620"/>
</filter>
<linearGradient id="paint0_linear_116_620" x1="10.0045" y1="14.9358" x2="1.33301" y2="14.9358" gradientUnits="userSpaceOnUse">
<stop stop-color="#DCECFF"/>
<stop offset="0.378571" stop-color="#DBDCFA"/>
<stop offset="0.671429" stop-color="#0959D0"/>
</linearGradient>
<linearGradient id="paint1_linear_116_620" x1="18.6715" y1="14.9358" x2="10" y2="14.9358" gradientUnits="userSpaceOnUse">
<stop stop-color="#DCECFF"/>
<stop offset="0.378571" stop-color="#DBDCFA"/>
<stop offset="0.671429" stop-color="#0959D0"/>
</linearGradient>
<linearGradient id="paint2_linear_116_620" x1="9.99922" y1="11.5189" x2="1.34717" y2="11.5189" gradientUnits="userSpaceOnUse">
<stop offset="0.414286" stop-color="#D2D9FF"/>
<stop offset="1" stop-color="#0065FF"/>
</linearGradient>
<linearGradient id="paint3_linear_116_620" x1="18.6667" y1="11.5189" x2="10.0146" y2="11.5189" gradientUnits="userSpaceOnUse">
<stop offset="0.414286" stop-color="#D2D9FF"/>
<stop offset="1" stop-color="#0065FF"/>
</linearGradient>
<linearGradient id="paint4_linear_116_620" x1="14.0768" y1="7.79762" x2="5.40527" y2="7.79762" gradientUnits="userSpaceOnUse">
<stop stop-color="#DCECFF"/>
<stop offset="0.378571" stop-color="#DBDCFA"/>
<stop offset="0.671429" stop-color="#0959D0"/>
</linearGradient>
<linearGradient id="paint5_linear_116_620" x1="14.0739" y1="4.38069" x2="5.42188" y2="4.38069" gradientUnits="userSpaceOnUse">
<stop offset="0.414286" stop-color="#D2D9FF"/>
<stop offset="1" stop-color="#0065FF"/>
</linearGradient>
</defs>
</svg>
