<svg width="20" height="20" viewBox="0 0 20 20" fill="none" xmlns="http://www.w3.org/2000/svg">
<mask id="mask0_116_538" style="mask-type:luminance" maskUnits="userSpaceOnUse" x="0" y="0" width="20" height="20">
<path d="M20 0H0V20H20V0Z" fill="white"/>
</mask>
<g mask="url(#mask0_116_538)">
<path d="M1.25 15.6954V6.04331C1.25 5.09231 2.08839 4.31976 3.12524 4.3781C4.04884 4.43007 5.14114 4.53278 5.97973 4.73536C6.97222 4.97513 8.15173 5.4858 9.08461 5.93737C9.37501 6.07797 9.68386 6.1755 10 6.23049V19.375C9.71347 19.3172 9.43385 19.2238 9.16984 19.0949C8.22439 18.6336 7.00272 18.0986 5.97973 17.8516C5.15041 17.6512 4.07297 17.5485 3.15595 17.496C2.10707 17.436 1.25 16.6575 1.25 15.6954Z" fill="url(#paint0_linear_116_538)"/>
<path d="M10 19.375C10.2865 19.3173 10.5661 19.2243 10.8302 19.0958C11.7756 18.636 12.9972 18.1026 14.0203 17.8564C14.8496 17.6566 15.927 17.5543 16.844 17.5019C17.893 17.4421 18.75 16.6661 18.75 15.707V6.02951C18.75 5.10372 17.9495 4.34375 16.9357 4.37599C15.8681 4.40992 14.5376 4.5109 13.5473 4.78145C12.6888 5.01602 11.6888 5.48651 10.8739 5.91691C10.5982 6.06254 10.3035 6.1695 10 6.23732V19.375Z" fill="url(#paint1_linear_116_538)"/>
<path d="M1.25 15.0704V5.41831C1.25 4.46731 2.08839 3.69476 3.12524 3.7531C4.04884 3.80507 5.14114 3.90778 5.97973 4.11036C6.97222 4.35013 8.15173 4.8608 9.08461 5.31237C9.37501 5.45297 9.68386 5.5505 10 5.60549V18.75C9.71347 18.6922 9.43385 18.5988 9.16984 18.4699C8.22439 18.0086 7.00272 17.4736 5.97973 17.2266C5.15041 17.0262 4.07297 16.9235 3.15595 16.871C2.10707 16.811 1.25 16.0325 1.25 15.0704Z" fill="url(#paint2_linear_116_538)"/>
<path d="M10 18.75C10.2865 18.6923 10.5661 18.5993 10.8302 18.4708C11.7756 18.011 12.9972 17.4776 14.0203 17.2314C14.8496 17.0316 15.927 16.9293 16.844 16.8769C17.893 16.8171 18.75 16.0411 18.75 15.082V5.40451C18.75 4.47872 17.9495 3.71875 16.9357 3.75099C15.8681 3.78492 14.5376 3.8859 13.5473 4.15645C12.6888 4.39102 11.6888 4.86151 10.8739 5.29191C10.5982 5.43754 10.3035 5.5445 10 5.61232V18.75Z" fill="url(#paint3_linear_116_538)"/>
<path d="M13.4459 15.3564C14.1568 15.1566 15.0803 15.0543 15.8663 15.0019C16.7654 14.9421 17.5 14.1661 17.5 13.207V3.52951C17.5 2.60372 16.8139 1.84375 15.9449 1.87599C15.0298 1.90992 13.8894 2.0109 13.0405 2.28145C12.3046 2.51602 11.4475 2.98651 10.749 3.41691C10.5128 3.56254 10.2601 3.6695 10 3.73732V17.5C10.7489 16.25 12.2009 15.706 13.4459 15.3564Z" fill="url(#paint4_linear_116_538)" fill-opacity="0.8"/>
<path d="M6.55405 15.3564C5.84322 15.1566 4.9197 15.0543 4.1337 15.0019C3.23459 14.9421 2.5 14.1661 2.5 13.207V3.52951C2.5 2.60372 3.18611 1.84375 4.05513 1.87599C4.97022 1.90992 6.11062 2.0109 6.95946 2.28145C7.69535 2.51602 8.55246 2.98651 9.25097 3.41691C9.48724 3.56254 9.73989 3.6695 10 3.73732V17.5C9.375 16.5625 7.79909 15.706 6.55405 15.3564Z" fill="url(#paint5_linear_116_538)" fill-opacity="0.8"/>
<path d="M12.8716 13.4813C13.464 13.2816 14.2336 13.1793 14.8886 13.1269C15.6378 13.0671 16.25 12.2911 16.25 11.332V2.27951C16.25 1.35371 15.6784 0.593755 14.9542 0.625989C14.1917 0.659924 13.2409 0.760899 12.5336 1.03145C11.9203 1.26602 11.2065 1.7365 10.6244 2.1669C10.4275 2.31253 10.2168 2.41948 10 2.48729V15.625C10.9375 14.375 11.7955 13.844 12.8716 13.4813Z" fill="url(#paint6_linear_116_538)" fill-opacity="0.8"/>
<path d="M7.12838 13.4814C6.53601 13.2816 5.76642 13.1793 5.11142 13.1269C4.36216 13.0671 3.75 12.2911 3.75 11.332V2.27951C3.75 1.35371 4.32159 0.593755 5.04578 0.625989C5.80834 0.659924 6.75907 0.760899 7.46643 1.03145C8.07967 1.26602 8.79352 1.7365 9.37561 2.1669C9.5725 2.31253 9.78324 2.41948 10 2.48729V15.625C9.37561 14.6875 8.20448 13.844 7.12838 13.4814Z" fill="url(#paint7_linear_116_538)" fill-opacity="0.8"/>
</g>
<defs>
<linearGradient id="paint0_linear_116_538" x1="1.25" y1="11.875" x2="10" y2="11.875" gradientUnits="userSpaceOnUse">
<stop stop-color="#5275EB"/>
<stop offset="0.514286" stop-color="#3E5DCA"/>
<stop offset="1" stop-color="#17265B"/>
</linearGradient>
<linearGradient id="paint1_linear_116_538" x1="10" y1="11.875" x2="18.75" y2="11.875" gradientUnits="userSpaceOnUse">
<stop stop-color="#3F63E1"/>
<stop offset="0.535714" stop-color="#5898DC"/>
<stop offset="1" stop-color="#B6ABF4"/>
</linearGradient>
<linearGradient id="paint2_linear_116_538" x1="1.25" y1="11.25" x2="10" y2="11.25" gradientUnits="userSpaceOnUse">
<stop stop-color="#6A8BFF"/>
<stop offset="0.5" stop-color="#5272E2"/>
<stop offset="1" stop-color="#2D479E"/>
</linearGradient>
<linearGradient id="paint3_linear_116_538" x1="10" y1="11.25" x2="18.75" y2="11.25" gradientUnits="userSpaceOnUse">
<stop stop-color="#7292FF"/>
<stop offset="0.5" stop-color="#8BC3FF"/>
<stop offset="0.992857" stop-color="#C8BFFF"/>
</linearGradient>
<linearGradient id="paint4_linear_116_538" x1="16.6438" y1="7.21486" x2="10" y2="9.6875" gradientUnits="userSpaceOnUse">
<stop stop-color="#E7EDFF"/>
<stop offset="0.992857" stop-color="#C2D0FF"/>
</linearGradient>
<linearGradient id="paint5_linear_116_538" x1="3.3562" y1="7.21486" x2="10" y2="9.6875" gradientUnits="userSpaceOnUse">
<stop stop-color="#E7EDFF"/>
<stop offset="0.992857" stop-color="#C2D0FF"/>
</linearGradient>
<linearGradient id="paint6_linear_116_538" x1="14.7717" y1="3.48446" x2="26.3" y2="8.125" gradientUnits="userSpaceOnUse">
<stop stop-color="white"/>
<stop offset="0.305773" stop-color="#DDE5FF"/>
<stop offset="0.964286" stop-color="#DDE5FF"/>
</linearGradient>
<linearGradient id="paint7_linear_116_538" x1="5.22827" y1="3.48446" x2="11.1865" y2="13.7811" gradientUnits="userSpaceOnUse">
<stop stop-color="white"/>
<stop offset="0.664286" stop-color="#DDE5FF"/>
</linearGradient>
</defs>
</svg>
