<svg xmlns="http://www.w3.org/2000/svg" width="10" height="10" viewBox="0 0 10 10" fill="none">
  <path d="M8 4.5C8 2.567 6.433 1 4.5 1C2.567 1 1 2.567 1 4.5C1 6.433 2.567 8 4.5 8C6.433 8 8 6.433 8 4.5ZM9 4.5C9 5.56251 8.63144 6.53876 8.01562 7.30859L9.85352 9.14648C10.0488 9.34175 10.0488 9.65825 9.85352 9.85352C9.65825 10.0488 9.34175 10.0488 9.14648 9.85352L7.30859 8.01562C6.53876 8.63144 5.56251 9 4.5 9C2.01472 9 0 6.98528 0 4.5C0 2.01472 2.01472 0 4.5 0C6.98528 0 9 2.01472 9 4.5Z" fill="#505C71" fill-opacity="0.47"/>
</svg>
