<svg xmlns="http://www.w3.org/2000/svg" width="24" height="24" viewBox="0 0 24 24" fill="none">
  <mask id="mask0_226_53468" style="mask-type:luminance" maskUnits="userSpaceOnUse" x="0" y="0" width="24" height="24">
    <path d="M23.995 0H0.00390625V23.1475H23.995V0Z" fill="white"/>
  </mask>
  <g mask="url(#mask0_226_53468)">
    <path fill-rule="evenodd" clip-rule="evenodd" d="M12.0008 1.92908C11.0785 1.92908 10.3308 2.65045 10.3308 3.54032C10.3308 4.41219 10.1567 5.24538 9.80838 6.0399C9.4716 6.80814 8.99583 7.48883 8.38105 8.08199C7.76628 8.67515 7.06077 9.1342 6.26455 9.45913C5.44107 9.79518 4.57751 9.96321 3.67387 9.96321C2.75157 9.96321 2.00391 10.6846 2.00391 11.5745C2.00391 12.0018 2.17985 12.4116 2.49303 12.7138C2.8062 13.0159 3.23097 13.1857 3.67387 13.1857H3.67553C5.0301 13.1855 6.32679 12.9326 7.56562 12.427C8.76183 11.9389 9.82087 11.2501 10.7427 10.3606C11.6646 9.47118 12.3785 8.44938 12.8845 7.29523C13.4087 6.09947 13.6708 4.84784 13.6708 3.54032C13.6708 2.65045 12.9231 1.92908 12.0008 1.92908Z" fill="url(#paint0_linear_226_53468)"/>
    <path fill-rule="evenodd" clip-rule="evenodd" d="M11.9992 1.92896C12.9215 1.92896 13.6692 2.65033 13.6692 3.5402C13.6692 4.41206 13.8433 5.24526 14.1916 6.03978C14.5284 6.80801 15.0042 7.48871 15.6189 8.08187C16.2337 8.67503 16.9392 9.13407 17.7355 9.45901C18.5589 9.79506 19.4225 9.96309 20.3261 9.96309C21.2484 9.96309 21.9961 10.6845 21.9961 11.5743C21.9961 12.0017 21.8202 12.4115 21.507 12.7136C21.1938 13.0158 20.769 13.1856 20.3261 13.1856H20.3245C18.9699 13.1854 17.6732 12.9325 16.4344 12.4269C15.2382 11.9388 14.1791 11.25 13.2573 10.3605C12.3354 9.47106 11.6215 8.44926 11.1155 7.29511C10.5913 6.09935 10.3292 4.84771 10.3292 3.5402C10.3292 2.65033 11.0769 1.92896 11.9992 1.92896Z" fill="url(#paint1_linear_226_53468)"/>
    <path fill-rule="evenodd" clip-rule="evenodd" d="M12.0008 21.2186C11.0785 21.2186 10.3308 20.4973 10.3308 19.6074C10.3308 18.7355 10.1567 17.9023 9.80838 17.1078C9.4716 16.3396 8.99583 15.6589 8.38105 15.0657C7.76628 14.4726 7.06077 14.0135 6.26455 13.6886C5.44107 13.3525 4.57751 13.1845 3.67387 13.1845C2.75157 13.1845 2.00391 12.4631 2.00391 11.5733C2.00391 11.1459 2.17985 10.7361 2.49303 10.4339C2.8062 10.1318 3.23097 9.96201 3.67387 9.96201H3.67553C5.0301 9.96222 6.32679 10.2151 7.56562 10.7207C8.76183 11.2088 9.82087 11.8976 10.7427 12.7871C11.6646 13.6765 12.3785 14.6983 12.8845 15.8525C13.4087 17.0482 13.6708 18.2999 13.6708 19.6074C13.6708 20.4973 12.9231 21.2186 12.0008 21.2186Z" fill="url(#paint2_linear_226_53468)"/>
    <path fill-rule="evenodd" clip-rule="evenodd" d="M11.9992 21.2186C12.9215 21.2186 13.6692 20.4973 13.6692 19.6074C13.6692 18.7355 13.8433 17.9023 14.1916 17.1078C14.5284 16.3396 15.0042 15.6589 15.6189 15.0657C16.2337 14.4726 16.9392 14.0135 17.7355 13.6886C18.5589 13.3525 19.4225 13.1845 20.3261 13.1845C21.2484 13.1845 21.9961 12.4631 21.9961 11.5733C21.9961 11.1459 21.8202 10.7361 21.507 10.4339C21.1938 10.1318 20.769 9.96201 20.3261 9.96201H20.3245C18.9699 9.96222 17.6732 10.2151 16.4344 10.7207C15.2382 11.2088 14.1791 11.8976 13.2573 12.7871C12.3354 13.6765 11.6215 14.6983 11.1155 15.8525C10.5913 17.0482 10.3292 18.2999 10.3292 19.6074C10.3292 20.4973 11.0769 21.2186 11.9992 21.2186Z" fill="url(#paint3_linear_226_53468)"/>
  </g>
  <defs>
    <linearGradient id="paint0_linear_226_53468" x1="-0.0698811" y1="13.1857" x2="11.6395" y2="0.593664" gradientUnits="userSpaceOnUse">
      <stop offset="0.271429" stop-color="#36FF23"/>
      <stop offset="0.621429" stop-color="#B3D9FF"/>
      <stop offset="1" stop-color="#09D6FF"/>
    </linearGradient>
    <linearGradient id="paint1_linear_226_53468" x1="24.0699" y1="13.1856" x2="12.3605" y2="0.593542" gradientUnits="userSpaceOnUse">
      <stop offset="0.271429" stop-color="#B378FF"/>
      <stop offset="0.642857" stop-color="#9FCFFF"/>
      <stop offset="1" stop-color="#28D7FF"/>
    </linearGradient>
    <linearGradient id="paint2_linear_226_53468" x1="-0.0698811" y1="9.96201" x2="11.6395" y2="22.554" gradientUnits="userSpaceOnUse">
      <stop offset="0.271429" stop-color="#5DF050"/>
      <stop offset="0.628571" stop-color="#84C1FF"/>
      <stop offset="1" stop-color="#09D6FF"/>
    </linearGradient>
    <linearGradient id="paint3_linear_226_53468" x1="24.0699" y1="9.96201" x2="12.3605" y2="22.554" gradientUnits="userSpaceOnUse">
      <stop offset="0.214286" stop-color="#D7B9FF"/>
      <stop offset="0.621428" stop-color="#9BA0FF"/>
      <stop offset="1" stop-color="#09B1FF"/>
    </linearGradient>
  </defs>
</svg>
