<svg width="18" height="18" viewBox="0 0 18 18" fill="none" xmlns="http://www.w3.org/2000/svg">
<path d="M14.9976 14.5184V3.13358C14.9976 2.44347 14.4381 1.88403 13.748 1.88403H1.25253C0.562425 1.88403 0.00298309 2.44347 0.00298309 3.13358V14.5184C0.00298309 15.2085 0.562425 15.768 1.25253 15.768H13.748C14.4381 15.768 14.9976 15.2085 14.9976 14.5184Z" fill="url(#paint0_linear_116_520)"/>
<path d="M14.9976 13.8243V2.43949C14.9976 1.74938 14.4381 1.18994 13.748 1.18994H1.25253C0.562425 1.18994 0.00298309 1.74938 0.00298309 2.43949V13.8243C0.00298309 14.5144 0.562425 15.0739 1.25253 15.0739H13.748C14.4381 15.0739 14.9976 14.5144 14.9976 13.8243Z" fill="url(#paint1_linear_116_520)"/>
<path d="M16.6849 12.7037L13.4626 1.36965C13.274 0.70618 12.579 0.305247 11.9102 0.474136L1.21467 3.17519C0.545909 3.34408 0.15668 4.01883 0.345301 4.6823L3.56755 16.0164C3.75617 16.6798 4.45121 17.0808 5.11997 16.9119L15.8155 14.2108C16.4843 14.0419 16.8735 13.3672 16.6849 12.7037Z" fill="url(#paint2_linear_116_520)"/>
<path fill-rule="evenodd" clip-rule="evenodd" d="M1.48187 2.73966L12.1774 0.0386081C12.8462 -0.130281 13.5412 0.270652 13.7298 0.934117L16.9521 12.2682C17.1407 12.9316 16.7515 13.6064 16.0827 13.7753L5.38718 16.4763C4.71842 16.6452 4.02337 16.2443 3.83475 15.5808L0.612505 4.24678C0.423884 3.58331 0.813113 2.90855 1.48187 2.73966ZM3.3096 4.12132C3.33464 4.41648 3.10382 4.67183 2.79066 4.69543C2.63319 4.70729 2.4783 4.6569 2.36213 4.55601C2.25773 4.46534 2.19285 4.3397 2.18153 4.20633C2.15649 3.91118 2.38731 3.65582 2.70047 3.63223C2.85795 3.62036 3.01283 3.67075 3.12901 3.77165C3.2334 3.86232 3.29829 3.98795 3.3096 4.12132ZM4.56917 4.24628C4.88233 4.22268 5.11315 3.96733 5.08811 3.67218C5.0768 3.53881 5.01191 3.41317 4.90751 3.3225C4.79134 3.2216 4.63645 3.17121 4.47898 3.18308C4.16582 3.20668 3.935 3.46203 3.96004 3.75718C3.97135 3.89056 4.03624 4.01619 4.14064 4.10686C4.25681 4.20776 4.41169 4.25815 4.56917 4.24628Z" fill="url(#paint3_linear_116_520)"/>
<g opacity="0.4">
<path d="M5.17944 6.42674L6.96317 12.7009C7.06833 13.0708 7.45585 13.2943 7.82871 13.2002C8.20157 13.106 8.41858 12.7298 8.31342 12.3599L7.61518 9.90388L9.65787 9.38801C11.6659 8.8809 12.43 7.78314 11.9532 6.10617C11.4797 4.4406 10.2389 3.86137 8.25391 4.36266L6.04887 4.91952C5.38007 5.08842 4.99081 5.76322 5.17944 6.42674ZM6.51247 6.02515L8.47437 5.52969C9.06294 5.38105 9.53068 5.37298 9.86927 5.51978C10.2046 5.65518 10.452 5.95953 10.5914 6.45007C10.7309 6.94062 10.6929 7.32924 10.4776 7.61594C10.259 7.89123 9.85287 8.11606 9.25276 8.26761L7.29085 8.76307L6.51247 6.02515Z" fill="url(#paint4_linear_116_520)"/>
</g>
<defs>
<linearGradient id="paint0_linear_116_520" x1="10.509" y1="1.95975" x2="13.7944" y2="16.1589" gradientUnits="userSpaceOnUse">
<stop offset="0.249267" stop-color="#7292FF"/>
<stop offset="1" stop-color="#311D9E"/>
</linearGradient>
<linearGradient id="paint1_linear_116_520" x1="1.70576" y1="1.29878" x2="13.7944" y2="15.4648" gradientUnits="userSpaceOnUse">
<stop offset="0.249267" stop-color="#7292FF"/>
<stop offset="1" stop-color="#8A75FF"/>
</linearGradient>
<linearGradient id="paint2_linear_116_520" x1="4.15645" y1="1.6079" x2="10.2429" y2="13.2464" gradientUnits="userSpaceOnUse">
<stop stop-color="#E1E1E1" stop-opacity="0"/>
<stop offset="0.95" stop-color="#8EA7FF"/>
</linearGradient>
<linearGradient id="paint3_linear_116_520" x1="1.80776" y1="6.33201" x2="17.6064" y2="9.94612" gradientUnits="userSpaceOnUse">
<stop stop-color="white"/>
<stop offset="0.964286" stop-color="#DDE5FF"/>
</linearGradient>
<linearGradient id="paint4_linear_116_520" x1="5.99574" y1="9.298" x2="12.3473" y2="7.49228" gradientUnits="userSpaceOnUse">
<stop stop-color="#3357FF"/>
<stop offset="0.971429" stop-color="#1E0DDA"/>
</linearGradient>
</defs>
</svg>
