<svg width="80" height="87" viewBox="0 0 80 87" fill="none" xmlns="http://www.w3.org/2000/svg">
<path fill-rule="evenodd" clip-rule="evenodd" d="M38.5293 4.22021V7.43116H39.5292V4.22021H38.5293ZM38.5293 13.853V20.2749H39.5292V13.853H38.5293ZM38.5293 26.6968V33.1187H39.5292V26.6968H38.5293ZM38.5293 39.5406V42.7515H39.5292V39.5406H38.5293Z" fill="black"/>
<path fill-rule="evenodd" clip-rule="evenodd" d="M39.2681 43.3298L41.8606 44.8535L42.3671 43.9918L39.2666 42.1694L36.3147 43.9146L36.8234 44.7751L39.2681 43.3298ZM25.7424 51.3262L31.2829 48.0506L30.7742 47.1902L25.2336 50.4657L25.7424 51.3262ZM47.4095 48.1149L52.9583 51.3763L53.4648 50.5146L47.916 47.2532L47.4095 48.1149ZM14.6613 57.8773L20.2018 54.6017L19.6931 53.7412L14.1526 57.0168L14.6613 57.8773ZM58.5072 54.6377L64.056 57.8991L64.5626 57.0374L59.0137 53.776L58.5072 54.6377ZM6.35051 62.7906L9.12078 61.1528L8.61206 60.2923L5.8418 61.9301L6.35051 62.7906ZM69.6049 61.1605L72.3793 62.7912L72.8858 61.9295L70.1114 60.2988L69.6049 61.1605Z" fill="black"/>
<path d="M39.7801 4.28689L73.3981 23.6963V62.8037L39.5301 82.3574L5.66211 62.8037L5.66211 23.6963L39.5301 4.14258L39.7801 4.28689ZM39.2802 5.15278L39.5301 4.71984L39.7801 5.15278L6.41199 24.4179L6.16203 23.9849H6.66195L6.66196 62.5151H6.16203L6.41199 62.0821L39.7801 81.3472L39.5301 81.7802L39.2802 81.3472L72.6482 62.0821L72.8982 62.5151H72.3983V23.9849H72.8982L72.6482 24.4179L39.2802 5.15278Z" fill="black"/>
<path fill-rule="evenodd" clip-rule="evenodd" d="M59.3631 31.8589L39.0311 20.1202L38.5311 19.8315L17.6992 31.8589L17.6992 55.9135L38.5311 67.9408L59.3631 55.9135V31.8589ZM18.6992 32.4362L38.5311 20.9862L58.3631 32.4362V55.3362L38.5311 66.7862L18.6992 55.3362L18.6992 32.4362Z" fill="black"/>
<path d="M38.5312 43.886V66.786L58.487 55.336V32.436L38.5312 43.886Z" fill="black"/>
<path d="M38.5312 43.886V66.786L18.5755 55.336V32.436L38.5312 43.886Z" fill="white"/>
<path d="M58.4863 32.4363L38.5306 43.8863L18.5749 32.4363L38.5306 20.9863L58.4863 32.4363Z" fill="white"/>
<path fill-rule="evenodd" clip-rule="evenodd" d="M38.0328 44.304L38.0328 66.7863H39.0328L39.0328 44.304L58.7395 32.8688L58.2376 32.0039L38.5328 43.438L18.828 32.0039L18.3262 32.8688L38.0328 44.304Z" fill="black"/>
<path fill-rule="evenodd" clip-rule="evenodd" d="M39.5151 43.3587L72.8898 24.1384L72.3908 23.272L39.0152 42.4928L5.63958 23.272L5.14062 24.1384L38.5153 43.3587V81.1481H39.5151V43.3587Z" fill="black"/>
<path d="M6.08055 20.6997L9.11227 22.4501V25.9508L6.08055 27.7012L3.04883 25.9508L3.04883 22.4501L6.08055 20.6997Z" fill="white"/>
<path d="M6.33 20.2668L9.61154 22.1614V26.239L6.08018 28.2779L2.54883 26.239L2.54883 22.1614L6.08018 20.1226L6.33 20.2668ZM5.83037 21.1322L6.08018 20.6995L6.33 21.1322L3.29828 22.8825L3.04846 22.4499H3.5481L3.5481 25.9506H3.04846L3.29828 25.5179L6.33 27.2682L6.08018 27.7009L5.83037 27.2683L8.86209 25.5179L9.1119 25.9506H8.61227V22.4499H9.1119L8.86209 22.8825L5.83037 21.1322Z" fill="black"/>
<path d="M39.52 39.7495L42.5517 41.4999V45.0006L39.52 46.751L36.4883 45.0006L36.4883 41.4999L39.52 39.7495Z" fill="white"/>
<path d="M39.7695 39.3166L43.051 41.2112V45.2889L39.5196 47.3277L35.9883 45.2889L35.9883 41.2112L39.5196 39.1724L39.7695 39.3166ZM39.2698 40.182L39.5196 39.7493L39.7695 40.182L36.7377 41.9324L36.4879 41.4997H36.9876L36.9876 45.0004H36.4879L36.7377 44.5677L39.7695 46.3181L39.5196 46.7508L39.2698 46.3181L42.3015 44.5677L42.5514 45.0004H42.0517V41.4997H42.5514L42.3015 41.9324L39.2698 40.182Z" fill="black"/>
<path d="M39.52 0.999512L42.5517 2.74988V6.25061L39.52 8.00097L36.4883 6.25061L36.4883 2.74988L39.52 0.999512Z" fill="white"/>
<path d="M39.7695 0.566596L43.051 2.46119V6.53885L39.5196 8.57768L35.9883 6.53885L35.9883 2.46119L39.5196 0.422363L39.7695 0.566596ZM39.2698 1.43199L39.5196 0.999292L39.7695 1.43199L36.7377 3.18235L36.4879 2.74966H36.9876L36.9876 6.25039H36.4879L36.7377 5.81769L39.7695 7.56805L39.5196 8.00075L39.2698 7.56806L42.3015 5.81769L42.5514 6.25039H42.0517V2.74966H42.5514L42.3015 3.18235L39.2698 1.43199Z" fill="black"/>
<path d="M73.1411 20.8296L76.1728 22.58V26.0807L73.1411 27.831L70.1094 26.0807L70.1094 22.58L73.1411 20.8296Z" fill="white"/>
<path d="M73.3905 20.3967L76.6721 22.2913V26.3689L73.1407 28.4078L69.6094 26.3689L69.6094 22.2913L73.1407 20.2524L73.3905 20.3967ZM72.8909 21.2621L73.1407 20.8294L73.3905 21.2621L70.3588 23.0124L70.109 22.5797H70.6086L70.6086 26.0805H70.109L70.3588 25.6478L73.3905 27.3981L73.1407 27.8308L72.8909 27.3981L75.9226 25.6478L76.1725 26.0805H75.6728V22.5797H76.1725L75.9226 23.0124L72.8909 21.2621Z" fill="black"/>
<path d="M72.7798 59.1694L75.8115 60.9198V64.4205L72.7798 66.1709L69.748 64.4205L69.748 60.9198L72.7798 59.1694Z" fill="white"/>
<path d="M73.0292 58.7365L76.3108 60.6311V64.7088L72.7794 66.7476L69.248 64.7088L69.248 60.6311L72.7794 58.5923L73.0292 58.7365ZM72.5296 59.6019L72.7794 59.1692L73.0292 59.6019L69.9975 61.3523L69.7477 60.9196H70.2473L70.2473 64.4203H69.7477L69.9975 63.9876L73.0292 65.738L72.7794 66.1707L72.5296 65.738L75.5613 63.9876L75.8111 64.4203H75.3115V60.9196H75.8111L75.5613 61.3523L72.5296 59.6019Z" fill="black"/>
<path d="M39.52 78.2993L42.5517 80.0497V83.5504L39.52 85.3008L36.4883 83.5504L36.4883 80.0497L39.52 78.2993Z" fill="white"/>
<path d="M39.7695 77.8664L43.051 79.761V83.8387L39.5196 85.8775L35.9883 83.8387L35.9883 79.761L39.5196 77.7222L39.7695 77.8664ZM39.2698 78.7318L39.5196 78.2991L39.7695 78.7318L36.7377 80.4822L36.4879 80.0495H36.9876L36.9876 83.5502H36.4879L36.7377 83.1175L39.7695 84.8679L39.5196 85.3006L39.2698 84.8679L42.3015 83.1175L42.5514 83.5502H42.0517V80.0495H42.5514L42.3015 80.4822L39.2698 78.7318Z" fill="black"/>
<path d="M6.08055 58.6997L9.11227 60.4501V63.9508L6.08055 65.7012L3.04883 63.9508L3.04883 60.4501L6.08055 58.6997Z" fill="white"/>
<path d="M6.33 58.2668L9.61154 60.1614V64.239L6.08018 66.2779L2.54883 64.239L2.54883 60.1614L6.08018 58.1226L6.33 58.2668ZM5.83037 59.1322L6.08018 58.6995L6.33 59.1322L3.29828 60.8825L3.04846 60.4499H3.5481L3.5481 63.9506H3.04846L3.29828 63.5179L6.33 65.2682L6.08018 65.7009L5.83037 65.2683L8.86209 63.5179L9.1119 63.9506H8.61227V60.4499H9.1119L8.86209 60.8825L5.83037 59.1322Z" fill="black"/>
<path fill-rule="evenodd" clip-rule="evenodd" d="M6.08856 23.871L8.96812 22.361L8.50461 21.4771L5.58953 23.0057L2.67445 21.4771L2.21094 22.361L5.0905 23.871V26.8141H6.08856L6.08856 23.871Z" fill="black"/>
<path fill-rule="evenodd" clip-rule="evenodd" d="M38.5179 43.2718L38.5179 46.2288H39.515L39.515 43.2718L42.0642 41.7679L41.5576 40.9092L39.0165 42.4083L36.4754 40.9092L35.9688 41.7679L38.5179 43.2718Z" fill="black"/>
<path fill-rule="evenodd" clip-rule="evenodd" d="M38.5179 4.52181L38.5179 7.47877H39.515L39.515 4.52181L42.0642 3.01794L41.5576 2.15918L39.0165 3.65827L36.4754 2.15918L35.9688 3.01794L38.5179 4.52181Z" fill="black"/>
<path fill-rule="evenodd" clip-rule="evenodd" d="M73.1491 23.951L76.0287 22.441L75.5652 21.5571L72.6501 23.0858L69.735 21.5571L69.2715 22.441L72.151 23.951V26.8942H73.1491L73.1491 23.951Z" fill="black"/>
<path fill-rule="evenodd" clip-rule="evenodd" d="M72.78 62.371L75.6595 60.861L75.196 59.9771L72.2809 61.5057L69.3659 59.9771L68.9023 60.861L71.7819 62.371V65.3141H72.78L72.78 62.371Z" fill="black"/>
<path fill-rule="evenodd" clip-rule="evenodd" d="M38.5179 81.8221L38.5179 84.7791H39.515L39.515 81.8221L42.0642 80.3182L41.5576 79.4595L39.0165 80.9586L36.4754 79.4595L35.9688 80.3182L38.5179 81.8221Z" fill="black"/>
<path fill-rule="evenodd" clip-rule="evenodd" d="M6.06903 61.9012L8.94859 60.3912L8.48508 59.5073L5.57 61.036L2.65492 59.5073L2.19141 60.3912L5.07097 61.9012V64.8444H6.06903L6.06903 61.9012Z" fill="black"/>
</svg>
