<svg width="82" height="77" viewBox="0 0 82 77" fill="none" xmlns="http://www.w3.org/2000/svg">
<path d="M81.1151 51.0393L39.0158 73.8112L0.5 53.1112L42.5925 30.3457L81.1151 51.0393Z" fill="white"/>
<path d="M81.189 27.3958L81.1144 53.1365L42.5918 32.4428L42.6732 6.6958L81.189 27.3958Z" fill="black"/>
<path fill-rule="evenodd" clip-rule="evenodd" d="M81.4257 26.9553L42.9099 6.25537C42.8365 6.21592 42.7581 6.19607 42.6748 6.1958C42.6085 6.19559 42.5447 6.20808 42.4833 6.23326C42.422 6.25843 42.3678 6.29439 42.3208 6.34112C42.2738 6.38785 42.2375 6.4418 42.2119 6.50297C42.1863 6.56414 42.1734 6.62788 42.1732 6.69418L42.0918 32.4412C42.0917 32.4865 42.0976 32.531 42.1095 32.5747C42.1215 32.6184 42.1391 32.6598 42.1623 32.6987C42.1854 32.7376 42.2134 32.7727 42.2462 32.8041C42.2789 32.8354 42.3152 32.8618 42.3552 32.8832L80.8778 53.5768C80.9512 53.6163 81.0296 53.6361 81.1129 53.6364C81.1792 53.6366 81.243 53.6241 81.3043 53.5989C81.3656 53.5737 81.4198 53.5377 81.4668 53.491C81.5139 53.4442 81.5501 53.3903 81.5757 53.3291C81.6012 53.2679 81.6141 53.2042 81.6143 53.1379L81.689 27.3972C81.6891 27.3519 81.6832 27.3074 81.6712 27.2637C81.6593 27.22 81.6417 27.1787 81.6185 27.1398C81.5953 27.1009 81.5674 27.0658 81.5346 27.0345C81.5019 27.0031 81.4656 26.9768 81.4257 26.9553ZM43.1705 7.53062L43.0927 32.1443L80.6168 52.3016L80.6882 27.6941L43.1705 7.53062Z" fill="black"/>
<path d="M42.674 6.69531L42.5925 32.4423L0.5 55.2079L0.581443 29.4608L42.674 6.69531Z" fill="black"/>
<path fill-rule="evenodd" clip-rule="evenodd" d="M42.4361 6.25557L0.343558 29.0211C0.304042 29.0425 0.26806 29.0687 0.235613 29.0998C0.203165 29.1308 0.17541 29.1656 0.152348 29.2042C0.129285 29.2427 0.111738 29.2837 0.0997065 29.327C0.0876748 29.3702 0.0815879 29.4143 0.0814457 29.4593L2.66128e-06 55.2063C-0.000265948 55.2912 0.019799 55.371 0.0601976 55.4457C0.0758145 55.4746 0.0940979 55.5017 0.115048 55.5269C0.135998 55.5522 0.159212 55.5752 0.18469 55.5959C0.210168 55.6166 0.237421 55.6346 0.266448 55.6499C0.295475 55.6653 0.325718 55.6776 0.357179 55.687C0.388639 55.6964 0.420712 55.7026 0.453397 55.7057C0.486082 55.7087 0.518751 55.7085 0.551404 55.7052C0.584058 55.7018 0.616068 55.6953 0.647434 55.6856C0.678801 55.6759 0.708922 55.6632 0.737797 55.6476L42.8303 32.8821C42.8698 32.8607 42.9058 32.8345 42.9383 32.8034C42.9707 32.7724 42.9985 32.7376 43.0215 32.699C43.0446 32.6604 43.0621 32.6195 43.0742 32.5762C43.0862 32.533 43.0923 32.4889 43.0924 32.4439L43.1739 6.69691C43.1741 6.61199 43.1541 6.53218 43.1137 6.45748C43.0821 6.39917 43.0406 6.34911 42.9892 6.3073C42.9377 6.26549 42.8802 6.23512 42.8167 6.21619C42.7532 6.19726 42.6884 6.1912 42.6225 6.19802C42.5565 6.20485 42.4944 6.22403 42.4361 6.25557ZM1.08041 29.7594L1.00257 54.3676L42.0935 32.1438L42.1713 7.53556L1.08041 29.7594Z" fill="black"/>
<path d="M57.821 11.7409L59.5245 14.6087L73.0576 21.8793L72.9829 53.3809L42.4961 36.9953L42.5708 5.5L47.4505 8.12145L49.3509 7.18657L57.821 11.7409Z" fill="white"/>
<path fill-rule="evenodd" clip-rule="evenodd" d="M58.0577 11.3006L49.5876 6.74619C49.5165 6.70796 49.4406 6.68811 49.3599 6.68665C49.2792 6.68519 49.2026 6.70228 49.1302 6.73792L47.4606 7.55928L42.8073 5.05953C42.7338 5.02004 42.6553 5.0002 42.5719 5C42.5391 4.99992 42.5065 5.00305 42.4743 5.00938C42.4421 5.0157 42.4108 5.02511 42.3805 5.0376C42.3501 5.0501 42.3213 5.06543 42.2939 5.0836C42.2666 5.10177 42.2413 5.12244 42.218 5.1456C42.1948 5.16875 42.174 5.19396 42.1557 5.22121C42.1374 5.24846 42.1219 5.27724 42.1093 5.30754C42.0966 5.33784 42.0871 5.36908 42.0806 5.40126C42.0741 5.43344 42.0708 5.46594 42.0708 5.49877L41.9961 36.9941C41.996 37.0394 42.0019 37.0838 42.0139 37.1275C42.0259 37.1712 42.0434 37.2124 42.0666 37.2513C42.0898 37.2902 42.1178 37.3253 42.1505 37.3566C42.1832 37.3879 42.2195 37.4142 42.2594 37.4357L72.7462 53.8212C72.8197 53.8608 72.8982 53.8806 72.9817 53.8808C73.0145 53.8809 73.047 53.8778 73.0792 53.8714C73.1115 53.8651 73.1427 53.8557 73.1731 53.8432C73.2035 53.8307 73.2323 53.8154 73.2596 53.7972C73.287 53.779 73.3123 53.7584 73.3356 53.7352C73.3588 53.7121 73.3796 53.6868 73.3979 53.6596C73.4162 53.6323 73.4317 53.6036 73.4443 53.5733C73.457 53.543 73.4665 53.5117 73.473 53.4796C73.4795 53.4474 73.4827 53.4149 73.4828 53.382L73.5575 21.8804C73.5576 21.8352 73.5517 21.7907 73.5397 21.747C73.5278 21.7034 73.5102 21.6621 73.487 21.6232C73.4638 21.5843 73.4358 21.5492 73.4031 21.5179C73.3704 21.4866 73.3341 21.4603 73.2942 21.4388L59.8834 14.234L58.2508 11.4856C58.2035 11.406 58.1392 11.3444 58.0577 11.3006ZM49.3407 7.74871L47.6712 8.57001C47.5988 8.60563 47.5222 8.62272 47.4416 8.62128C47.3609 8.61983 47.285 8.60002 47.2139 8.56183L43.0687 6.335L42.9967 36.6968L72.4849 52.5456L72.5569 22.1778L59.2878 15.0491C59.2063 15.0053 59.1419 14.9436 59.0946 14.864L57.462 12.1155L49.3407 7.74871Z" fill="black"/>
<path d="M49.821 15.7404L51.5245 18.6082L65.0576 25.8788L64.9829 57.3804L34.4961 40.9948L34.5708 9.49951L39.4505 12.121L41.3509 11.1861L49.821 15.7404Z" fill="white"/>
<path fill-rule="evenodd" clip-rule="evenodd" d="M50.1806 15.3659L41.5883 10.7458L41.3617 10.624L39.4613 11.5589L34.0734 8.66455L33.9961 41.2934L65.4816 58.2157L65.559 25.5803L51.8841 18.2336L50.1806 15.3659ZM41.3414 11.7483L39.4412 12.6832L35.0694 10.3346L34.9974 40.6964L64.4856 56.5453L64.5576 26.1775L51.1662 18.983L49.4627 16.1152L41.3414 11.7483Z" fill="black"/>
<path d="M40.8229 6.74143L42.5264 9.60922L56.0596 16.8861L55.9849 48.3814L25.498 32.0021L25.5727 0.500488L30.4593 3.12825L32.3528 2.19337L40.8229 6.74143Z" fill="white"/>
<path fill-rule="evenodd" clip-rule="evenodd" d="M41.0594 6.30091L32.5893 1.75286C32.5181 1.71463 32.4421 1.69483 32.3613 1.69345C32.2805 1.69207 32.2039 1.70926 32.1315 1.74503L30.469 2.56581L25.8094 0.0601167C25.7359 0.0205633 25.6574 0.000687627 25.5738 0.000489698C25.541 0.000411918 25.5085 0.00353704 25.4763 0.00986507C25.4441 0.0161931 25.4128 0.0256024 25.3824 0.0380931C25.3521 0.0505838 25.3232 0.0659157 25.2959 0.084089C25.2685 0.102262 25.2432 0.122928 25.22 0.146085C25.1967 0.169243 25.1759 0.194447 25.1576 0.221699C25.1393 0.248951 25.1238 0.277726 25.1112 0.308025C25.0986 0.338324 25.089 0.369564 25.0825 0.401746C25.0761 0.433927 25.0728 0.466432 25.0727 0.499259L24.998 32.0009C24.9979 32.0462 25.0039 32.0907 25.0158 32.1343C25.0278 32.178 25.0454 32.2193 25.0686 32.2582C25.0918 32.297 25.1197 32.3321 25.1525 32.3634C25.1852 32.3947 25.2215 32.4211 25.2614 32.4425L55.7482 48.8218C55.8217 48.8613 55.9002 48.8811 55.9836 48.8813C56.0499 48.8815 56.1137 48.8689 56.175 48.8437C56.2364 48.8185 56.2905 48.7825 56.3375 48.7357C56.3845 48.6889 56.4208 48.635 56.4463 48.5738C56.4718 48.5126 56.4846 48.4488 56.4848 48.3825L56.5595 16.8872C56.5596 16.842 56.5537 16.7975 56.5417 16.7539C56.5297 16.7102 56.5122 16.669 56.489 16.6301C56.4658 16.5912 56.4379 16.5561 56.4052 16.5248C56.3725 16.4935 56.3362 16.4672 56.2963 16.4457L42.8854 9.23456L41.2527 6.48605C41.2054 6.40643 41.141 6.34472 41.0594 6.30091ZM32.3432 2.75564L30.6806 3.5765C30.6081 3.6123 30.5314 3.62949 30.4506 3.62809C30.3697 3.62668 30.2937 3.60683 30.2225 3.56853L26.0706 1.33589L25.9987 31.7035L55.4868 47.5463L55.5589 17.1845L42.2896 10.0495C42.2082 10.0057 42.1438 9.94404 42.0966 9.86451L40.464 7.11614L32.3432 2.75564Z" fill="black"/>
<path d="M33.1608 19.7404L34.8643 22.6082L48.3975 29.8851L48.3228 55.0636L17.8359 38.6843L17.9106 13.4995L22.7972 16.121L24.6907 15.1861L33.1608 19.7404Z" fill="white"/>
<path fill-rule="evenodd" clip-rule="evenodd" d="M33.3975 19.3001L24.9275 14.7457C24.8562 14.7074 24.7802 14.6876 24.6994 14.6862C24.6185 14.6848 24.5419 14.7019 24.4694 14.7377L22.8066 15.5587L18.1469 13.0589C18.0735 13.0196 17.9953 12.9998 17.912 12.9995C17.8457 12.9993 17.7819 13.0118 17.7206 13.037C17.6593 13.0622 17.6051 13.0982 17.5581 13.1449C17.5111 13.1916 17.4748 13.2456 17.4492 13.3068C17.4237 13.368 17.4108 13.4317 17.4106 13.498L17.3359 38.6828C17.3358 38.7281 17.3417 38.7726 17.3537 38.8163C17.3656 38.86 17.3832 38.9013 17.4064 38.9402C17.4296 38.9791 17.4576 39.0143 17.4903 39.0456C17.523 39.0769 17.5594 39.1033 17.5993 39.1247L48.0862 55.504C48.1596 55.5435 48.2379 55.5633 48.3213 55.5636C48.3876 55.5637 48.4514 55.5513 48.5127 55.5261C48.5741 55.5009 48.6282 55.4649 48.6752 55.4182C48.7223 55.3714 48.7585 55.3175 48.7841 55.2563C48.8097 55.1951 48.8225 55.1314 48.8227 55.0651L48.8974 29.8866C48.8975 29.8413 48.8916 29.7968 48.8797 29.7531C48.8677 29.7094 48.8501 29.6681 48.8269 29.6292C48.8038 29.5903 48.7758 29.5552 48.7431 29.5239C48.7104 29.4926 48.6741 29.4662 48.6342 29.4448L35.2233 22.2336L33.5906 19.4851C33.5434 19.4055 33.479 19.3439 33.3975 19.3001ZM24.6809 15.7484L23.0185 16.5692C22.946 16.605 22.8695 16.6222 22.7887 16.6208C22.7079 16.6194 22.632 16.5997 22.5608 16.5615L18.408 14.3337L18.3367 38.3858L47.8253 54.2288L47.8966 30.1834L34.6275 23.0485C34.546 23.0047 34.4817 22.9431 34.4345 22.8635L32.8018 20.115L24.6809 15.7484Z" fill="black"/>
<path d="M24.8317 24.74L26.5284 27.6078L40.0683 34.8846L39.9937 60.0632L9.5 43.6839L9.58144 18.499L14.468 21.1268L16.3548 20.1856L24.8317 24.74Z" fill="white"/>
<path fill-rule="evenodd" clip-rule="evenodd" d="M25.0682 24.2995L16.5914 19.7451C16.5199 19.7067 16.4435 19.6869 16.3623 19.6857C16.2811 19.6844 16.2042 19.7019 16.1316 19.7382L14.4766 20.5637L9.81819 18.0587C9.74477 18.0192 9.66638 17.9993 9.58302 17.999C9.55019 17.9989 9.51767 18.002 9.48545 18.0083C9.45323 18.0146 9.42194 18.024 9.39157 18.0365C9.3612 18.0489 9.33234 18.0642 9.30498 18.0824C9.27763 18.1005 9.25231 18.1212 9.22902 18.1443C9.20573 18.1675 9.18493 18.1926 9.1666 18.2199C9.14827 18.2471 9.13278 18.2759 9.12012 18.3062C9.10746 18.3365 9.09788 18.3677 9.09137 18.3999C9.08486 18.432 9.08155 18.4645 9.08145 18.4974L9 43.6822C8.99986 43.7275 9.00576 43.772 9.01772 43.8157C9.02968 43.8595 9.04726 43.9008 9.07045 43.9397C9.09365 43.9786 9.12162 44.0138 9.15437 44.0451C9.18712 44.0764 9.22345 44.1028 9.26338 44.1243L39.757 60.5036C39.8304 60.543 39.9088 60.5628 39.9921 60.5631C40.0584 60.5633 40.1222 60.5508 40.1836 60.5256C40.2449 60.5004 40.2991 60.4644 40.3461 60.4177C40.3931 60.3709 40.4294 60.317 40.4549 60.2558C40.4805 60.1946 40.4934 60.1309 40.4936 60.0646L40.5682 34.8861C40.5684 34.8408 40.5625 34.7963 40.5505 34.7526C40.5385 34.7089 40.521 34.6676 40.4978 34.6287C40.4746 34.5898 40.4466 34.5547 40.4139 34.5233C40.3812 34.492 40.3449 34.4657 40.305 34.4442L26.8877 27.2333L25.2619 24.4853C25.2146 24.4054 25.1501 24.3435 25.0682 24.2995ZM16.3462 20.7485L14.6912 21.5741C14.6185 21.6104 14.5415 21.6279 14.4603 21.6266C14.3791 21.6254 14.3027 21.6055 14.2312 21.5671L10.0787 19.334L10.0009 43.3854L39.4961 59.2284L39.5674 35.183L26.2917 28.0481C26.2099 28.0041 26.1453 27.9422 26.0981 27.8623L24.4723 25.1144L16.3462 20.7485Z" fill="black"/>
<path d="M0.581443 29.4609L0.5 55.208L39.0158 75.9079L39.0973 50.1609L0.581443 29.4609Z" fill="white"/>
<path fill-rule="evenodd" clip-rule="evenodd" d="M39.3339 49.7205L0.818079 29.0205C0.744677 28.9811 0.666311 28.9612 0.582981 28.9609C0.550153 28.9608 0.517631 28.9639 0.485414 28.9702C0.453197 28.9765 0.421905 28.9859 0.391536 28.9984C0.361168 29.0109 0.332308 29.0262 0.304955 29.0443C0.277602 29.0625 0.252283 29.0831 0.228997 29.1063C0.205711 29.1294 0.184906 29.1546 0.166582 29.1818C0.148257 29.2091 0.132766 29.2378 0.120108 29.2681C0.107449 29.2984 0.0978669 29.3296 0.0913607 29.3618C0.0848546 29.394 0.0815495 29.4265 0.0814457 29.4593L2.54576e-06 55.2063C-0.000140748 55.2516 0.00576518 55.2961 0.0177203 55.3398C0.0296755 55.3835 0.0472461 55.4249 0.0704321 55.4638C0.0936182 55.5027 0.121578 55.5378 0.154313 55.5691C0.187047 55.6005 0.223368 55.6269 0.263276 55.6483L38.7791 76.3483C38.8525 76.3877 38.9309 76.4076 39.0142 76.4078C39.0805 76.408 39.1443 76.3955 39.2056 76.3704C39.267 76.3452 39.3211 76.3092 39.3682 76.2625C39.4152 76.2158 39.4515 76.1618 39.4771 76.1006C39.5026 76.0395 39.5155 75.9757 39.5157 75.9094L39.5972 50.1624C39.5973 50.1171 39.5914 50.0726 39.5794 50.0289C39.5675 49.9852 39.5499 49.9439 39.5267 49.905C39.5035 49.8661 39.4756 49.8309 39.4428 49.7996C39.4101 49.7683 39.3738 49.7419 39.3339 49.7205ZM1.07872 30.2958L1.00086 54.9095L38.5184 75.073L38.5963 50.4592L1.07872 30.2958Z" fill="black"/>
<path d="M81.1896 27.3955L81.1149 53.1362L39.0156 75.9081L39.0971 50.161L81.1896 27.3955Z" fill="white"/>
<path fill-rule="evenodd" clip-rule="evenodd" d="M80.9517 26.9558L38.8592 49.7213C38.8197 49.7427 38.7837 49.7689 38.7512 49.7999C38.7188 49.831 38.691 49.8658 38.668 49.9044C38.6449 49.9429 38.6274 49.9839 38.6153 50.0271C38.6033 50.0704 38.5972 50.1145 38.5971 50.1595L38.5156 75.9065C38.5154 75.9914 38.5354 76.0712 38.5758 76.1459C38.6074 76.2042 38.6489 76.2543 38.7003 76.2961C38.7518 76.3379 38.8093 76.3683 38.8728 76.3872C38.9364 76.4061 39.0011 76.4122 39.0671 76.4054C39.133 76.3985 39.1951 76.3794 39.2534 76.3478L81.3527 53.576C81.3923 53.5546 81.4283 53.5284 81.4607 53.4973C81.4932 53.4662 81.5209 53.4314 81.544 53.3928C81.567 53.3542 81.5846 53.3133 81.5966 53.27C81.6086 53.2267 81.6147 53.1826 81.6148 53.1377L81.6895 27.397C81.6897 27.3121 81.6697 27.2323 81.6293 27.1577C81.5978 27.0994 81.5563 27.0493 81.5048 27.0075C81.4533 26.9657 81.3959 26.9353 81.3323 26.9164C81.2688 26.8975 81.204 26.8914 81.1381 26.8982C81.0721 26.905 81.01 26.9242 80.9517 26.9558ZM39.596 50.4595L39.5182 75.0678L80.6158 52.8378L80.6871 28.2356L39.596 50.4595Z" fill="black"/>
</svg>
