<svg width="75" height="73" viewBox="0 0 75 73" fill="none" xmlns="http://www.w3.org/2000/svg">
<path d="M71.653 49.0654C73.8063 50.3106 73.8201 52.3264 71.6805 53.5716L40.6467 71.603C38.5071 72.8482 35.0191 72.8482 32.859 71.603L1.62558 53.5716C-0.527739 52.3264 -0.541498 50.3106 1.59806 49.0654L32.6319 31.034C34.7715 29.7888 38.2594 29.7888 40.4196 31.034L71.653 49.0654Z" fill="black"/>
<path fill-rule="evenodd" clip-rule="evenodd" d="M72.4032 32.6125L41.1697 14.581C40.0123 13.9138 38.6283 13.5801 37.0181 13.5801C35.4072 13.5801 34.0281 13.9139 32.8808 14.5817L1.84652 32.6133C0.610057 33.333 -0.00477991 34.2291 0.00200873 35.3016C0.00878231 36.3718 0.633298 37.2661 1.87556 37.9845L33.1094 56.0162C34.2667 56.6833 35.6505 57.0169 37.2606 57.0169C38.8715 57.0169 40.2506 56.683 41.3979 56.0153L72.4322 37.9836C73.6687 37.264 74.2835 36.3679 74.2767 35.2953C74.27 34.2251 73.6454 33.3308 72.4032 32.6125ZM40.6698 15.4468L71.9033 33.4783C72.8147 34.0054 73.2726 34.6131 73.2769 35.3016C73.2813 35.9881 72.8321 36.5941 71.9293 37.1195L40.8956 55.1508C39.9033 55.7283 38.6917 56.0171 37.2606 56.0171C35.8288 56.0171 34.6115 55.728 33.6087 55.15L2.37543 37.1186C1.46403 36.5916 1.00615 35.9838 1.00179 35.2953C0.997449 34.6088 1.44666 34.0029 2.34943 33.4775L33.3831 15.4461C34.3754 14.8686 35.5871 14.5799 37.0181 14.5799C38.4498 14.5799 39.667 14.8689 40.6698 15.4468Z" fill="black"/>
<mask id="mask0_322_1114" style="mask-type:alpha" maskUnits="userSpaceOnUse" x="0" y="30" width="74" height="43">
<path d="M71.6529 49.0654C73.8063 50.3106 73.82 52.3263 71.6805 53.5716L40.6466 71.603C38.5071 72.8482 35.0191 72.8482 32.8589 71.603L1.62557 53.5716C-0.527738 52.3263 -0.541498 50.3106 1.59806 49.0654L32.6319 31.034C34.7715 29.7888 38.2594 29.7888 40.4196 31.034L71.6529 49.0654Z" fill="white"/>
</mask>
<g mask="url(#mask0_322_1114)">
<path fill-rule="evenodd" clip-rule="evenodd" d="M71.9028 32.1214L40.6694 14.09C39.5121 13.4228 38.1281 13.0891 36.5179 13.0891C34.907 13.0891 33.528 13.423 32.3807 14.0907L1.34651 32.1223C0.110054 32.8419 -0.50478 33.738 -0.497991 34.8106C-0.491218 35.8808 0.133294 36.775 1.37555 37.4934L32.6092 55.525C33.7665 56.1921 35.1503 56.5257 36.7604 56.5257C38.3713 56.5257 39.7504 56.1918 40.8977 55.5241L71.9318 37.4925C73.1683 36.7729 73.7831 35.8768 73.7763 34.8042C73.7696 33.734 73.1451 32.8398 71.9028 32.1214ZM40.1696 14.9559L71.4029 32.9873C72.3143 33.5143 72.7722 34.1221 72.7766 34.8106C72.7809 35.4971 72.3317 36.103 71.4289 36.6284L40.3954 54.6596C39.4031 55.2371 38.1915 55.5259 36.7604 55.5259C35.3286 55.5259 34.1113 55.2368 33.1085 54.6588L1.87542 36.6275C0.964023 36.1005 0.506146 35.4927 0.501788 34.8042C0.497443 34.1177 0.946653 33.5118 1.84942 32.9864L32.8829 14.9552C33.8752 14.3777 35.0869 14.0889 36.5179 14.0889C37.9496 14.0889 39.1668 14.3779 40.1696 14.9559Z" fill="white"/>
</g>
<path d="M72.1559 16.542C74.3093 17.7873 74.3231 19.8032 72.1834 21.0485L41.1474 39.0811C39.0077 40.3264 35.5196 40.3264 33.3592 39.0811L2.12373 21.0485C-0.0297275 19.8032 -0.0434877 17.7873 2.09621 16.542L27.5909 1.43397C29.7306 0.188677 33.219 0.188677 35.3794 1.43397L45.6535 7.26511C45.9545 7.43591 46.2946 7.52569 46.6406 7.52569L56.0023 7.52572C56.3533 7.52572 56.6982 7.61811 57.0022 7.7936L64.347 12.0339L72.1559 16.542Z" fill="white"/>
<path fill-rule="evenodd" clip-rule="evenodd" d="M46.6405 7.02569C46.3766 7.02569 46.1298 6.96055 45.9002 6.83026L35.6261 0.999114C34.4706 0.333038 33.0877 -3.99947e-08 31.4773 0C29.8663 0 28.487 0.333939 27.3394 1.00182L1.84129 16.1119C0.60701 16.8302 -0.00673316 17.7257 5.57047e-05 18.7984C0.00682943 19.8686 0.63128 20.7629 1.87341 21.4812L33.1092 39.514C34.2668 40.1813 35.6508 40.5149 37.261 40.5149C38.872 40.5149 40.2513 40.181 41.3989 39.5131L72.4345 21.4807C73.6713 20.7609 74.2862 19.8647 74.2794 18.792C74.2727 17.7218 73.6482 16.8275 72.4061 16.1092L64.5969 11.6009L57.2521 7.36058C56.8654 7.13734 56.4488 7.02572 56.0023 7.02572L46.6405 7.02569ZM35.1325 1.86869L45.4067 7.69983C45.7893 7.91698 46.2006 8.02556 46.6405 8.02556L56.0023 8.02559C56.2702 8.02559 56.5201 8.09256 56.7521 8.2265L64.097 12.4668L71.9056 16.9748C72.8172 17.502 73.2752 18.1098 73.2796 18.7984C73.2839 19.4849 72.8348 20.0908 71.9322 20.6161L40.8959 38.649C39.9038 39.2264 38.6922 39.5151 37.261 39.5151C35.8291 39.5151 34.6118 39.2261 33.6091 38.6481L2.37394 20.6156C1.46227 20.0884 1.00426 19.4806 0.999904 18.792C0.995558 18.1055 1.44593 17.4988 2.35102 16.9721L27.8423 1.86599C28.8345 1.28857 30.0461 0.999868 31.4773 0.999868C32.9093 0.999868 34.1277 1.28948 35.1325 1.86869Z" fill="black"/>
<mask id="mask1_322_1114" style="mask-type:luminance" maskUnits="userSpaceOnUse" x="27" y="18" width="19" height="12">
<path d="M45.6394 18.3H27.6094V29.7837H45.6394V18.3Z" fill="white"/>
</mask>
<g mask="url(#mask1_322_1114)">
<path d="M45.6389 25.0388L41.3892 27.5074C40.1859 28.2088 38.2192 28.202 37.0158 27.5074L30.3457 23.6635L30.8271 23.3816L37.4903 27.2324C38.4324 27.7756 39.9521 27.7756 40.8873 27.2324L45.1369 24.7638L45.632 25.0457L45.6389 25.0388Z" fill="black"/>
<path d="M27.8418 21.938L32.4906 22.4125L30.8264 23.3753L30.345 23.6572L28.6808 24.6269L27.8418 21.938ZM29.1278 23.8085L31.0808 22.6738L28.7014 22.4331L29.1347 23.8085" fill="black"/>
</g>
</svg>
