<svg width="117" height="82" viewBox="0 0 117 82" fill="none" xmlns="http://www.w3.org/2000/svg">
<path fill-rule="evenodd" clip-rule="evenodd" d="M22.3248 24.422C24.3964 23.5657 26.6929 22.99 29.2141 22.6949L29.7948 23.5754C27.3495 23.8616 25.1222 24.4199 23.113 25.2504L22.3248 24.422ZM13.4679 32.4719C14.3123 30.6805 15.4842 29.1038 16.9835 27.7418L17.9327 28.4702C16.4786 29.7912 15.342 31.3204 14.523 33.0578L13.4679 32.4719ZM12.6374 44.9869C12.0661 42.6703 11.8503 40.4543 11.9901 38.3392L13.0897 38.7483C12.9542 40.7997 13.1635 42.9488 13.7176 45.1957L12.6374 44.9869ZM19.9637 59.0056C18.1249 56.7042 16.586 54.3679 15.347 51.9967L16.3455 51.9942C17.5471 54.294 19.0397 56.5599 20.8231 58.792L19.9637 59.0056ZM33.8581 71.4852C31.1434 69.7013 28.6104 67.7531 26.2592 65.6409L26.9289 65.2273C29.2093 67.2759 31.6659 69.1653 34.2988 70.8955L33.8581 71.4852ZM51.0986 79.4697C48.1484 78.6292 45.2158 77.5341 42.3007 76.1842L42.4871 75.4529C45.3143 76.7621 48.1585 77.8243 51.0198 78.6394L51.0986 79.4697ZM67.6662 81.1461C66.4126 81.2891 65.1171 81.3606 63.7795 81.3606C62.474 81.3606 61.1376 81.2925 59.7704 81.1562L59.4304 80.2751C60.7564 80.4073 62.0525 80.4734 63.3186 80.4734C64.6159 80.4734 65.8724 80.404 67.0882 80.2653L67.6662 81.1461ZM79.9338 76.1366C78.4288 77.4917 76.6411 78.5926 74.5708 79.4393L73.7848 78.61C75.7927 77.7888 77.5265 76.721 78.9862 75.4068L79.9338 76.1366ZM84.975 65.5662C84.8265 67.6816 84.3256 69.6336 83.4722 71.422L82.418 70.8343C83.2457 69.0997 83.7315 67.2066 83.8755 65.1549L84.975 65.5662ZM81.5805 51.7525C81.609 51.8068 81.6374 51.861 81.6656 51.9153C82.8968 54.2858 83.7925 56.6223 84.3525 58.9247L83.2718 58.7135C82.7286 56.4805 81.8604 54.2152 80.6671 51.9177L80.582 51.7549L81.5805 51.7525ZM70.6278 38.1152C72.9812 40.2216 75.0858 42.4312 76.9416 44.744L76.0841 44.9601C74.2843 42.717 72.2431 40.574 69.9606 38.531L70.6278 38.1152ZM54.5669 27.5991C57.4847 28.944 60.301 30.5051 63.016 32.2824L62.5781 32.874C59.945 31.1502 57.2135 29.6362 54.3837 28.3318L54.5669 27.5991ZM45.7653 24.3308L45.8472 25.1619C42.978 24.3507 40.1764 23.812 37.4425 23.5459L37.0995 22.6646C39.9183 22.9389 42.8069 23.4943 45.7653 24.3308Z" fill="black"/>
<path d="M101.204 29.4453C101.455 29.9272 101.691 30.4088 101.915 30.8901C102.138 31.3714 102.348 31.8519 102.544 32.3314C102.739 32.811 102.921 33.2891 103.089 33.7658C103.257 34.2425 103.411 34.7172 103.55 35.1898C103.69 35.6624 103.815 36.1325 103.926 36.5999C104.037 37.0674 104.133 37.5317 104.215 37.9928C104.297 38.454 104.364 38.9114 104.417 39.3651C104.47 39.8188 104.508 40.2683 104.531 40.7135C104.555 41.1587 104.564 41.5992 104.558 42.0348C104.552 42.4704 104.531 42.9007 104.496 43.3257C104.461 43.7507 104.411 44.1699 104.346 44.5832C104.282 44.9965 104.203 45.4035 104.109 45.8042C104.016 46.2049 103.908 46.5988 103.785 46.9858C103.663 47.3729 103.526 47.7527 103.375 48.1252C103.224 48.4977 103.059 48.8625 102.88 49.2195C102.701 49.5766 102.508 49.9255 102.301 50.2663C102.094 50.607 101.873 50.9392 101.639 51.2628C101.405 51.5864 101.157 51.9011 100.896 52.2068C100.635 52.5125 100.361 52.8089 100.074 53.096C99.7869 53.383 99.4871 53.6604 99.1747 53.9282C98.8622 54.1959 98.5375 54.4536 98.2004 54.7014C97.8633 54.9491 97.5143 55.1866 97.1534 55.4137C96.7925 55.6409 96.4201 55.8575 96.0362 56.0635C95.6523 56.2696 95.2575 56.4648 94.8515 56.6492C94.4457 56.8336 94.0292 57.007 93.6023 57.1693C93.1753 57.3317 92.7383 57.4828 92.2914 57.6227C91.8444 57.7626 91.3879 57.8911 90.922 58.0082C90.4561 58.1252 89.9812 58.2308 89.4975 58.3248C89.0137 58.4188 88.5216 58.5012 88.0212 58.5719C87.5208 58.6426 87.0126 58.7016 86.4968 58.7488C85.9809 58.796 85.4579 58.8315 84.9278 58.8551C84.3977 58.8788 83.8612 58.8906 83.3182 58.8906C82.7751 58.8906 82.2263 58.8788 81.6716 58.8551C81.117 58.8315 80.5572 58.796 79.9923 58.7488C79.4273 58.7016 78.8579 58.6426 78.284 58.5719C77.7101 58.5012 77.1325 58.4188 76.5511 58.3248C75.9697 58.2308 75.3852 58.1252 74.7976 58.0082C74.21 57.8911 73.6201 57.7626 73.0278 57.6227C72.4355 57.4828 71.8415 57.3317 71.2459 57.1693C70.6503 57.007 70.0538 56.8336 69.4563 56.6492C68.8588 56.4648 68.2611 56.2696 67.6632 56.0635C67.0653 55.8575 66.4679 55.6409 65.871 55.4137C65.2741 55.1866 64.6785 54.9491 64.084 54.7014C63.4896 54.4536 62.897 54.1959 62.3065 53.9282C61.7159 53.6604 61.128 53.383 60.5427 53.096C59.9575 52.8089 59.3755 52.5125 58.797 52.2068C58.2184 51.9011 57.6439 51.5864 57.0735 51.2628C56.503 50.9392 55.9373 50.607 55.3764 50.2663C54.8154 49.9255 54.2598 49.5766 53.7097 49.2196C53.1596 48.8625 52.6155 48.4977 52.0775 48.1252C51.5396 47.7527 51.0083 47.3729 50.4838 46.9858C49.9593 46.5988 49.4421 46.2049 48.9323 45.8042C48.4225 45.4035 47.9206 44.9965 47.4268 44.5832C46.9329 44.1699 46.4476 43.7507 45.9709 43.3257C45.4942 42.9007 45.0266 42.4704 44.5681 42.0348C44.1097 41.5992 43.6609 41.1587 43.2219 40.7135C42.7828 40.2683 42.354 39.8188 41.9354 39.3651C41.5168 38.9114 41.1089 38.454 40.7117 37.9928C40.3146 37.5317 39.9286 37.0674 39.5539 36.5999C39.1791 36.1325 38.816 35.6624 38.4646 35.1898C38.1132 34.7172 37.7738 34.2425 37.4465 33.7658C37.1193 33.2891 36.8045 32.811 36.5021 32.3314C36.1998 31.8519 35.9103 31.3714 35.6337 30.8901C35.357 30.4088 35.0935 29.9272 34.8432 29.4453C34.5929 28.9634 34.3561 28.4818 34.1327 28.0005C33.9094 27.5192 33.6998 27.0387 33.5039 26.5592C33.308 26.0796 33.1261 25.6015 32.9582 25.1248C32.7903 24.6481 32.6366 24.1734 32.497 23.7008C32.3574 23.2282 32.2322 22.7581 32.1214 22.2907C32.0105 21.8232 31.9141 21.3589 31.8322 20.8978C31.7504 20.4366 31.683 19.9792 31.6303 19.5255C31.5776 19.0717 31.5395 18.6223 31.516 18.1771C31.4926 17.7319 31.4838 17.2914 31.4897 16.8558C31.4956 16.4202 31.5162 15.9899 31.5514 15.5649C31.5866 15.1399 31.6365 14.7207 31.701 14.3074C31.7655 13.8941 31.8445 13.487 31.938 13.0864C32.0316 12.6857 32.1396 12.2918 32.262 11.9048C32.3845 11.5177 32.5212 11.1379 32.6722 10.7654C32.8232 10.3929 32.9883 10.0281 33.1675 9.67104C33.3467 9.31398 33.5398 8.96508 33.7468 8.62433C33.9538 8.28358 34.1744 7.95139 34.4087 7.62777C34.6429 7.30415 34.8905 6.98949 35.1515 6.68377C35.4125 6.37806 35.6865 6.08168 35.9735 5.79461C36.2606 5.50755 36.5604 5.23015 36.8728 4.96243C37.1852 4.6947 37.51 4.43697 37.8471 4.18922C38.1842 3.94148 38.5332 3.70403 38.8941 3.47686C39.255 3.2497 39.6274 3.0331 40.0113 2.82706C40.3951 2.62103 40.79 2.4258 41.1959 2.24139C41.6018 2.05698 42.0182 1.8836 42.4452 1.72125C42.8722 1.55891 43.3091 1.40779 43.7561 1.2679C44.2031 1.12802 44.6595 0.999529 45.1255 0.882439C45.5914 0.765348 46.0662 0.659796 46.55 0.565783C47.0338 0.47177 47.5259 0.389409 48.0263 0.318701C48.5267 0.247992 49.0348 0.189021 49.5507 0.141787C50.0666 0.0945533 50.5896 0.0591136 51.1197 0.0354681C51.6497 0.0118227 52.1863 0 52.7293 0C53.2723 0 53.8212 0.0118227 54.3758 0.0354681C54.9305 0.0591136 55.4903 0.0945533 56.0552 0.141787C56.6202 0.189021 57.1896 0.247992 57.7634 0.318701C58.3373 0.389409 58.915 0.47177 59.4964 0.565783C60.0778 0.659796 60.6623 0.765348 61.2499 0.882439C61.8374 0.999529 62.4274 1.12802 63.0197 1.2679C63.612 1.40779 64.2059 1.55891 64.8015 1.72125C65.3971 1.8836 65.9937 2.05698 66.5912 2.24139C67.1886 2.4258 67.7863 2.62103 68.3842 2.82706C68.9821 3.0331 69.5795 3.2497 70.1764 3.47686C70.7733 3.70403 71.369 3.94148 71.9635 4.18922C72.5579 4.43697 73.1504 4.6947 73.741 4.96243C74.3316 5.23015 74.9195 5.50755 75.5047 5.79461C76.09 6.08168 76.6719 6.37806 77.2505 6.68377C77.829 6.98949 78.4035 7.30415 78.974 7.62777C79.5444 7.95139 80.1101 8.28358 80.6711 8.62433C81.2321 8.96508 81.7876 9.31398 82.3378 9.67104C82.8879 10.0281 83.432 10.3929 83.9699 10.7654C84.5079 11.1379 85.0392 11.5177 85.5637 11.9048C86.0882 12.2918 86.6054 12.6857 87.1152 13.0864C87.625 13.487 88.1268 13.8941 88.6207 14.3074C89.1146 14.7207 89.5998 15.1399 90.0766 15.5649C90.5533 15.9899 91.0209 16.4202 91.4793 16.8558C91.9378 17.2914 92.3865 17.7319 92.8256 18.1771C93.2646 18.6223 93.6935 19.0717 94.1121 19.5255C94.5307 19.9792 94.9386 20.4366 95.3358 20.8978C95.7329 21.3589 96.1189 21.8232 96.4936 22.2907C96.8684 22.7581 97.2314 23.2282 97.5829 23.7008C97.9343 24.1734 98.2737 24.6481 98.6009 25.1248C98.9282 25.6015 99.243 26.0796 99.5453 26.5592C99.8477 27.0387 100.137 27.5192 100.414 28.0005C100.69 28.4818 100.954 28.9634 101.204 29.4453ZM100.204 29.4453C99.9617 28.9779 99.7062 28.5108 99.4378 28.044C99.1695 27.5772 98.8888 27.1112 98.5956 26.6461C98.3023 26.181 97.997 25.7173 97.6796 25.255C97.3622 24.7926 97.0331 24.3323 96.6922 23.8739C96.3514 23.4155 95.9992 22.9596 95.6358 22.5063C95.2723 22.0529 94.898 21.6026 94.5128 21.1553C94.1276 20.7081 93.732 20.2644 93.326 19.8244C92.92 19.3843 92.5041 18.9484 92.0783 18.5166C91.6524 18.0848 91.2172 17.6577 90.7726 17.2351C90.328 16.8126 89.8745 16.3953 89.4121 15.9831C88.9497 15.5709 88.4791 15.1644 88.0001 14.7635C87.5211 14.3626 87.0344 13.9679 86.5399 13.5793C86.0455 13.1907 85.5439 12.8087 85.0352 12.4333C84.5265 12.0579 84.0112 11.6895 83.4895 11.3282C82.9677 10.967 82.44 10.6132 81.9065 10.2669C81.3729 9.92057 80.8341 9.58218 80.29 9.25169C79.746 8.92121 79.1973 8.59903 78.644 8.28516C78.0908 7.97129 77.5336 7.66611 76.9725 7.36961C76.4113 7.07311 75.847 6.78565 75.2793 6.50724C74.7117 6.22882 74.1415 5.95979 73.5687 5.70013C72.9959 5.44047 72.4213 5.1905 71.8447 4.95022C71.2682 4.70995 70.6905 4.47965 70.1116 4.25933C69.5327 4.03901 68.9533 3.82894 68.3734 3.62911C67.7935 3.42928 67.2138 3.23994 66.6343 3.06108C66.0549 2.88222 65.4763 2.71407 64.8986 2.55662C64.321 2.39916 63.7449 2.2526 63.1705 2.11693C62.596 1.98126 62.0239 1.85664 61.454 1.74308C60.8841 1.62951 60.3172 1.52714 59.7533 1.43596C59.1894 1.34478 58.6292 1.2649 58.0726 1.19633C57.516 1.12775 56.9638 1.07055 56.4159 1.02474C55.8679 0.978931 55.325 0.94456 54.7871 0.921627C54.2491 0.898694 53.7168 0.887227 53.1902 0.887227C52.6635 0.887227 52.1431 0.898694 51.629 0.921627C51.1149 0.94456 50.6077 0.978931 50.1073 1.02474C49.607 1.07055 49.1142 1.12775 48.6288 1.19633C48.1435 1.2649 47.6662 1.34478 47.197 1.43596C46.7279 1.52714 46.2673 1.62951 45.8154 1.74308C45.3635 1.85664 44.9208 1.98126 44.4873 2.11693C44.0538 2.2526 43.63 2.39916 43.2159 2.55662C42.8018 2.71407 42.3979 2.88222 42.0043 3.06108C41.6106 3.23994 41.2276 3.42928 40.8553 3.62911C40.483 3.82894 40.1218 4.03901 39.7718 4.25933C39.4218 4.47965 39.0833 4.70995 38.7564 4.95022C38.4294 5.1905 38.1145 5.44047 37.8114 5.70013C37.5084 5.95979 37.2177 6.22883 36.9393 6.50724C36.6609 6.78565 36.3951 7.07311 36.142 7.36961C35.8889 7.66611 35.6487 7.97129 35.4215 8.28516C35.1943 8.59903 34.9804 8.92121 34.7796 9.25169C34.5789 9.58218 34.3916 9.92057 34.2178 10.2669C34.044 10.6132 33.8838 10.967 33.7374 11.3282C33.5909 11.6895 33.4583 12.0579 33.3396 12.4333C33.2208 12.8087 33.1161 13.1907 33.0254 13.5793C32.9346 13.9679 32.858 14.3626 32.7954 14.7635C32.7329 15.1644 32.6845 15.5709 32.6504 15.9831C32.6162 16.3953 32.5963 16.8126 32.5905 17.2351C32.5848 17.6577 32.5933 18.0848 32.6161 18.5166C32.6388 18.9484 32.6757 19.3843 32.7269 19.8244C32.778 20.2644 32.8433 20.7081 32.9227 21.1553C33.0022 21.6026 33.0956 22.0529 33.2032 22.5063C33.3107 22.9596 33.4321 23.4155 33.5675 23.8739C33.7028 24.3323 33.8519 24.7926 34.0148 25.255C34.1776 25.7173 34.3541 26.181 34.544 26.6461C34.734 27.1112 34.9373 27.5772 35.1539 28.044C35.3706 28.5108 35.6003 28.9779 35.843 29.4453C36.0858 29.9127 36.3413 30.3798 36.6096 30.8466C36.8779 31.3134 37.1587 31.7794 37.4519 32.2445C37.7451 32.7096 38.0505 33.1733 38.3679 33.6356C38.6853 34.098 39.0144 34.5583 39.3552 35.0167C39.6961 35.4751 40.0482 35.931 40.4117 36.3843C40.7752 36.8377 41.1495 37.288 41.5347 37.7353C41.9199 38.1825 42.3155 38.6262 42.7215 39.0662C43.1274 39.5063 43.5434 39.9422 43.9692 40.374C44.395 40.8058 44.8302 41.2329 45.2749 41.6554C45.7195 42.0779 46.173 42.4953 46.6354 42.9075C47.0977 43.3197 47.5684 43.7262 48.0474 44.1271C48.5264 44.528 49.0131 44.9227 49.5075 45.3113C50.002 45.6999 50.5036 46.0819 51.0123 46.4573C51.521 46.8327 52.0363 47.2011 52.558 47.5623C53.0798 47.9236 53.6075 48.2774 54.141 48.6237C54.6746 48.97 55.2134 49.3084 55.7574 49.6389C56.3015 49.9694 56.8502 50.2916 57.4034 50.6054C57.9567 50.9193 58.5139 51.2245 59.075 51.521C59.6361 51.8175 60.2005 52.1049 60.7681 52.3834C61.3358 52.6618 61.906 52.9308 62.4787 53.1905C63.0515 53.4501 63.6262 53.7001 64.2027 53.9404C64.7793 54.1806 65.357 54.4109 65.9359 54.6313C66.5148 54.8516 67.0942 55.0617 67.6741 55.2615C68.254 55.4613 68.8337 55.6507 69.4131 55.8295C69.9926 56.0084 70.5712 56.1765 71.1488 56.334C71.7265 56.4914 72.3026 56.638 72.877 56.7737C73.4515 56.9093 74.0236 57.034 74.5935 57.1475C75.1634 57.2611 75.7302 57.3635 76.2941 57.4546C76.858 57.5458 77.4183 57.6257 77.9749 57.6943C78.5315 57.7628 79.0837 57.82 79.6316 57.8659C80.1795 57.9117 80.7225 57.946 81.2604 57.969C81.7984 57.9919 82.3307 58.0034 82.8573 58.0034C83.384 58.0034 83.9044 57.9919 84.4185 57.969C84.9326 57.946 85.4398 57.9117 85.9402 57.8659C86.4405 57.8201 86.9333 57.7629 87.4187 57.6943C87.904 57.6257 88.3813 57.5458 88.8504 57.4546C89.3196 57.3635 89.7802 57.2611 90.232 57.1475C90.6839 57.034 91.1266 56.9093 91.5602 56.7737C91.9937 56.638 92.4175 56.4914 92.8316 56.334C93.2456 56.1765 93.6495 56.0084 94.0432 55.8295C94.4369 55.6507 94.8199 55.4613 95.1922 55.2615C95.5645 55.0617 95.9256 54.8516 96.2757 54.6313C96.6257 54.4109 96.9642 54.1806 97.2911 53.9404C97.618 53.7001 97.933 53.4501 98.236 53.1905C98.5391 52.9308 98.8298 52.6618 99.1082 52.3834C99.3866 52.1049 99.6524 51.8175 99.9055 51.521C100.159 51.2245 100.399 50.9193 100.626 50.6054C100.853 50.2916 101.067 49.9694 101.268 49.6389C101.469 49.3084 101.656 48.97 101.83 48.6237C102.004 48.2774 102.164 47.9236 102.31 47.5624C102.457 47.2011 102.589 46.8327 102.708 46.4573C102.827 46.0819 102.931 45.6999 103.022 45.3113C103.113 44.9227 103.19 44.528 103.252 44.1271C103.315 43.7262 103.363 43.3197 103.397 42.9075C103.431 42.4953 103.451 42.0779 103.457 41.6554C103.463 41.2329 103.454 40.8058 103.431 40.374C103.409 39.9422 103.372 39.5063 103.321 39.0662C103.269 38.6262 103.204 38.1825 103.125 37.7353C103.045 37.288 102.952 36.8377 102.844 36.3843C102.737 35.931 102.615 35.4751 102.48 35.0167C102.345 34.5583 102.196 34.098 102.033 33.6356C101.87 33.1733 101.693 32.7096 101.503 32.2445C101.313 31.7794 101.11 31.3134 100.894 30.8466C100.677 30.3798 100.447 29.9127 100.204 29.4453Z" fill="black"/>
<path fill-rule="evenodd" clip-rule="evenodd" d="M32.1816 22.4934C32.5102 22.4844 32.8412 22.48 33.1746 22.48C33.7175 22.48 34.2663 22.4918 34.8209 22.5154C35.3755 22.5391 35.9352 22.5745 36.5001 22.6218C37.065 22.669 37.6343 22.7279 38.2082 22.7986C38.782 22.8693 39.3596 22.9517 39.9409 23.0457C40.5223 23.1397 41.1067 23.2452 41.6942 23.3623C42.2817 23.4794 42.8716 23.6079 43.4638 23.7477C44.056 23.8876 44.6499 24.0387 45.2455 24.201C45.841 24.3634 46.4375 24.5367 47.0349 24.7211C47.6323 24.9055 48.2299 25.1007 48.8278 25.3067C49.4256 25.5127 50.0229 25.7293 50.6198 25.9565C51.2166 26.1836 51.8122 26.421 52.4066 26.6687C53.001 26.9165 53.5934 27.1742 54.1839 27.4419C54.7744 27.7096 55.3623 27.9869 55.9475 28.274C56.5327 28.561 57.1145 28.8573 57.693 29.163C58.2715 29.4687 58.846 29.7833 59.4163 30.1069C59.9867 30.4305 60.5524 30.7626 61.1133 31.1034C61.6742 31.4441 62.2297 31.7929 62.7798 32.15C63.3298 32.507 63.8738 32.8717 64.4117 33.2442C64.9497 33.6167 65.4809 33.9964 66.0053 34.3834C66.5298 34.7704 67.0469 35.1643 67.5567 35.5649C68.0664 35.9655 68.5682 36.3725 69.062 36.7858C69.5558 37.1991 70.041 37.6182 70.5177 38.0431C70.9944 38.4681 71.4619 38.8983 71.9203 39.3339C72.3787 39.7695 72.8274 40.2099 73.2664 40.655C73.7054 41.1002 74.1342 41.5496 74.5528 42.0033C74.9714 42.457 75.3792 42.9144 75.7763 43.3755C76.1734 43.8365 76.5593 44.3008 76.934 44.7682C77.3088 45.2356 77.6718 45.7056 78.0232 46.1782C78.3746 46.6508 78.7139 47.1254 79.0411 47.602C79.3684 48.0786 79.6832 48.5567 79.9854 49.0362C80.2877 49.5157 80.5772 49.9961 80.8538 50.4774C81.1304 50.9586 81.3939 51.4402 81.6441 51.922C82.8649 54.2722 83.7557 56.5892 84.3167 58.8729C83.9881 58.8818 83.6571 58.8863 83.3238 58.8863C82.7808 58.8863 82.232 58.8745 81.6774 58.8508C81.1228 58.8272 80.5631 58.7917 79.9982 58.7445C79.4333 58.6973 78.864 58.6383 78.2902 58.5676C77.7164 58.4969 77.1388 58.4146 76.5574 58.3206C75.9761 58.2266 75.3917 58.121 74.8041 58.0039C74.2166 57.8869 73.6268 57.7584 73.0345 57.6185C72.4423 57.4787 71.8484 57.3276 71.2529 57.1652C70.6573 57.0029 70.0609 56.8295 69.4635 56.6451C68.866 56.4608 68.2684 56.2656 67.6706 56.0595C67.0727 55.8535 66.4754 55.6369 65.8786 55.4098C65.2817 55.1827 64.6861 54.9452 64.0918 54.6975C63.4974 54.4498 62.9049 54.1921 62.3144 53.9244C61.7239 53.6567 61.1361 53.3793 60.5509 53.0923C59.9657 52.8053 59.3838 52.5089 58.8053 52.2033C58.2268 51.8976 57.6524 51.5829 57.082 51.2594C56.5116 50.9358 55.946 50.6036 55.3851 50.2629C54.8242 49.9222 54.2687 49.5733 53.7186 49.2163C53.1685 48.8593 52.6245 48.4945 52.0866 48.1221C51.5487 47.7496 51.0175 47.3699 50.493 46.9828C49.9686 46.5958 49.4515 46.202 48.9417 45.8014C48.4319 45.4007 47.9302 44.9938 47.4364 44.5805C46.9425 44.1672 46.4573 43.7481 45.9806 43.3231C45.504 42.8982 45.0364 42.4679 44.578 42.0323C44.1196 41.5968 43.6709 41.1564 43.2319 40.7112C42.7929 40.2661 42.3641 39.8166 41.9456 39.363C41.527 38.9093 41.1192 38.4519 40.722 37.9908C40.3249 37.5297 39.939 37.0655 39.5643 36.5981C39.1896 36.1307 38.8266 35.6607 38.4752 35.1881C38.1238 34.7155 37.7844 34.2409 37.4572 33.7643C37.13 33.2877 36.8152 32.8096 36.5129 32.3301C36.2106 31.8505 35.9212 31.3702 35.6446 30.8889C35.3679 30.4076 35.1045 29.9261 34.8542 29.4442C33.6335 27.0941 32.7426 24.7771 32.1816 22.4934Z" fill="black"/>
<mask id="mask0_226_54232" style="mask-type:luminance" maskUnits="userSpaceOnUse" x="55" y="13" width="35" height="23">
<path d="M79.56 13.2812H55.4297L65.2494 35.3232H89.3797L79.56 13.2812Z" fill="white"/>
</mask>
<g mask="url(#mask0_226_54232)">
<path fill-rule="evenodd" clip-rule="evenodd" d="M70.5028 15.8873C70.9096 16.8005 71.4911 17.6732 72.2472 18.5054C72.9782 19.31 73.8222 20.023 74.7791 20.6443C75.218 20.9292 75.6648 21.1846 76.1196 21.4104C75.8649 21.5027 75.617 21.6051 75.376 21.7175C74.5874 22.0856 73.9064 22.5456 73.3331 23.0977C73.2986 23.0755 73.2641 23.0533 73.2296 23.0309C72.4911 22.5515 71.7972 22.0353 71.1479 21.4824C70.9912 22.0353 70.7573 22.5515 70.446 23.0309C70.1347 23.5103 69.7584 23.9341 69.3172 24.3023C70.0864 24.6704 70.8403 25.0942 71.5788 25.5736C73.0137 26.5052 74.2803 27.5754 75.3785 28.7843C76.5164 30.0367 77.3904 31.3477 78.0005 32.7172C78.4158 33.6492 77.9252 34.4048 76.9049 34.4048C75.8845 34.4048 74.7208 33.6492 74.3055 32.7172C73.8987 31.804 73.3173 30.9313 72.5612 30.0991C71.8301 29.2945 70.9861 28.5815 70.0292 27.9602C69.0723 27.339 68.0776 26.8582 67.0451 26.5178C65.9779 26.1661 64.9448 25.9901 63.9456 25.9899H63.9438C63.4538 25.9899 62.9047 25.8121 62.4172 25.4956C62.4022 25.4858 62.3873 25.476 62.3726 25.4661C61.9219 25.1633 61.5455 24.7535 61.3444 24.3023C61.143 23.8501 61.1547 23.4395 61.3367 23.1365C61.3423 23.1272 61.348 23.118 61.3539 23.1089C61.3598 23.0998 61.3659 23.0908 61.3721 23.082C61.5748 22.7925 61.9451 22.6146 62.4401 22.6146H62.442C63.4409 22.6144 64.3173 22.4384 65.071 22.0867C65.8003 21.7463 66.3666 21.2655 66.77 20.6443C67.1733 20.023 67.382 19.31 67.3962 18.5054C67.4108 17.6732 67.2146 16.8005 66.8078 15.8873C66.3926 14.9553 66.8831 14.1997 67.9035 14.1997C68.9238 14.1997 70.0876 14.9553 70.5028 15.8873ZM77.6062 28.8729C77.7093 28.5494 77.8534 28.2452 78.0384 27.9602C78.4418 27.339 79.0081 26.8582 79.7373 26.5178C80.4915 26.1659 81.3685 25.9899 82.3682 25.9899C83.3886 25.9899 83.8791 25.2343 83.4639 24.3023C83.2645 23.8547 82.8786 23.4254 82.3912 23.1089C81.9037 22.7924 81.3546 22.6146 80.8646 22.6146H80.8627C79.3642 22.6149 78.0477 22.8797 76.913 23.4092C75.8174 23.9205 74.9672 24.642 74.3624 25.5736C74.3478 25.596 74.3335 25.6184 74.3193 25.641C75.2571 26.3893 76.1212 27.1986 76.9118 28.0688C77.1533 28.3346 77.3848 28.6027 77.6062 28.8729Z" fill="black"/>
</g>
</svg>
