<svg width="121" height="78" viewBox="0 0 121 78" fill="none" xmlns="http://www.w3.org/2000/svg">
<path d="M98.213 52.8824C107.103 58.4466 107.147 67.5031 98.3205 73.0673C89.4938 78.6315 75.0736 78.6315 66.1899 73.0673L20.5883 44.5189C11.6983 38.9547 11.654 29.8983 20.4807 24.3341C29.3075 18.7698 43.7276 18.7698 52.6113 24.3341L98.2066 52.8824H98.213Z" fill="black"/>
<path fill-rule="evenodd" clip-rule="evenodd" d="M117.681 52.6307L38.2695 2.91637L38.0034 2.74976L4.14062 24.0833L83.8182 73.9643L117.681 52.6307ZM38.005 3.93058L6.02087 24.0807L83.8165 72.7835L115.801 52.6334L38.005 3.93058Z" fill="black"/>
<path d="M99.6623 41.7572C108.811 47.4859 108.862 56.7684 99.7699 62.4971C90.6777 68.2257 75.8911 68.2257 66.742 62.4971L21.1483 33.9566C11.9992 28.2279 11.9486 18.9454 21.0407 13.2167C30.1329 7.488 44.9195 7.488 54.0686 13.2167L99.6623 41.764V41.7572ZM67.1912 62.2226C76.0809 67.7867 90.4942 67.7867 99.3207 62.2226C108.147 56.6586 108.103 47.6025 99.2131 42.0385L53.6257 13.498C44.736 7.93394 30.3227 7.93394 21.4963 13.498C12.6699 19.062 12.7142 28.1181 21.6039 33.6821L67.1975 62.2295" fill="black"/>
<path d="M99.2197 42.039C108.109 47.603 108.154 56.6591 99.3273 62.2231C90.5009 67.7872 76.0812 67.7872 67.1979 62.2231L21.5978 33.6758C12.7081 28.1118 12.6639 19.0556 21.4903 13.4916C30.3167 7.9276 44.7364 7.9276 53.6197 13.4916L99.2134 42.039H99.2197Z" fill="white"/>
<path d="M39.2322 28.7556C38.1485 29.4394 37.4468 30.0559 37.1092 30.5952L34.0891 28.7074C34.1691 28.5341 34.329 28.3318 34.5688 28.1006C33.0765 28.0043 31.7708 27.5902 30.616 26.8678C27.6137 24.9896 27.7736 22.3217 31.2289 20.1546C34.6843 17.9874 38.8946 17.8044 41.8792 19.673C42.7852 20.2412 43.3981 21.0792 43.6202 21.946L44.2953 21.5222L47.5197 23.5449L39.2322 28.7652L39.2322 28.7556ZM36.8872 26.4825L41.3818 23.6508C41.7371 22.6877 41.0087 22.0327 40.3425 21.6186C38.9035 20.7228 36.1943 20.8866 34.3112 22.0712C32.4281 23.2559 32.1971 24.9511 33.6273 25.8468C34.2668 26.2514 35.3594 26.704 36.8872 26.4825Z" fill="black"/>
<path d="M55.9498 24.7785L38.1017 35.9839L37.5098 35.7075L55.3578 24.5022L55.9498 24.7785Z" fill="black"/>
<path d="M11.2256 23.9527L5.88154 27.3227L0.505859 23.9527L5.84996 20.5896L11.2256 23.9527Z" fill="white"/>
<path fill-rule="evenodd" clip-rule="evenodd" d="M12.163 23.9507L6.11366 20.1661L5.84815 20L-0.433594 23.9532L5.8813 27.912L12.163 23.9507ZM5.84971 21.1785L1.44326 23.9516L5.87973 26.7328L10.2862 23.9541L5.84971 21.1785Z" fill="black"/>
<path d="M43.3762 3.95277L38.032 7.32279L32.6562 3.95277L38.0004 0.5896L43.3762 3.95277Z" fill="white"/>
<path fill-rule="evenodd" clip-rule="evenodd" d="M44.3136 3.95076L38.2641 0.166112L37.9986 0L31.7168 3.95325L38.0318 7.91207L44.3136 3.95076ZM38.0002 1.17854L33.5937 3.95162L38.0302 6.73285L42.4367 3.95411L38.0002 1.17854Z" fill="black"/>
<path d="M120.845 52.3925L115.501 55.7625L110.125 52.3993L115.469 49.0293L120.845 52.3925Z" fill="white"/>
<path fill-rule="evenodd" clip-rule="evenodd" d="M121.782 52.3906L115.733 48.606L115.467 48.4397L109.186 52.4008L115.501 56.3518L121.782 52.3906ZM115.469 49.6186L111.062 52.3975L115.499 55.1729L119.905 52.394L115.469 49.6186Z" fill="black"/>
<path d="M89.3408 72.6962L83.9918 76.0624L78.6113 72.6962L83.9602 69.3301L89.3408 72.6962Z" fill="white"/>
<path fill-rule="evenodd" clip-rule="evenodd" d="M90.2793 72.6944L84.2237 68.906L83.958 68.7397L77.6699 72.6969L83.9912 76.6516L90.2793 72.6944ZM83.9596 69.9193L79.5498 72.6944L83.9896 75.4721L88.3994 72.6969L83.9596 69.9193Z" fill="black"/>
</svg>
