<svg width="80" height="80" viewBox="0 0 80 80" fill="none" xmlns="http://www.w3.org/2000/svg">
<rect width="80" height="80" rx="12" fill="#001C39" fill-opacity="0.03"/>
<g filter="url(#filter0_d_116_1494)">
<path d="M61.5215 40C61.5215 40.3522 61.5129 40.7043 61.4956 41.0561C61.4783 41.4079 61.4524 41.759 61.4178 42.1095C61.3834 42.46 61.3403 42.8095 61.2885 43.1579C61.2369 43.5063 61.1767 43.8532 61.1079 44.1987C61.0393 44.5441 60.9621 44.8877 60.8765 45.2294C60.7909 45.571 60.697 45.9104 60.5948 46.2475C60.4926 46.5845 60.3821 46.9188 60.2634 47.2505C60.1448 47.5821 60.018 47.9106 59.8832 48.236C59.7484 48.5614 59.6058 48.8834 59.4552 49.2018C59.3046 49.5202 59.1463 49.8347 58.9802 50.1453C58.8142 50.4559 58.6407 50.7623 58.4595 51.0644C58.2785 51.3665 58.0901 51.664 57.8944 51.9569C57.6988 52.2497 57.496 52.5376 57.2862 52.8205C57.0764 53.1034 56.8597 53.381 56.6363 53.6533C56.4129 53.9255 56.1829 54.1921 55.9463 54.4531C55.7098 54.7141 55.467 54.9691 55.2179 55.2182C54.9689 55.4672 54.7138 55.71 54.4528 55.9466C54.1919 56.1831 53.9253 56.4131 53.653 56.6366C53.3808 56.86 53.1032 57.0766 52.8202 57.2865C52.5374 57.4963 52.2495 57.699 51.9566 57.8947C51.6638 58.0903 51.3663 58.2787 51.0641 58.4598C50.7621 58.6409 50.4557 58.8145 50.145 58.9805C49.8344 59.1465 49.5199 59.3049 49.2015 59.4555C48.8831 59.606 48.5612 59.7487 48.2357 59.8835C47.9103 60.0183 47.5818 60.145 47.2502 60.2637C46.9186 60.3823 46.5842 60.4928 46.2472 60.5951C45.9102 60.6973 45.5708 60.7912 45.2291 60.8768C44.8875 60.9624 44.5439 61.0395 44.1984 61.1082C43.853 61.1769 43.506 61.2371 43.1576 61.2888C42.8092 61.3405 42.4598 61.3836 42.1092 61.4181C41.7587 61.4526 41.4076 61.4785 41.0558 61.4958C40.704 61.5131 40.352 61.5218 39.9997 61.5218C39.6475 61.5218 39.2955 61.5131 38.9437 61.4959C38.5919 61.4785 38.2408 61.4526 37.8902 61.4181C37.5398 61.3836 37.1903 61.3405 36.8418 61.2888C36.4934 61.2371 36.1465 61.1769 35.8011 61.1082C35.4557 61.0395 35.1121 60.9624 34.7704 60.8768C34.4288 60.7912 34.0894 60.6973 33.7523 60.5951C33.4153 60.4928 33.0809 60.3823 32.7493 60.2637C32.4177 60.145 32.0891 60.0183 31.7637 59.8835C31.4383 59.7487 31.1164 59.606 30.798 59.4555C30.4796 59.3049 30.1651 59.1465 29.8545 58.9805C29.5439 58.8145 29.2375 58.6409 28.9354 58.4598C28.6333 58.2787 28.3358 58.0903 28.0429 57.8947C27.7501 57.699 27.4622 57.4963 27.1793 57.2865C26.8964 57.0766 26.6188 56.86 26.3465 56.6366C26.0742 56.4131 25.8076 56.1831 25.5466 55.9466C25.2857 55.71 25.0307 55.4672 24.7816 55.2182C24.5325 54.9691 24.2897 54.7141 24.0532 54.4531C23.8167 54.1921 23.5867 53.9255 23.3632 53.6533C23.1398 53.381 22.9232 53.1034 22.7133 52.8205C22.5035 52.5376 22.3008 52.2497 22.1051 51.9569C21.9094 51.664 21.721 51.3665 21.54 51.0644C21.3589 50.7623 21.1853 50.4559 21.0193 50.1453C20.8533 49.8347 20.6949 49.5202 20.5443 49.2018C20.3938 48.8834 20.2511 48.5614 20.1163 48.236C19.9815 47.9106 19.8548 47.5821 19.7361 47.2505C19.6174 46.9188 19.507 46.5845 19.4047 46.2475C19.3025 45.9104 19.2086 45.571 19.123 45.2294C19.0374 44.8877 18.9603 44.5441 18.8916 44.1987C18.8228 43.8532 18.7626 43.5063 18.711 43.1579C18.6593 42.8095 18.6162 42.46 18.5817 42.1095C18.5471 41.7589 18.5212 41.4078 18.504 41.0561C18.4867 40.7043 18.478 40.3522 18.478 40C18.478 39.6478 18.4867 39.2958 18.504 38.944C18.5212 38.5922 18.5471 38.241 18.5817 37.8905C18.6162 37.54 18.6593 37.1905 18.711 36.8421C18.7626 36.4937 18.8228 36.1468 18.8916 35.8014C18.9603 35.4559 19.0374 35.1123 19.123 34.7707C19.2086 34.429 19.3025 34.0896 19.4047 33.7526C19.507 33.4155 19.6174 33.0812 19.7361 32.7496C19.8548 32.4179 19.9815 32.0894 20.1163 31.764C20.2511 31.4386 20.3938 31.1167 20.5443 30.7983C20.6949 30.4799 20.8533 30.1654 21.0193 29.8548C21.1853 29.5441 21.3589 29.2377 21.54 28.9357C21.721 28.6335 21.9094 28.336 22.1051 28.0432C22.3008 27.7503 22.5035 27.4624 22.7133 27.1795C22.9232 26.8966 23.1398 26.619 23.3632 26.3468C23.5867 26.0745 23.8167 25.8079 24.0532 25.5469C24.2897 25.2859 24.5325 25.0309 24.7816 24.7818C25.0307 24.5328 25.2857 24.29 25.5466 24.0535C25.8076 23.8169 26.0742 23.5869 26.3465 23.3635C26.6188 23.14 26.8964 22.9234 27.1793 22.7136C27.4622 22.5038 27.7501 22.301 28.0429 22.1053C28.3358 21.9097 28.6333 21.7213 28.9354 21.5402C29.2375 21.3591 29.5439 21.1856 29.8545 21.0195C30.1651 20.8535 30.4796 20.6952 30.798 20.5446C31.1164 20.394 31.4383 20.2513 31.7637 20.1165C32.0891 19.9817 32.4177 19.855 32.7493 19.7363C33.0809 19.6177 33.4153 19.5072 33.7523 19.405C34.0894 19.3027 34.4288 19.2088 34.7704 19.1233C35.1121 19.0377 35.4557 18.9605 35.8011 18.8918C36.1465 18.8231 36.4934 18.7629 36.8418 18.7112C37.1903 18.6595 37.5398 18.6164 37.8902 18.5819C38.2408 18.5474 38.5919 18.5215 38.9437 18.5042C39.2955 18.4869 39.6475 18.4783 39.9997 18.4783C40.352 18.4783 40.704 18.4869 41.0558 18.5042C41.4076 18.5215 41.7588 18.5474 42.1092 18.5819C42.4598 18.6164 42.8092 18.6595 43.1576 18.7112C43.506 18.7629 43.853 18.8231 44.1984 18.8918C44.5439 18.9605 44.8875 19.0377 45.2291 19.1233C45.5708 19.2088 45.9102 19.3027 46.2472 19.405C46.5842 19.5072 46.9186 19.6177 47.2502 19.7363C47.5818 19.855 47.9103 19.9817 48.2357 20.1165C48.5612 20.2513 48.8831 20.394 49.2015 20.5446C49.5199 20.6952 49.8344 20.8535 50.145 21.0195C50.4557 21.1856 50.7621 21.3591 51.0641 21.5402C51.3663 21.7213 51.6638 21.9097 51.9566 22.1053C52.2495 22.301 52.5374 22.5038 52.8202 22.7136C53.1032 22.9234 53.3808 23.14 53.653 23.3635C53.9253 23.5869 54.1919 23.8169 54.4528 24.0535C54.7138 24.29 54.9689 24.5328 55.2179 24.7818C55.467 25.0309 55.7098 25.2859 55.9463 25.5469C56.1829 25.8079 56.4129 26.0745 56.6363 26.3468C56.8597 26.619 57.0764 26.8966 57.2862 27.1795C57.496 27.4624 57.6988 27.7503 57.8944 28.0432C58.0901 28.336 58.2785 28.6335 58.4595 28.9357C58.6407 29.2377 58.8142 29.5441 58.9802 29.8548C59.1463 30.1654 59.3046 30.4799 59.4552 30.7983C59.6058 31.1167 59.7484 31.4386 59.8832 31.764C60.018 32.0894 60.1448 32.4179 60.2634 32.7496C60.3821 33.0812 60.4926 33.4155 60.5948 33.7526C60.697 34.0896 60.7909 34.429 60.8765 34.7707C60.9621 35.1123 61.0393 35.4559 61.1079 35.8014C61.1767 36.1468 61.2369 36.4937 61.2885 36.8421C61.3403 37.1905 61.3834 37.54 61.4178 37.8905C61.4524 38.241 61.4783 38.5922 61.4955 38.944C61.5129 39.2958 61.5215 39.6478 61.5215 40ZM60.8693 40C60.8693 39.6584 60.861 39.3171 60.8442 38.976C60.8274 38.6348 60.8023 38.2943 60.7688 37.9545C60.7354 37.6145 60.6936 37.2756 60.6434 36.9378C60.5933 36.6 60.5349 36.2636 60.4683 35.9286C60.4017 35.5936 60.3269 35.2604 60.2439 34.9291C60.1609 34.5978 60.0699 34.2687 59.9707 33.9419C59.8715 33.6151 59.7644 33.2909 59.6493 32.9693C59.5343 32.6477 59.4115 32.3291 59.2807 32.0136C59.15 31.698 59.0116 31.3859 58.8656 31.0771C58.7196 30.7683 58.5661 30.4634 58.4051 30.1622C58.2441 29.861 58.0758 29.5639 57.9002 29.2709C57.7246 28.9779 57.5419 28.6895 57.3521 28.4055C57.1624 28.1215 56.9658 27.8424 56.7623 27.568C56.5589 27.2937 56.3488 27.0245 56.1321 26.7605C55.9155 26.4965 55.6925 26.2379 55.4631 25.9849C55.2337 25.7318 54.9983 25.4845 54.7567 25.243C54.5153 25.0015 54.268 24.766 54.0149 24.5367C53.7619 24.3073 53.5033 24.0843 53.2392 23.8676C52.9752 23.6509 52.7061 23.4409 52.4317 23.2374C52.1574 23.034 51.8782 22.8374 51.5942 22.6476C51.3103 22.4578 51.0218 22.2752 50.7288 22.0996C50.4359 21.924 50.1388 21.7557 49.8376 21.5947C49.5364 21.4337 49.2314 21.2802 48.9226 21.1342C48.6139 20.9881 48.3018 20.8497 47.9862 20.719C47.6707 20.5883 47.3521 20.4655 47.0305 20.3504C46.7089 20.2353 46.3847 20.1282 46.0579 20.0291C45.7311 19.9299 45.402 19.8389 45.0706 19.7559C44.7394 19.6729 44.4062 19.5981 44.0712 19.5315C43.7362 19.4648 43.3998 19.4064 43.0619 19.3563C42.7241 19.3062 42.3853 19.2644 42.0453 19.2309C41.7055 19.1975 41.365 19.1723 41.0238 19.1556C40.6827 19.1388 40.3413 19.1304 39.9997 19.1304C39.6582 19.1304 39.3169 19.1388 38.9757 19.1556C38.6346 19.1723 38.2941 19.1975 37.9542 19.2309C37.6143 19.2644 37.2754 19.3062 36.9375 19.3563C36.5997 19.4064 36.2633 19.4648 35.9283 19.5315C35.5933 19.5981 35.2602 19.6729 34.9288 19.7559C34.5976 19.8389 34.2685 19.9299 33.9416 20.0291C33.6148 20.1282 33.2906 20.2353 32.969 20.3504C32.6474 20.4655 32.3289 20.5883 32.0133 20.719C31.6978 20.8497 31.3856 20.9881 31.0768 21.1342C30.7681 21.2802 30.4631 21.4337 30.1619 21.5947C29.8607 21.7557 29.5636 21.924 29.2706 22.0996C28.9777 22.2752 28.6892 22.4578 28.4053 22.6476C28.1213 22.8374 27.8421 23.034 27.5678 23.2374C27.2935 23.4409 27.0243 23.6509 26.7603 23.8676C26.4962 24.0843 26.2377 24.3073 25.9846 24.5367C25.7316 24.766 25.4843 25.0015 25.2428 25.243C25.0012 25.4845 24.7658 25.7318 24.5364 25.9849C24.3071 26.2379 24.0841 26.4965 23.8674 26.7605C23.6507 27.0245 23.4406 27.2937 23.2372 27.568C23.0337 27.8424 22.8371 28.1215 22.6474 28.4055C22.4576 28.6895 22.2749 28.9779 22.0993 29.2709C21.9238 29.5639 21.7555 29.861 21.5945 30.1622C21.4334 30.4634 21.2799 30.7683 21.1339 31.0771C20.9879 31.3859 20.8495 31.698 20.7188 32.0136C20.5881 32.3291 20.4652 32.6477 20.3501 32.9693C20.2351 33.2909 20.128 33.6151 20.0288 33.9419C19.9297 34.2687 19.8386 34.5978 19.7556 34.9291C19.6727 35.2604 19.5978 35.5936 19.5312 35.9286C19.4646 36.2636 19.4062 36.6 19.3561 36.9378C19.306 37.2756 19.2642 37.6145 19.2307 37.9545C19.1972 38.2943 19.1721 38.6348 19.1553 38.976C19.1386 39.3171 19.1302 39.6584 19.1302 40C19.1302 40.3416 19.1386 40.6829 19.1553 41.0241C19.1721 41.3652 19.1972 41.7057 19.2307 42.0456C19.2642 42.3855 19.306 42.7244 19.3561 43.0622C19.4062 43.4 19.4646 43.7365 19.5312 44.0715C19.5978 44.4065 19.6727 44.7396 19.7556 45.0709C19.8386 45.4022 19.9297 45.7313 20.0288 46.0582C20.128 46.385 20.2351 46.7092 20.3501 47.0308C20.4652 47.3524 20.5881 47.6709 20.7188 47.9865C20.8495 48.302 20.9879 48.6141 21.1339 48.9229C21.2799 49.2317 21.4334 49.5367 21.5945 49.8379C21.7555 50.1391 21.9238 50.4361 22.0993 50.7291C22.2749 51.0221 22.4576 51.3105 22.6474 51.5945C22.8371 51.8785 23.0337 52.1576 23.2372 52.432C23.4406 52.7063 23.6507 52.9755 23.8674 53.2395C24.0841 53.5035 24.3071 53.7621 24.5364 54.0152C24.7658 54.2682 25.0012 54.5155 25.2428 54.757C25.4843 54.9985 25.7316 55.234 25.9846 55.4634C26.2377 55.6927 26.4962 55.9157 26.7603 56.1324C27.0243 56.349 27.2935 56.5591 27.5678 56.7626C27.8421 56.966 28.1213 57.1626 28.4053 57.3524C28.6892 57.5422 28.9777 57.7249 29.2706 57.9005C29.5636 58.076 29.8607 58.2443 30.1619 58.4054C30.4631 58.5664 30.7681 58.7199 31.0768 58.8659C31.3856 59.0119 31.6978 59.1502 32.0133 59.281C32.3289 59.4117 32.6474 59.5346 32.969 59.6496C33.2906 59.7646 33.6148 59.8718 33.9416 59.971C34.2685 60.0701 34.5976 60.1612 34.9288 60.2442C35.2602 60.3271 35.5933 60.4019 35.9283 60.4686C36.2633 60.5352 36.5997 60.5935 36.9375 60.6437C37.2754 60.6938 37.6143 60.7356 37.9542 60.7691C38.2941 60.8025 38.6346 60.8277 38.9757 60.8445C39.3169 60.8612 39.6582 60.8696 39.9997 60.8696C40.3413 60.8696 40.6827 60.8612 41.0238 60.8445C41.365 60.8277 41.7055 60.8025 42.0453 60.7691C42.3853 60.7356 42.7241 60.6938 43.0619 60.6437C43.3998 60.5935 43.7362 60.5352 44.0712 60.4686C44.4062 60.4019 44.7394 60.3271 45.0706 60.2442C45.402 60.1612 45.7311 60.0701 46.0579 59.971C46.3847 59.8718 46.7089 59.7646 47.0305 59.6496C47.3521 59.5346 47.6707 59.4117 47.9862 59.281C48.3018 59.1502 48.6139 59.0119 48.9226 58.8659C49.2314 58.7199 49.5364 58.5664 49.8376 58.4054C50.1388 58.2443 50.4359 58.076 50.7288 57.9005C51.0218 57.7249 51.3103 57.5422 51.5942 57.3524C51.8782 57.1626 52.1574 56.966 52.4317 56.7626C52.7061 56.5591 52.9752 56.349 53.2392 56.1324C53.5033 55.9157 53.7619 55.6927 54.0149 55.4634C54.268 55.234 54.5153 54.9985 54.7567 54.757C54.9983 54.5155 55.2337 54.2682 55.4631 54.0152C55.6925 53.7621 55.9155 53.5035 56.1321 53.2395C56.3488 52.9755 56.5589 52.7063 56.7623 52.432C56.9658 52.1576 57.1624 51.8785 57.3521 51.5945C57.5419 51.3105 57.7246 51.0221 57.9002 50.7291C58.0758 50.4361 58.2441 50.1391 58.4051 49.8379C58.5661 49.5367 58.7196 49.2317 58.8656 48.9229C59.0116 48.6141 59.15 48.302 59.2807 47.9865C59.4115 47.6709 59.5343 47.3524 59.6493 47.0308C59.7644 46.7092 59.8715 46.385 59.9707 46.0582C60.0699 45.7313 60.1609 45.4022 60.2439 45.0709C60.3269 44.7396 60.4017 44.4065 60.4683 44.0715C60.5349 43.7365 60.5933 43.4 60.6434 43.0622C60.6936 42.7244 60.7354 42.3855 60.7688 42.0456C60.8023 41.7057 60.8274 41.3652 60.8442 41.0241C60.861 40.6829 60.8693 40.3416 60.8693 40Z" fill="url(#paint0_linear_116_1494)"/>
</g>
<g opacity="0.2" filter="url(#filter1_d_116_1494)">
<path d="M70 40C70 40.491 69.988 40.9817 69.9639 41.472C69.9398 41.9624 69.9036 42.4519 69.8555 42.9405C69.8074 43.4291 69.7473 43.9162 69.6753 44.4019C69.6032 44.8876 69.5193 45.3712 69.4235 45.8527C69.3278 46.3342 69.2202 46.8131 69.1009 47.2894C68.9816 47.7657 68.8507 48.2387 68.7082 48.7085C68.5657 49.1784 68.4117 49.6444 68.2463 50.1067C68.0809 50.569 67.9043 51.0269 67.7164 51.4805C67.5285 51.9341 67.3296 52.3828 67.1197 52.8266C66.9098 53.2705 66.6891 53.7089 66.4576 54.1419C66.2262 54.5749 65.9843 55.002 65.7318 55.4231C65.4794 55.8442 65.2168 56.2589 64.9441 56.6671C64.6713 57.0753 64.3887 57.4766 64.0962 57.871C63.8037 58.2653 63.5018 58.6523 63.1903 59.0318C62.8788 59.4113 62.5582 59.783 62.2285 60.1468C61.8988 60.5105 61.5604 60.866 61.2132 61.2132C60.866 61.5604 60.5105 61.8988 60.1468 62.2285C59.783 62.5582 59.4113 62.8788 59.0318 63.1903C58.6523 63.5018 58.2653 63.8037 57.871 64.0962C57.4766 64.3887 57.0753 64.6713 56.6671 64.9441C56.2589 65.2168 55.8442 65.4794 55.4231 65.7319C55.002 65.9843 54.5749 66.2262 54.1419 66.4576C53.7089 66.6891 53.2705 66.9098 52.8266 67.1197C52.3828 67.3296 51.9341 67.5285 51.4805 67.7164C51.0269 67.9043 50.569 68.0809 50.1067 68.2463C49.6444 68.4117 49.1784 68.5657 48.7085 68.7082C48.2387 68.8507 47.7657 68.9816 47.2894 69.1009C46.8131 69.2202 46.3342 69.3278 45.8527 69.4235C45.3712 69.5193 44.8876 69.6032 44.4019 69.6753C43.9162 69.7473 43.4291 69.8074 42.9405 69.8555C42.4519 69.9036 41.9624 69.9398 41.472 69.9639C40.9817 69.988 40.491 70 40 70C39.509 70 39.0183 69.988 38.528 69.9639C38.0376 69.9398 37.5481 69.9036 37.0595 69.8555C36.5709 69.8074 36.0838 69.7473 35.5981 69.6753C35.1124 69.6032 34.6288 69.5193 34.1473 69.4235C33.6658 69.3278 33.1869 69.2202 32.7106 69.1009C32.2343 68.9816 31.7613 68.8507 31.2915 68.7082C30.8216 68.5657 30.3556 68.4117 29.8933 68.2463C29.431 68.0809 28.9731 67.9043 28.5195 67.7164C28.0659 67.5285 27.6172 67.3296 27.1733 67.1197C26.7295 66.9098 26.2911 66.6891 25.8581 66.4576C25.4251 66.2262 24.998 65.9843 24.5769 65.7318C24.1558 65.4794 23.7411 65.2168 23.3329 64.9441C22.9246 64.6713 22.5233 64.3887 22.129 64.0962C21.7347 63.8037 21.3477 63.5018 20.9682 63.1903C20.5887 62.8788 20.217 62.5582 19.8532 62.2285C19.4894 61.8988 19.134 61.5604 18.7868 61.2132C18.4396 60.866 18.1012 60.5105 17.7715 60.1468C17.4417 59.783 17.1212 59.4113 16.8097 59.0318C16.4982 58.6523 16.1962 58.2653 15.9038 57.871C15.6113 57.4766 15.3287 57.0753 15.0559 56.6671C14.7831 56.2589 14.5206 55.8442 14.2681 55.4231C14.0157 55.002 13.7738 54.5749 13.5424 54.1419C13.3109 53.7089 13.0902 53.2705 12.8803 52.8266C12.6704 52.3828 12.4715 51.9341 12.2836 51.4805C12.0957 51.0269 11.9191 50.569 11.7537 50.1067C11.5883 49.6444 11.4343 49.1784 11.2918 48.7085C11.1493 48.2387 11.0184 47.7657 10.8991 47.2894C10.7798 46.8131 10.6722 46.3342 10.5764 45.8527C10.4807 45.3712 10.3967 44.8876 10.3247 44.4019C10.2527 43.9162 10.1926 43.4291 10.1445 42.9405C10.0963 42.4519 10.0602 41.9624 10.0361 41.472C10.012 40.9817 10 40.491 10 40C10 39.509 10.012 39.0183 10.0361 38.528C10.0602 38.0376 10.0963 37.5481 10.1445 37.0595C10.1926 36.5709 10.2527 36.0838 10.3247 35.5981C10.3967 35.1124 10.4807 34.6288 10.5764 34.1473C10.6722 33.6658 10.7798 33.1869 10.8991 32.7106C11.0184 32.2343 11.1493 31.7613 11.2918 31.2915C11.4343 30.8216 11.5883 30.3556 11.7537 29.8933C11.9191 29.431 12.0957 28.9731 12.2836 28.5195C12.4715 28.0659 12.6704 27.6172 12.8803 27.1733C13.0902 26.7295 13.3109 26.2911 13.5424 25.8581C13.7738 25.4251 14.0157 24.998 14.2681 24.5769C14.5206 24.1558 14.7831 23.7411 15.0559 23.3329C15.3287 22.9246 15.6113 22.5233 15.9038 22.129C16.1962 21.7347 16.4982 21.3477 16.8097 20.9682C17.1212 20.5887 17.4417 20.217 17.7715 19.8532C18.1012 19.4894 18.4396 19.134 18.7868 18.7868C19.134 18.4396 19.4894 18.1012 19.8532 17.7715C20.217 17.4417 20.5887 17.1212 20.9682 16.8097C21.3477 16.4982 21.7347 16.1962 22.129 15.9038C22.5233 15.6113 22.9246 15.3287 23.3329 15.0559C23.7411 14.7831 24.1558 14.5206 24.5769 14.2681C24.998 14.0157 25.4251 13.7738 25.8581 13.5424C26.2911 13.3109 26.7295 13.0902 27.1733 12.8803C27.6172 12.6704 28.0659 12.4715 28.5195 12.2836C28.9731 12.0957 29.431 11.9191 29.8933 11.7537C30.3556 11.5883 30.8216 11.4343 31.2915 11.2918C31.7613 11.1493 32.2343 11.0184 32.7106 10.8991C33.1869 10.7798 33.6658 10.6722 34.1473 10.5764C34.6288 10.4807 35.1124 10.3967 35.5981 10.3247C36.0838 10.2527 36.5709 10.1926 37.0595 10.1445C37.5481 10.0963 38.0376 10.0602 38.528 10.0361C39.0183 10.012 39.509 10 40 10C40.491 10 40.9817 10.012 41.472 10.0361C41.9624 10.0602 42.4519 10.0963 42.9405 10.1445C43.4291 10.1926 43.9162 10.2527 44.4019 10.3247C44.8876 10.3967 45.3712 10.4807 45.8527 10.5764C46.3342 10.6722 46.8131 10.7798 47.2894 10.8991C47.7657 11.0184 48.2387 11.1493 48.7085 11.2918C49.1784 11.4343 49.6444 11.5883 50.1067 11.7537C50.569 11.9191 51.0269 12.0957 51.4805 12.2836C51.9341 12.4715 52.3828 12.6704 52.8266 12.8803C53.2705 13.0902 53.7089 13.3109 54.1419 13.5424C54.5749 13.7738 55.002 14.0157 55.4231 14.2681C55.8442 14.5206 56.2589 14.7831 56.6671 15.0559C57.0753 15.3287 57.4766 15.6113 57.871 15.9038C58.2653 16.1962 58.6523 16.4982 59.0318 16.8097C59.4113 17.1212 59.783 17.4417 60.1468 17.7715C60.5105 18.1012 60.866 18.4396 61.2132 18.7868C61.5604 19.134 61.8988 19.4894 62.2285 19.8532C62.5582 20.217 62.8788 20.5887 63.1903 20.9682C63.5018 21.3477 63.8037 21.7347 64.0962 22.129C64.3887 22.5233 64.6713 22.9246 64.9441 23.3329C65.2168 23.7411 65.4794 24.1558 65.7319 24.5769C65.9843 24.998 66.2262 25.4251 66.4576 25.8581C66.6891 26.2911 66.9098 26.7295 67.1197 27.1733C67.3296 27.6172 67.5285 28.0659 67.7164 28.5195C67.9043 28.9731 68.0809 29.431 68.2463 29.8933C68.4117 30.3556 68.5657 30.8216 68.7082 31.2915C68.8507 31.7613 68.9816 32.2343 69.1009 32.7106C69.2202 33.1869 69.3278 33.6658 69.4235 34.1473C69.5193 34.6288 69.6032 35.1124 69.6753 35.5981C69.7473 36.0838 69.8074 36.5709 69.8555 37.0595C69.9036 37.5481 69.9398 38.0376 69.9639 38.528C69.988 39.0183 70 39.509 70 40ZM69.3478 40C69.3478 39.5197 69.336 39.0397 69.3125 38.56C69.2889 38.0803 69.2536 37.6014 69.2065 37.1234C69.1594 36.6454 69.1007 36.1689 69.0302 35.6938C68.9597 35.2187 68.8776 34.7456 68.7839 34.2745C68.6902 33.8034 68.585 33.335 68.4683 32.8691C68.3516 32.4032 68.2235 31.9404 68.0841 31.4808C67.9447 31.0211 67.7941 30.5652 67.6323 30.113C67.4704 29.6608 67.2976 29.2128 67.1138 28.7691C66.93 28.3254 66.7354 27.8864 66.5301 27.4522C66.3248 27.018 66.1089 26.5891 65.8825 26.1655C65.6561 25.7419 65.4194 25.3241 65.1725 24.9122C64.9256 24.5003 64.6687 24.0946 64.4018 23.6952C64.135 23.2959 63.8585 22.9033 63.5724 22.5175C63.2863 22.1317 62.9909 21.7532 62.6862 21.3819C62.3815 21.0106 62.0678 20.6471 61.7453 20.2912C61.4228 19.9353 61.0917 19.5876 60.752 19.2479C60.4124 18.9083 60.0647 18.5772 59.7088 18.2547C59.3529 17.9321 58.9894 17.6185 58.6181 17.3138C58.2468 17.0091 57.8682 16.7137 57.4825 16.4276C57.0967 16.1415 56.7041 15.865 56.3048 15.5982C55.9054 15.3313 55.4997 15.0745 55.0878 14.8275C54.6758 14.5806 54.258 14.3439 53.8345 14.1175C53.4109 13.8911 52.982 13.6752 52.5478 13.4699C52.1136 13.2645 51.6746 13.0699 51.2309 12.8861C50.7872 12.7023 50.3392 12.5295 49.887 12.3677C49.4347 12.2059 48.9788 12.0553 48.5192 11.9159C48.0596 11.7765 47.5968 11.6484 47.1309 11.5317C46.665 11.415 46.1966 11.3098 45.7255 11.2161C45.2544 11.1224 44.7813 11.0403 44.3062 10.9698C43.8311 10.8993 43.3546 10.8406 42.8766 10.7935C42.3986 10.7464 41.9197 10.7111 41.44 10.6875C40.9603 10.664 40.4803 10.6522 40 10.6522C39.5197 10.6522 39.0397 10.664 38.56 10.6875C38.0803 10.7111 37.6014 10.7464 37.1234 10.7935C36.6454 10.8406 36.1689 10.8993 35.6938 10.9698C35.2187 11.0403 34.7456 11.1224 34.2745 11.2161C33.8034 11.3098 33.335 11.415 32.8691 11.5317C32.4032 11.6484 31.9404 11.7765 31.4808 11.9159C31.0211 12.0553 30.5652 12.2059 30.113 12.3677C29.6608 12.5295 29.2128 12.7023 28.7691 12.8861C28.3254 13.0699 27.8864 13.2645 27.4522 13.4699C27.018 13.6752 26.5891 13.8911 26.1655 14.1175C25.7419 14.3439 25.3241 14.5806 24.9122 14.8275C24.5003 15.0745 24.0946 15.3313 23.6952 15.5982C23.2959 15.865 22.9033 16.1415 22.5175 16.4276C22.1317 16.7137 21.7532 17.0091 21.3819 17.3138C21.0106 17.6185 20.6471 17.9321 20.2912 18.2547C19.9353 18.5772 19.5876 18.9083 19.2479 19.2479C18.9083 19.5876 18.5772 19.9353 18.2547 20.2912C17.9321 20.6471 17.6185 21.0106 17.3138 21.3819C17.0091 21.7532 16.7137 22.1317 16.4276 22.5175C16.1415 22.9033 15.865 23.2959 15.5982 23.6952C15.3313 24.0946 15.0745 24.5003 14.8275 24.9122C14.5806 25.3241 14.3439 25.7419 14.1175 26.1655C13.8911 26.5891 13.6752 27.018 13.4699 27.4522C13.2645 27.8864 13.0699 28.3254 12.8861 28.7691C12.7023 29.2128 12.5295 29.6608 12.3677 30.113C12.2059 30.5652 12.0553 31.0211 11.9159 31.4808C11.7765 31.9404 11.6484 32.4032 11.5317 32.8691C11.415 33.335 11.3098 33.8034 11.2161 34.2745C11.1224 34.7456 11.0403 35.2187 10.9698 35.6938C10.8993 36.1689 10.8406 36.6454 10.7935 37.1234C10.7464 37.6014 10.7111 38.0803 10.6875 38.56C10.664 39.0397 10.6522 39.5197 10.6522 40C10.6522 40.4803 10.664 40.9603 10.6875 41.44C10.7111 41.9197 10.7464 42.3986 10.7935 42.8766C10.8406 43.3546 10.8993 43.8311 10.9698 44.3062C11.0403 44.7813 11.1224 45.2544 11.2161 45.7255C11.3098 46.1966 11.415 46.665 11.5317 47.1309C11.6484 47.5968 11.7765 48.0596 11.9159 48.5192C12.0553 48.9788 12.2059 49.4347 12.3677 49.887C12.5295 50.3392 12.7023 50.7872 12.8861 51.2309C13.0699 51.6746 13.2645 52.1136 13.4699 52.5478C13.6752 52.982 13.8911 53.4109 14.1175 53.8345C14.3439 54.258 14.5806 54.6758 14.8275 55.0878C15.0745 55.4997 15.3313 55.9054 15.5982 56.3048C15.865 56.7041 16.1415 57.0967 16.4276 57.4825C16.7137 57.8682 17.0091 58.2468 17.3138 58.6181C17.6185 58.9894 17.9321 59.3529 18.2547 59.7088C18.5772 60.0647 18.9083 60.4124 19.2479 60.752C19.5876 61.0917 19.9353 61.4228 20.2912 61.7453C20.6471 62.0678 21.0106 62.3815 21.3819 62.6862C21.7532 62.9909 22.1317 63.2863 22.5175 63.5724C22.9033 63.8585 23.2959 64.135 23.6952 64.4018C24.0946 64.6687 24.5003 64.9256 24.9122 65.1725C25.3241 65.4194 25.7419 65.656 26.1655 65.8825C26.5891 66.1089 27.018 66.3248 27.4522 66.5301C27.8864 66.7354 28.3254 66.93 28.7691 67.1138C29.2128 67.2976 29.6608 67.4704 30.113 67.6323C30.5652 67.7941 31.0211 67.9447 31.4808 68.0841C31.9404 68.2235 32.4032 68.3516 32.8691 68.4683C33.335 68.585 33.8034 68.6902 34.2745 68.7839C34.7456 68.8776 35.2187 68.9597 35.6938 69.0302C36.1689 69.1007 36.6454 69.1594 37.1234 69.2065C37.6014 69.2536 38.0803 69.2889 38.56 69.3125C39.0397 69.336 39.5197 69.3478 40 69.3478C40.4803 69.3478 40.9603 69.336 41.44 69.3125C41.9197 69.2889 42.3986 69.2536 42.8766 69.2065C43.3546 69.1594 43.8311 69.1007 44.3062 69.0302C44.7813 68.9597 45.2544 68.8776 45.7255 68.7839C46.1966 68.6902 46.665 68.585 47.1309 68.4683C47.5968 68.3516 48.0596 68.2235 48.5192 68.0841C48.9788 67.9447 49.4347 67.7941 49.887 67.6323C50.3392 67.4704 50.7872 67.2976 51.2309 67.1138C51.6746 66.93 52.1136 66.7354 52.5478 66.5301C52.982 66.3248 53.4109 66.1089 53.8345 65.8825C54.258 65.6561 54.6758 65.4194 55.0878 65.1725C55.4997 64.9256 55.9054 64.6687 56.3048 64.4018C56.7041 64.135 57.0967 63.8585 57.4825 63.5724C57.8682 63.2863 58.2468 62.9909 58.6181 62.6862C58.9894 62.3815 59.3529 62.0678 59.7088 61.7453C60.0647 61.4228 60.4124 61.0917 60.752 60.752C61.0917 60.4124 61.4228 60.0647 61.7453 59.7088C62.0678 59.3529 62.3815 58.9894 62.6862 58.6181C62.9909 58.2468 63.2863 57.8682 63.5724 57.4825C63.8585 57.0967 64.135 56.7041 64.4018 56.3048C64.6687 55.9054 64.9256 55.4997 65.1725 55.0878C65.4194 54.6758 65.656 54.258 65.8825 53.8345C66.1089 53.4109 66.3248 52.982 66.5301 52.5478C66.7354 52.1136 66.93 51.6746 67.1138 51.2309C67.2976 50.7872 67.4704 50.3392 67.6323 49.887C67.7941 49.4347 67.9447 48.9788 68.0841 48.5192C68.2235 48.0596 68.3516 47.5968 68.4683 47.1309C68.585 46.665 68.6902 46.1966 68.7839 45.7255C68.8776 45.2544 68.9597 44.7813 69.0302 44.3062C69.1007 43.8311 69.1594 43.3546 69.2065 42.8766C69.2536 42.3986 69.2889 41.9197 69.3125 41.44C69.336 40.9603 69.3478 40.4803 69.3478 40Z" fill="url(#paint1_linear_116_1494)"/>
</g>
<path d="M28.3833 38.546C28.0815 39.3586 28.6174 40.2398 29.4777 40.3456L37.1665 41.2907C37.9662 41.389 38.4997 42.1648 38.3053 42.9466L35.3926 54.6629C35.0634 55.9872 36.6908 56.9007 37.6499 55.93L53.1434 40.2492C53.9266 39.4564 53.4585 38.1097 52.3524 37.9737L48.3859 37.4861C47.384 37.363 46.8715 36.2193 47.4465 35.3895L59.1637 18.4795C59.7387 17.6497 59.2262 16.5061 58.2242 16.3829L38.6128 13.9722C37.9957 13.8963 37.4073 14.2542 37.1908 14.8369L28.3833 38.546Z" fill="url(#paint2_linear_116_1494)"/>
<path d="M26.48 38.3121C26.1782 39.1247 26.7141 40.0059 27.5744 40.1117L35.2632 41.0568C36.0629 41.1551 36.5963 41.9309 36.402 42.7127L33.4893 54.429C33.1601 55.7533 34.7875 56.6668 35.7465 55.6962L51.24 40.0153C52.0233 39.2225 51.5551 37.8758 50.4491 37.7398L46.4826 37.2522C45.4807 37.1291 44.9682 35.9854 45.5432 35.1557L57.2603 18.2456C57.8354 17.4158 57.3229 16.2722 56.3209 16.149L36.7094 13.7383C36.0924 13.6624 35.504 14.0203 35.2875 14.603L26.48 38.3121Z" fill="url(#paint3_linear_116_1494)" fill-opacity="0.8"/>
<path d="M26.48 38.3121C26.1782 39.1247 26.7141 40.0059 27.5744 40.1117L35.2632 41.0568C36.0629 41.1551 36.5963 41.9309 36.402 42.7127L33.4893 54.429C33.1601 55.7533 34.7875 56.6668 35.7465 55.6962L51.24 40.0153C52.0233 39.2225 51.5551 37.8758 50.4491 37.7398L46.4826 37.2522C45.4807 37.1291 44.9682 35.9854 45.5432 35.1557L57.2603 18.2456C57.8354 17.4158 57.3229 16.2722 56.3209 16.149L36.7094 13.7383C36.0924 13.6624 35.504 14.0203 35.2875 14.603L26.48 38.3121Z" fill="url(#paint4_radial_116_1494)" fill-opacity="0.4"/>
<path d="M26.48 38.3121C26.1782 39.1247 26.7141 40.0059 27.5744 40.1117L35.2632 41.0568C36.0629 41.1551 36.5963 41.9309 36.402 42.7127L33.4893 54.429C33.1601 55.7533 34.7875 56.6668 35.7465 55.6962L51.24 40.0153C52.0233 39.2225 51.5551 37.8758 50.4491 37.7398L46.4826 37.2522C45.4807 37.1291 44.9682 35.9854 45.5432 35.1557L57.2603 18.2456C57.8354 17.4158 57.3229 16.2722 56.3209 16.149L36.7094 13.7383C36.0924 13.6624 35.504 14.0203 35.2875 14.603L26.48 38.3121Z" fill="url(#paint5_linear_116_1494)"/>
<path fill-rule="evenodd" clip-rule="evenodd" d="M51.1473 39.9237L32.2168 59.0833L32.4024 59.2666L51.3329 40.107C51.7626 39.6721 51.8771 39.1659 51.6764 38.5884C51.4756 38.0109 51.0718 37.6849 50.4651 37.6103L46.4986 37.1228C46.0464 37.0672 45.727 36.8314 45.5406 36.4156C45.3543 35.9998 45.3909 35.6045 45.6505 35.2299L57.3677 18.3199C57.6831 17.8647 57.7276 17.3844 57.5012 16.879C57.2747 16.3736 56.8866 16.0872 56.3369 16.0196L35.6729 13.4795L35.641 13.7384L56.3051 16.2785C56.7574 16.3341 57.0767 16.5699 57.2631 16.9857C57.4494 17.4016 57.4128 17.7968 57.1533 18.1713L45.436 35.0814C45.1206 35.5366 45.0761 36.0169 45.3026 36.5223C45.5291 37.0277 45.9171 37.3141 46.4668 37.3817L50.4332 37.8693C50.9325 37.9307 51.2648 38.1989 51.43 38.6741C51.5951 39.1493 51.5009 39.5658 51.1473 39.9237Z" fill="url(#paint6_linear_116_1494)" fill-opacity="0.4"/>
<defs>
<filter id="filter0_d_116_1494" x="14.565" y="14.5652" width="50.8695" height="50.8695" filterUnits="userSpaceOnUse" color-interpolation-filters="sRGB">
<feFlood flood-opacity="0" result="BackgroundImageFix"/>
<feColorMatrix in="SourceAlpha" type="matrix" values="0 0 0 0 0 0 0 0 0 0 0 0 0 0 0 0 0 0 127 0" result="hardAlpha"/>
<feOffset/>
<feGaussianBlur stdDeviation="1.95652"/>
<feColorMatrix type="matrix" values="0 0 0 0 0.278431 0 0 0 0 0.945098 0 0 0 0 0.737255 0 0 0 0.4 0"/>
<feBlend mode="normal" in2="BackgroundImageFix" result="effect1_dropShadow_116_1494"/>
<feBlend mode="normal" in="SourceGraphic" in2="effect1_dropShadow_116_1494" result="shape"/>
</filter>
<filter id="filter1_d_116_1494" x="6.08696" y="6.08696" width="67.8261" height="67.8261" filterUnits="userSpaceOnUse" color-interpolation-filters="sRGB">
<feFlood flood-opacity="0" result="BackgroundImageFix"/>
<feColorMatrix in="SourceAlpha" type="matrix" values="0 0 0 0 0 0 0 0 0 0 0 0 0 0 0 0 0 0 127 0" result="hardAlpha"/>
<feOffset/>
<feGaussianBlur stdDeviation="1.95652"/>
<feColorMatrix type="matrix" values="0 0 0 0 0.278431 0 0 0 0 0.945098 0 0 0 0 0.737255 0 0 0 0.4 0"/>
<feBlend mode="normal" in2="BackgroundImageFix" result="effect1_dropShadow_116_1494"/>
<feBlend mode="normal" in="SourceGraphic" in2="effect1_dropShadow_116_1494" result="shape"/>
</filter>
<linearGradient id="paint0_linear_116_1494" x1="39.9998" y1="18.4783" x2="39.9998" y2="61.5218" gradientUnits="userSpaceOnUse">
<stop offset="0.0428571" stop-color="#BAF8F2" stop-opacity="0"/>
<stop offset="0.492857" stop-color="#93F1FF"/>
<stop offset="1" stop-color="#9FEDFD" stop-opacity="0"/>
</linearGradient>
<linearGradient id="paint1_linear_116_1494" x1="40" y1="10" x2="40" y2="70" gradientUnits="userSpaceOnUse">
<stop offset="0.0428571" stop-color="#BAF8F2" stop-opacity="0"/>
<stop offset="0.492857" stop-color="#93F1FF"/>
<stop offset="1" stop-color="#9FEDFD" stop-opacity="0"/>
</linearGradient>
<linearGradient id="paint2_linear_116_1494" x1="45.5164" y1="14.8208" x2="38.0874" y2="52.9512" gradientUnits="userSpaceOnUse">
<stop offset="0.0285714" stop-color="#03BED4"/>
<stop offset="0.307143" stop-color="#1ABBCE"/>
<stop offset="0.537013" stop-color="#3FDAE6"/>
<stop offset="0.721429" stop-color="#5CF2F9"/>
<stop offset="1" stop-color="#88ECFD"/>
</linearGradient>
<linearGradient id="paint3_linear_116_1494" x1="43.6131" y1="14.5869" x2="38.4536" y2="56.5595" gradientUnits="userSpaceOnUse">
<stop stop-color="#47C8F3"/>
<stop offset="0.5" stop-color="#52F9FF"/>
<stop offset="1" stop-color="#D3F9FF"/>
</linearGradient>
<radialGradient id="paint4_radial_116_1494" cx="0" cy="0" r="1" gradientUnits="userSpaceOnUse" gradientTransform="translate(25.8832 39.9475) rotate(58.1118) scale(23.5128 20.0021)">
<stop stop-color="#5BA0FF"/>
<stop offset="0.964286" stop-color="#67A7FF" stop-opacity="0"/>
</radialGradient>
<linearGradient id="paint5_linear_116_1494" x1="34.593" y1="11.3113" x2="43.9784" y2="26.5423" gradientUnits="userSpaceOnUse">
<stop stop-color="#00FFFF"/>
<stop offset="1" stop-color="#00FFFF" stop-opacity="0"/>
</linearGradient>
<linearGradient id="paint6_linear_116_1494" x1="44.6509" y1="17.5336" x2="40.6976" y2="54.6551" gradientUnits="userSpaceOnUse">
<stop stop-color="#0FE7A2" stop-opacity="0"/>
<stop offset="0.357143" stop-color="#EBFFF9"/>
<stop offset="0.75" stop-color="#79D6EA"/>
<stop offset="0.979452" stop-color="#54F2C1" stop-opacity="0"/>
</linearGradient>
</defs>
</svg>
