<svg width="80" height="80" viewBox="0 0 80 80" fill="none" xmlns="http://www.w3.org/2000/svg">
<rect width="80" height="80" rx="12" fill="#001C39" fill-opacity="0.03"/>
<path d="M57.2143 23.4385L32.4269 17.3445C28.3405 16.3398 24.2134 18.8381 23.2088 22.9245L17.2057 47.3419C16.2011 51.4283 18.6993 55.5554 22.7857 56.5601L47.5731 62.6541C51.6595 63.6587 55.7866 61.1605 56.7913 57.0741L62.7943 32.6566C63.799 28.5702 61.3007 24.4431 57.2143 23.4385Z" fill="url(#paint0_linear_116_1445)"/>
<path d="M35.8676 33.9171C36.1439 32.7933 35.4569 31.6584 34.3331 31.3821C33.2093 31.1058 32.0744 31.7928 31.7981 32.9166L28.6147 45.8652C28.3384 46.9889 29.0254 48.1239 30.1492 48.4002C31.273 48.6765 32.4079 47.9894 32.6842 46.8657L35.8676 33.9171Z" fill="white" fill-opacity="0.2"/>
<path d="M44.6372 33.5887C44.9134 32.465 44.2264 31.33 43.1026 31.0537C41.9789 30.7774 40.8439 31.4645 40.5676 32.5882L36.7475 48.1265C36.4712 49.2503 37.1583 50.3852 38.282 50.6615C39.4058 50.9378 40.5408 50.2508 40.8171 49.127L44.6372 33.5887Z" fill="url(#paint1_linear_116_1445)"/>
<path d="M50.6904 43.6261C50.9667 42.5023 50.2796 41.3674 49.1559 41.0911C48.0321 40.8148 46.8971 41.5018 46.6208 42.6256L44.8017 50.0248C44.5255 51.1485 45.2125 52.2835 46.3363 52.5598C47.46 52.8361 48.595 52.149 48.8713 51.0253L50.6904 43.6261Z" fill="white" fill-opacity="0.2"/>
<defs>
<linearGradient id="paint0_linear_116_1445" x1="30.4094" y1="57.1125" x2="49.205" y2="21.4694" gradientUnits="userSpaceOnUse">
<stop offset="0.00714286" stop-color="#8BA6FF" stop-opacity="0.3"/>
<stop offset="1" stop-color="#3867FF"/>
</linearGradient>
<linearGradient id="paint1_linear_116_1445" x1="43.1026" y1="31.0537" x2="38.282" y2="50.6615" gradientUnits="userSpaceOnUse">
<stop stop-color="#ECF4FF"/>
<stop offset="0.942857" stop-color="#E4F0FF" stop-opacity="0.41"/>
</linearGradient>
</defs>
</svg>
