<svg width="80" height="80" viewBox="0 0 80 80" fill="none" xmlns="http://www.w3.org/2000/svg">
<path d="M0 12C0 5.37258 5.37258 0 12 0H68C74.6274 0 80 5.37258 80 12V68C80 74.6274 74.6274 80 68 80H12C5.37258 80 0 74.6274 0 68V12Z" fill="#001C39" fill-opacity="0.03"/>
<g clip-path="url(#clip0_116_1510)">
<path d="M40.6457 65.2817C39.8312 66.9022 37.8161 67.4903 36.2582 66.5623C34.7003 65.6343 34.2522 63.5788 35.2826 62.0869L55.1936 33.2591C55.4009 32.9589 55.805 32.8709 56.1185 33.0576C56.432 33.2444 56.5481 33.6422 56.3842 33.9683L40.6457 65.2817Z" fill="url(#paint0_linear_116_1510)"/>
<path d="M55.1899 39.5523C58.8162 40.1733 62.2582 37.7296 62.8777 34.0941C63.4973 30.4586 61.0597 27.008 57.4333 26.387C53.8069 25.7659 50.365 28.2096 49.7455 31.8451C49.1259 35.4806 51.5635 38.9312 55.1899 39.5523Z" fill="url(#paint1_radial_116_1510)"/>
<g filter="url(#filter0_f_116_1510)">
<path d="M-16 40.8883L-13.2892 49.9467C5.98788 46.0213 18.6384 43.0019 24.6625 40.8883C33.6987 37.7178 37.539 26.6212 44.3161 26.6212C48.8342 26.6212 51.7709 28.4329 54.4818 30.471C52.4486 28.4329 48.6083 25.2625 44.3161 25.2625C36.6354 25.2625 33.021 34.7738 22.1776 36.812C14.9487 38.1707 2.22287 39.5295 -16 40.8883Z" fill="url(#paint2_linear_116_1510)"/>
</g>
<g filter="url(#filter1_f_116_1510)">
<path d="M19.7629 14.1646C28.0322 18.9146 35.0145 20.7559 40.7096 19.6885C46.4048 18.6211 51.0876 21.7357 54.7579 29.0325C51.3674 20.9726 47.1129 17.0152 41.9944 17.1601C34.3168 17.3774 27.2593 15.5383 21.4994 11.6234L19.7629 14.1646Z" fill="url(#paint3_linear_116_1510)"/>
</g>
<g opacity="0.4">
<path d="M33.7261 22.7974L31.693 22.7974L33.5001 24.3826L33.7261 22.7974Z" fill="#6095FF"/>
</g>
<path d="M26.9142 29.1888L28.3819 27.7785L25.9832 27.8875L26.9142 29.1888Z" fill="#CBFFE9"/>
<path d="M23.4608 17.2667C23.8004 17.6014 23.8378 18.04 23.5729 18.5824C24.4479 18.5075 25.0883 18.5696 25.4941 18.7687C25.4222 18.2291 25.2496 17.7242 24.9762 17.2539L23.4608 17.2667Z" fill="#FFCF60"/>
<path fill-rule="evenodd" clip-rule="evenodd" d="M55.1678 30.7553C55.1601 30.7264 55.1582 30.6972 55.1621 30.6676C55.166 30.638 55.1755 30.6103 55.1904 30.5845C55.2053 30.5586 55.2246 30.5366 55.2483 30.5184C55.272 30.5003 55.2983 30.4873 55.3271 30.4796C55.3559 30.4719 55.3851 30.4699 55.4147 30.4738C55.4442 30.4777 55.4719 30.4871 55.4977 30.502C55.5235 30.517 55.5455 30.5363 55.5636 30.56C55.5818 30.5836 55.5947 30.6099 55.6024 30.6387L55.7708 31.2663C55.7785 31.2951 55.7795 31.3246 55.7755 31.3542C55.7716 31.3837 55.7622 31.4115 55.7473 31.4373C55.7323 31.4632 55.713 31.4852 55.6893 31.5034C55.6657 31.5215 55.6394 31.5345 55.6106 31.5422C55.5818 31.5499 55.5526 31.5518 55.523 31.548C55.4934 31.5441 55.4658 31.5347 55.4399 31.5197C55.4141 31.5048 55.3921 31.4855 55.374 31.4618C55.3559 31.4382 55.343 31.4119 55.3353 31.3831L55.1678 30.7553Z" fill="#FFFDEF"/>
<path fill-rule="evenodd" clip-rule="evenodd" d="M56.5232 34.8322C56.5155 34.8033 56.5137 34.7741 56.5176 34.7445C56.5215 34.7149 56.5309 34.6872 56.5459 34.6614C56.5608 34.6355 56.5801 34.6135 56.6038 34.5953C56.6275 34.5772 56.6537 34.5642 56.6825 34.5565C56.7114 34.5488 56.7406 34.5468 56.7701 34.5507C56.7997 34.5546 56.8274 34.564 56.8532 34.579C56.879 34.5939 56.901 34.6132 56.9191 34.6369C56.9372 34.6605 56.9502 34.6868 56.9579 34.7156L57.1262 35.3432C57.1339 35.372 57.1349 35.4015 57.131 35.4311C57.1271 35.4607 57.1177 35.4884 57.1027 35.5142C57.0878 35.5401 57.0685 35.5621 57.0448 35.5803C57.0211 35.5984 56.9949 35.6114 56.9661 35.6191C56.9372 35.6268 56.908 35.6288 56.8785 35.6249C56.8489 35.621 56.8212 35.6116 56.7954 35.5966C56.7696 35.5817 56.7476 35.5624 56.7295 35.5387C56.7113 35.5151 56.6984 35.4888 56.6907 35.46L56.5232 34.8322Z" fill="white"/>
<path fill-rule="evenodd" clip-rule="evenodd" d="M57.6444 32.737C57.6146 32.737 57.5859 32.7427 57.5583 32.7541C57.5308 32.7655 57.5064 32.7818 57.4853 32.8029C57.4642 32.824 57.448 32.8483 57.4366 32.8759C57.4251 32.9035 57.4194 32.9322 57.4194 32.962C57.4194 32.9918 57.4251 33.0205 57.4366 33.0481C57.448 33.0757 57.4642 33.1 57.4853 33.1211C57.5064 33.1422 57.5308 33.1584 57.5583 33.1699C57.5859 33.1813 57.6146 33.187 57.6444 33.187L58.548 33.1879C58.5779 33.1879 58.6066 33.1813 58.6341 33.1699C58.6617 33.1584 58.686 33.1422 58.7071 33.1211C58.7282 33.1 58.7445 33.0757 58.7559 33.0481C58.7673 33.0205 58.773 32.9918 58.773 32.962C58.773 32.9322 58.7673 32.9035 58.7559 32.8759C58.7445 32.8483 58.7282 32.824 58.7071 32.8029C58.686 32.7818 58.6617 32.7655 58.6341 32.7541C58.6066 32.7427 58.5779 32.737 58.548 32.737H57.6444Z" fill="white"/>
<path fill-rule="evenodd" clip-rule="evenodd" d="M58.6656 34.1287C58.6402 34.113 58.6128 34.1028 58.5834 34.0981C58.554 34.0933 58.5247 34.0944 58.4958 34.1013C58.4668 34.1082 58.4402 34.1204 58.4161 34.1379C58.3919 34.1554 58.372 34.1769 58.3564 34.2023C58.3408 34.2277 58.3307 34.2552 58.326 34.2847C58.3213 34.3142 58.3224 34.3434 58.3293 34.3725C58.3362 34.4015 58.3484 34.4282 58.3659 34.4524C58.3834 34.4766 58.4049 34.4965 58.4303 34.5122L59.1994 34.9876C59.2248 35.0033 59.2527 35.0127 59.2821 35.0175C59.3115 35.0222 59.3408 35.0211 59.3698 35.0142C59.3987 35.0073 59.4253 34.9951 59.4494 34.9776C59.4736 34.9601 59.4935 34.9386 59.5091 34.9132C59.5247 34.8878 59.5348 34.8603 59.5395 34.8308C59.5442 34.8013 59.5431 34.7721 59.5362 34.743C59.5293 34.714 59.5171 34.6873 59.4996 34.6631C59.4821 34.6389 59.4606 34.619 59.4353 34.6033L58.6656 34.1287Z" fill="white"/>
<path fill-rule="evenodd" clip-rule="evenodd" d="M53.1264 32.737C53.0965 32.737 53.0678 32.7427 53.0403 32.7541C53.0127 32.7655 52.9884 32.7818 52.9673 32.8029C52.9462 32.824 52.9299 32.8483 52.9185 32.8759C52.9071 32.9035 52.9014 32.9322 52.9014 32.962C52.9014 32.9918 52.9071 33.0205 52.9185 33.0481C52.9299 33.0757 52.9462 33.1 52.9673 33.1211C52.9884 33.1422 53.0127 33.1584 53.0403 33.1699C53.0678 33.1813 53.0965 33.187 53.1264 33.187L54.03 33.1879C54.0598 33.1879 54.0885 33.1813 54.1161 33.1699C54.1436 33.1584 54.168 33.1422 54.1891 33.1211C54.2102 33.1 54.2264 33.0757 54.2378 33.0481C54.2493 33.0205 54.255 32.9918 54.255 32.962C54.255 32.9322 54.2493 32.9035 54.2378 32.8759C54.2264 32.8483 54.2102 32.824 54.1891 32.8029C54.168 32.7818 54.1436 32.7655 54.1161 32.7541C54.0885 32.7427 54.0598 32.737 54.03 32.737H53.1264Z" fill="white"/>
<path fill-rule="evenodd" clip-rule="evenodd" d="M57.9374 30.9912C57.9585 30.9701 57.9828 30.9538 58.0103 30.9424C58.0379 30.931 58.0665 30.9253 58.0963 30.9253C58.1261 30.9253 58.1548 30.931 58.1823 30.9424C58.2099 30.9538 58.2342 30.9701 58.2552 30.9912C58.2763 31.0124 58.2926 31.0367 58.304 31.0643C58.3154 31.0919 58.3211 31.1207 58.3211 31.1505C58.3211 31.1804 58.3154 31.2091 58.304 31.2367C58.2926 31.2643 58.2763 31.2887 58.2552 31.3098L57.7975 31.77C57.7764 31.7911 57.7515 31.8067 57.724 31.8182C57.6964 31.8296 57.6678 31.8353 57.638 31.8353C57.6082 31.8353 57.5795 31.8296 57.552 31.8182C57.5244 31.8067 57.5001 31.7905 57.4791 31.7693C57.458 31.7482 57.4418 31.7238 57.4303 31.6962C57.4189 31.6686 57.4132 31.6399 57.4132 31.61C57.4132 31.5802 57.4189 31.5514 57.4304 31.5238C57.4418 31.4962 57.458 31.4719 57.4791 31.4507L57.9374 30.9912Z" fill="white"/>
<path fill-rule="evenodd" clip-rule="evenodd" d="M54.7748 34.1612C54.7959 34.14 54.8202 34.1238 54.8477 34.1123C54.8753 34.1009 54.9039 34.0952 54.9337 34.0952C54.9635 34.0952 54.9922 34.1009 55.0197 34.1123C55.0473 34.1238 55.0716 34.14 55.0926 34.1612C55.1137 34.1823 55.13 34.2066 55.1414 34.2342C55.1528 34.2618 55.1585 34.2906 55.1585 34.3204C55.1585 34.3503 55.1528 34.3791 55.1414 34.4067C55.13 34.4343 55.1137 34.4586 55.0926 34.4797L54.6349 34.9399C54.6138 34.961 54.5889 34.9767 54.5614 34.9881C54.5338 34.9995 54.5052 35.0052 54.4754 35.0052C54.4456 35.0052 54.4169 34.9995 54.3894 34.9881C54.3618 34.9767 54.3375 34.9604 54.3165 34.9393C54.2954 34.9181 54.2792 34.8938 54.2678 34.8662C54.2563 34.8386 54.2506 34.8098 54.2506 34.78C54.2506 34.7501 54.2563 34.7214 54.2678 34.6938C54.2792 34.6662 54.2954 34.6418 54.3165 34.6207L54.7748 34.1612Z" fill="white"/>
</g>
<defs>
<filter id="filter0_f_116_1510" x="-16.4518" y="24.8106" width="71.3855" height="25.5877" filterUnits="userSpaceOnUse" color-interpolation-filters="sRGB">
<feFlood flood-opacity="0" result="BackgroundImageFix"/>
<feBlend mode="normal" in="SourceGraphic" in2="BackgroundImageFix" result="shape"/>
<feGaussianBlur stdDeviation="0.225903" result="effect1_foregroundBlur_116_1510"/>
</filter>
<filter id="filter1_f_116_1510" x="19.3109" y="11.1717" width="35.8987" height="18.3125" filterUnits="userSpaceOnUse" color-interpolation-filters="sRGB">
<feFlood flood-opacity="0" result="BackgroundImageFix"/>
<feBlend mode="normal" in="SourceGraphic" in2="BackgroundImageFix" result="shape"/>
<feGaussianBlur stdDeviation="0.225903" result="effect1_foregroundBlur_116_1510"/>
</filter>
<linearGradient id="paint0_linear_116_1510" x1="56.1185" y1="33.0576" x2="36.1858" y2="66.5192" gradientUnits="userSpaceOnUse">
<stop stop-color="#FFD11A"/>
<stop offset="0.351277" stop-color="#80D2FF"/>
<stop offset="0.971429"/>
</linearGradient>
<radialGradient id="paint1_radial_116_1510" cx="0" cy="0" r="1" gradientTransform="matrix(-1.12173 6.58266 -6.56614 -1.1245 56.3116 32.9696)" gradientUnits="userSpaceOnUse">
<stop stop-color="#FFF08E"/>
<stop offset="1" stop-color="#FFF282" stop-opacity="0"/>
</radialGradient>
<linearGradient id="paint2_linear_116_1510" x1="54.4818" y1="37.6046" x2="-5.28259" y2="37.6046" gradientUnits="userSpaceOnUse">
<stop stop-color="#00FFD4"/>
<stop offset="0.15" stop-color="#A2D8FF" stop-opacity="0.575342"/>
<stop offset="0.842857" stop-color="#D8D8D8" stop-opacity="0"/>
</linearGradient>
<linearGradient id="paint3_linear_116_1510" x1="54.7002" y1="26.9786" x2="33.3565" y2="13.0002" gradientUnits="userSpaceOnUse">
<stop stop-color="#00DDFF"/>
<stop offset="0.35" stop-color="#2600FF" stop-opacity="0.575342"/>
<stop offset="0.842857" stop-color="#D8D8D8" stop-opacity="0"/>
</linearGradient>
<clipPath id="clip0_116_1510">
<rect width="60" height="60" fill="white" transform="translate(10 10)"/>
</clipPath>
</defs>
</svg>
