<svg width="80" height="80" viewBox="0 0 80 80" fill="none" xmlns="http://www.w3.org/2000/svg">
<path d="M0 12C0 5.37258 5.37258 0 12 0H68C74.6274 0 80 5.37258 80 12V68C80 74.6274 74.6274 80 68 80H12C5.37258 80 0 74.6274 0 68V12Z" fill="#001C39" fill-opacity="0.03"/>
<path d="M25.1034 51.3333C30.5421 51.1976 34.8411 46.6788 34.7055 41.2401C34.5699 35.8013 30.051 31.5023 24.6123 31.638C19.1736 31.7736 14.8746 36.2925 15.0102 41.7312C15.1458 47.1699 19.6647 51.4689 25.1034 51.3333Z" fill="#B0D4FF" fill-opacity="0.45"/>
<path d="M54.5644 47.314C60.0031 47.1784 64.3021 42.6595 64.1665 37.2208C64.0308 31.7821 59.5119 27.4831 54.0732 27.6187C48.6345 27.7543 44.3355 32.2732 44.4712 37.7119C44.6068 43.1506 49.1257 47.4496 54.5644 47.314Z" fill="#B0D4FF" fill-opacity="0.45"/>
<g filter="url(#filter0_i_116_1549)">
<path fill-rule="evenodd" clip-rule="evenodd" d="M54.6052 48.9553C54.7932 48.9506 54.981 48.9413 55.1686 48.9273C55.3561 48.9134 55.5433 48.8949 55.7299 48.8718C55.9166 48.8487 56.1026 48.8211 56.2879 48.7889C56.4732 48.7566 56.6576 48.7199 56.8411 48.6786C57.0246 48.6373 57.207 48.5915 57.3883 48.5413C57.5696 48.4911 57.7495 48.4364 57.928 48.3774C58.1066 48.3183 58.2836 48.2549 58.459 48.1871C58.6345 48.1194 58.8082 48.0474 58.9801 47.9711C59.152 47.8947 59.322 47.8143 59.49 47.7297C59.6579 47.645 59.8237 47.5563 59.9874 47.4635C60.151 47.3707 60.3122 47.274 60.4711 47.1734C60.6299 47.0727 60.7862 46.9681 60.94 46.8598C61.0937 46.7514 61.2447 46.6393 61.3929 46.5235C61.5412 46.4078 61.6865 46.2885 61.8289 46.1656C61.9712 46.0427 62.1105 45.9163 62.2466 45.7866C62.3828 45.6568 62.5157 45.5238 62.6454 45.3875C62.775 45.2513 62.9012 45.1119 63.024 44.9694C63.1469 44.827 63.2661 44.6816 63.3818 44.5333C63.4974 44.3849 63.6094 44.2338 63.7176 44.08C63.8258 43.9262 63.9302 43.7698 64.0308 43.6109C64.1314 43.4519 64.228 43.2906 64.3206 43.1269C64.4132 42.9632 64.5018 42.7974 64.5864 42.6294C64.6709 42.4613 64.7512 42.2913 64.8273 42.1193C64.9035 41.9473 64.9754 41.7736 65.043 41.598C65.1106 41.4226 65.1739 41.2455 65.2328 41.0669C65.2918 40.8882 65.3463 40.7082 65.3964 40.5269C65.4465 40.3457 65.4921 40.1632 65.5333 39.9797C65.5744 39.7962 65.611 39.6118 65.6431 39.4264C65.6752 39.2411 65.7027 39.0551 65.7256 38.8684C65.7486 38.6817 65.7669 38.4946 65.7807 38.307C65.7945 38.1194 65.8036 37.9316 65.8082 37.7436C65.8127 37.5556 65.8126 37.3675 65.8079 37.1795C65.8032 36.9915 65.794 36.8037 65.7801 36.6161C65.7661 36.4286 65.7476 36.2414 65.7246 36.0548C65.7014 35.8681 65.6738 35.6821 65.6415 35.4968C65.6093 35.3115 65.5726 35.1271 65.5313 34.9436C65.49 34.7601 65.4442 34.5777 65.3939 34.3964C65.3437 34.2152 65.2891 34.0353 65.23 33.8567C65.171 33.6781 65.1075 33.5011 65.0398 33.3257C64.972 33.1502 64.9 32.9765 64.8237 32.8046C64.7474 32.6327 64.6669 32.4627 64.5823 32.2947C64.4977 32.1268 64.409 31.961 64.3163 31.7974C64.2234 31.6337 64.1267 31.4725 64.026 31.3136C63.9253 31.1548 63.8208 30.9985 63.7125 30.8447C63.6041 30.691 63.492 30.54 63.3763 30.3918C63.2605 30.2435 63.1412 30.0982 63.0182 29.9558C62.8953 29.8135 62.769 29.6742 62.6392 29.538C62.5095 29.4019 62.3765 29.269 62.2402 29.1393C62.1039 29.0097 61.9645 28.8835 61.822 28.7607C61.6796 28.6379 61.5342 28.5186 61.3859 28.403C61.2376 28.2873 61.0865 28.1753 60.9327 28.0671C60.7789 27.9589 60.6225 27.8545 60.4635 27.7539C60.3046 27.6533 60.1433 27.5567 59.9796 27.4641C59.8159 27.3714 59.65 27.2829 59.482 27.1984C59.3139 27.1139 59.1439 27.0335 58.972 26.9574C58.8 26.8812 58.6262 26.8093 58.4507 26.7417C58.2752 26.6741 58.0982 26.6108 57.9195 26.5519C57.7409 26.4929 57.561 26.4384 57.3797 26.3883C57.1984 26.3382 57.016 26.2926 56.8325 26.2515C56.6489 26.2103 56.4645 26.1737 56.2791 26.1417C56.0938 26.1096 55.9078 26.082 55.7211 26.0591C55.5344 26.0361 55.3473 26.0178 55.1597 26.004C54.9721 25.9903 54.7843 25.9811 54.5963 25.9766C54.4082 25.972 54.2202 25.9721 54.0322 25.9768C53.8669 25.9809 53.7017 25.9886 53.5368 25.9998C53.3718 26.0111 53.2072 26.0259 53.0429 26.0442C52.8785 26.0626 52.7147 26.0845 52.5513 26.1099C52.3879 26.1354 52.2251 26.1643 52.063 26.1968C51.9009 26.2292 51.7395 26.2651 51.5789 26.3046C51.4183 26.344 51.2586 26.3868 51.0999 26.4332C50.9412 26.4795 50.7836 26.5292 50.627 26.5823C50.4703 26.6354 50.3149 26.6919 50.1608 26.7517C50.0066 26.8115 49.8539 26.8746 49.7025 26.941C49.551 27.0075 49.4011 27.0771 49.2527 27.15C49.1043 27.2229 48.9575 27.2989 48.8124 27.3782C48.6672 27.4574 48.5239 27.5397 48.3822 27.6251C48.2406 27.7105 48.101 27.799 47.9632 27.8904C47.8255 27.9818 47.6897 28.0762 47.556 28.1735C47.4223 28.2708 47.2908 28.3709 47.1614 28.4739C47.032 28.5769 46.905 28.6826 46.7802 28.7911C46.6553 28.8995 46.5329 29.0106 46.4129 29.1244C46.2929 29.2381 46.1754 29.3544 46.0604 29.4732C45.9454 29.592 45.833 29.7133 45.7232 29.8369C45.6135 29.9606 45.5064 30.0866 45.4021 30.2149C45.2978 30.3432 45.1963 30.4736 45.0976 30.6063C44.9989 30.739 44.9031 30.8737 44.8102 31.0105C44.7174 31.1473 44.6275 31.286 44.5405 31.4267C44.4537 31.5674 44.3699 31.7099 44.2891 31.8542C44.2084 31.9985 44.1308 32.1445 44.0564 32.2921C43.9819 32.4398 43.9107 32.589 43.8427 32.7397C43.7747 32.8904 43.71 33.0425 43.6485 33.196C43.5871 33.3496 43.529 33.5043 43.4743 33.6603C43.4195 33.8164 43.3682 33.9735 43.3202 34.1317C43.2722 34.29 43.2276 34.4492 43.1866 34.6093C43.1455 34.7695 43.1078 34.9305 43.0737 35.0923C43.0396 35.2541 43.0089 35.4165 42.9818 35.5796C41.3074 35.2083 39.7787 35.1556 38.3958 35.4217C37.253 35.6417 36.2244 36.0699 35.3101 36.7064C35.1939 36.4521 35.0685 36.2025 34.9341 35.9574C34.7996 35.7123 34.6564 35.4724 34.5045 35.2378C34.3526 35.0032 34.1923 34.7744 34.0237 34.5514C33.8551 34.3285 33.6785 34.112 33.4941 33.9019C33.3097 33.6918 33.1179 33.4888 32.9186 33.2927C32.7193 33.0967 32.5132 32.9081 32.3002 32.7271C32.0872 32.5461 31.8679 32.373 31.6423 32.208C31.4167 32.043 31.1853 31.8864 30.9483 31.7383C30.7112 31.5901 30.4691 31.4508 30.2219 31.3204C29.9747 31.1899 29.723 31.0686 29.4669 30.9565C29.2108 30.8444 28.951 30.7417 28.6875 30.6486C28.4239 30.5554 28.1573 30.472 27.8877 30.3983C27.6181 30.3246 27.3461 30.2608 27.0718 30.207C26.7975 30.1531 26.5217 30.1093 26.2441 30.0756C25.9666 30.0419 25.6883 30.0183 25.4091 30.0049C25.1299 29.9915 24.8505 29.9883 24.571 29.9952C24.383 29.9999 24.1952 30.0092 24.0077 30.0231C23.8201 30.037 23.633 30.0555 23.4463 30.0786C23.2597 30.1017 23.0737 30.1294 22.8884 30.1616C22.703 30.1938 22.5186 30.2306 22.3351 30.2719C22.1516 30.3132 21.9693 30.3589 21.788 30.4092C21.6067 30.4594 21.4268 30.514 21.2483 30.5731C21.0697 30.6322 20.8927 30.6956 20.7172 30.7634C20.5418 30.8311 20.3681 30.9031 20.1961 30.9794C20.0242 31.0557 19.8543 31.1362 19.6863 31.2208C19.5183 31.3054 19.3525 31.3941 19.1889 31.4869C19.0253 31.5797 18.8641 31.6764 18.7052 31.7771C18.5463 31.8778 18.39 31.9823 18.2363 32.0907C18.0825 32.199 17.9316 32.3111 17.7833 32.4269C17.6351 32.5427 17.4898 32.662 17.3474 32.7849C17.205 32.9078 17.0658 33.0342 16.9296 33.1639C16.7934 33.2937 16.6605 33.4267 16.5309 33.5629C16.4012 33.6992 16.275 33.8386 16.1522 33.981C16.0294 34.1235 15.9102 34.2689 15.7945 34.4172C15.6789 34.5656 15.5669 34.7166 15.4587 34.8704C15.3504 35.0243 15.246 35.1807 15.1455 35.3396C15.0449 35.4986 14.9483 35.6599 14.8556 35.8236C14.763 35.9872 14.6744 36.1531 14.5899 36.3211C14.5054 36.4892 14.4251 36.6592 14.3489 36.8312C14.2728 37.0031 14.2009 37.1769 14.1333 37.3524C14.0656 37.5279 14.0024 37.705 13.9434 37.8836C13.8845 38.0622 13.83 38.2422 13.7799 38.4235C13.7298 38.6048 13.6842 38.7872 13.643 38.9707C13.6019 39.1543 13.5653 39.3387 13.5332 39.524C13.5011 39.7094 13.4736 39.8954 13.4507 40.0821C13.4277 40.2688 13.4093 40.4559 13.3956 40.6434C13.3818 40.831 13.3727 41.0188 13.3681 41.2068C13.3636 41.3949 13.3637 41.583 13.3683 41.771C13.373 41.959 13.3823 42.1468 13.3962 42.3344C13.4102 42.522 13.4287 42.7091 13.4518 42.8958C13.4748 43.0824 13.5025 43.2684 13.5347 43.4537C13.567 43.639 13.6037 43.8234 13.645 44.0069C13.6863 44.1904 13.732 44.3728 13.7823 44.554C13.8325 44.7353 13.8872 44.9152 13.9462 45.0938C14.0053 45.2723 14.0687 45.4494 14.1365 45.6249C14.2042 45.8003 14.2763 45.974 14.3526 46.1459C14.4288 46.3178 14.5093 46.4878 14.5939 46.6557C14.6786 46.8237 14.7673 46.9895 14.86 47.1531C14.9528 47.3168 15.0495 47.478 15.1502 47.6369C15.2509 47.7957 15.3554 47.952 15.4638 48.1058C15.5722 48.2595 15.6842 48.4105 15.8 48.5587C15.9158 48.7069 16.0351 48.8522 16.158 48.9946C16.2809 49.137 16.4073 49.2763 16.537 49.4125C16.6668 49.5486 16.7998 49.6816 16.9361 49.8112C17.0723 49.9408 17.2117 50.0671 17.3542 50.1899C17.4966 50.3126 17.642 50.4318 17.7904 50.5475C17.9387 50.6631 18.0898 50.7751 18.2436 50.8834C18.3974 50.9916 18.5538 51.096 18.7127 51.1965C18.8717 51.2971 19.033 51.3937 19.1967 51.4864C19.3604 51.579 19.5262 51.6676 19.6943 51.7521C19.8623 51.8366 20.0323 51.9169 20.2043 51.9931C20.3763 52.0693 20.55 52.1411 20.7255 52.2087C20.901 52.2764 21.0781 52.3397 21.2567 52.3986C21.4353 52.4575 21.6153 52.512 21.7966 52.5621C21.9779 52.6122 22.1603 52.6578 22.3438 52.699C22.5274 52.7402 22.7118 52.7768 22.8971 52.8088C23.0825 52.8409 23.2685 52.8684 23.4552 52.8913C23.6418 52.9143 23.829 52.9327 24.0166 52.9465C24.2042 52.9602 24.392 52.9694 24.58 52.9739C24.768 52.9784 24.956 52.9783 25.144 52.9736C25.3321 52.969 25.5199 52.9597 25.7075 52.9458C25.895 52.9319 26.0822 52.9134 26.2688 52.8903C26.4555 52.8672 26.6415 52.8395 26.8268 52.8073C27.0121 52.775 27.1965 52.7383 27.38 52.697C27.5635 52.6558 27.7459 52.61 27.9271 52.5598C28.1084 52.5095 28.2883 52.4548 28.4669 52.3958C28.6454 52.3367 28.8225 52.2733 28.9979 52.2056C29.1734 52.1378 29.3471 52.0657 29.519 51.9894C29.6909 51.9132 29.8609 51.8327 30.0289 51.7481C30.1968 51.6635 30.3626 51.5748 30.5263 51.482C30.6899 51.3892 30.8511 51.2925 31.01 51.1918C31.1688 51.0911 31.3251 50.9866 31.4789 50.8782C31.6326 50.7699 31.7836 50.6578 31.9318 50.542C32.0801 50.4262 32.2254 50.3069 32.3678 50.184C32.5101 50.0611 32.6494 49.9348 32.7855 49.8051C32.9217 49.6753 33.0546 49.5423 33.1843 49.406C33.3139 49.2698 33.4401 49.1304 33.5629 48.9879C33.6858 48.8454 33.805 48.7 33.9207 48.5516C34.0363 48.4033 34.1483 48.2523 34.2564 48.0985C34.3647 47.9447 34.4691 47.7883 34.5697 47.6293C34.6703 47.4704 34.7669 47.3091 34.8595 47.1454C34.9521 46.9817 35.0407 46.8158 35.1252 46.6477C35.2097 46.4797 35.29 46.3097 35.3662 46.1377C35.4424 45.9658 35.5143 45.792 35.5819 45.6165C35.6495 45.441 35.7128 45.2639 35.7717 45.0853C35.8307 44.9067 35.8852 44.7267 35.9353 44.5454C35.9854 44.3641 36.031 44.1817 36.0721 43.9982C36.1132 43.8146 36.1499 43.6302 36.1819 43.4449C36.214 43.2596 36.2416 43.0736 36.2645 42.8869C36.2875 42.7002 36.3058 42.5131 36.3195 42.3255C36.3333 42.1379 36.3425 41.9501 36.347 41.7621C36.3516 41.5741 36.3515 41.386 36.3468 41.1979C36.3387 40.8702 36.3165 40.5434 36.2804 40.2175C37.0324 39.3766 37.9444 38.8531 39.0164 38.6468C40.1211 38.4342 41.4229 38.5344 42.9217 38.9474C42.9444 39.1215 42.971 39.295 43.0015 39.4679C43.0321 39.6409 43.0667 39.813 43.1051 39.9843C43.1436 40.1556 43.186 40.326 43.2323 40.4953C43.2786 40.6647 43.3288 40.833 43.3827 41.0001C43.4367 41.1671 43.4945 41.3328 43.5561 41.4973C43.6177 41.6617 43.683 41.8247 43.7521 41.9861C43.8211 42.1476 43.8939 42.3074 43.9702 42.4655C44.0466 42.6236 44.1266 42.7798 44.2102 42.9342C44.2937 43.0887 44.3807 43.2412 44.4712 43.3916C44.5618 43.5421 44.6558 43.6904 44.7531 43.8365C44.8504 43.9827 44.951 44.1265 45.0549 44.2681C45.1589 44.4096 45.266 44.5487 45.3763 44.6853C45.4866 44.8219 45.6 44.956 45.7164 45.0874C45.8328 45.2188 45.9522 45.3475 46.0746 45.4735C46.1969 45.5994 46.3221 45.7225 46.45 45.8427C46.578 45.9629 46.7087 46.0802 46.8421 46.1944C46.9754 46.3087 47.1113 46.4198 47.2498 46.5277C47.3883 46.6358 47.5291 46.7406 47.6723 46.8421C47.8156 46.9436 47.9611 47.0418 48.1089 47.1367C48.2566 47.2315 48.4064 47.323 48.5583 47.411C48.7103 47.4991 48.8642 47.5836 49.0201 47.6645C49.1759 47.7454 49.3334 47.8228 49.4928 47.8966C49.6522 47.9703 49.8132 48.0403 49.9757 48.1067C50.1383 48.173 50.3023 48.2356 50.4677 48.2945C50.6332 48.3533 50.7999 48.4083 50.9678 48.4595C51.1358 48.5107 51.3048 48.558 51.4749 48.6014C51.6451 48.6449 51.8161 48.6844 51.9881 48.7201C52.1601 48.7556 52.3327 48.7873 52.5061 48.815C52.6795 48.8426 52.8534 48.8663 53.0279 48.8861C53.2024 48.9058 53.3772 48.9215 53.5524 48.9332C53.7276 48.945 53.903 48.9527 54.0785 48.9563C54.2541 48.96 54.4297 48.9596 54.6052 48.9553ZM54.1141 29.26C54.2484 29.2566 54.3827 29.2566 54.517 29.2598C54.6512 29.263 54.7854 29.2696 54.9194 29.2794C55.0533 29.2892 55.187 29.3024 55.3204 29.3188C55.4537 29.3351 55.5865 29.3548 55.7189 29.3777C55.8513 29.4006 55.983 29.4268 56.1141 29.4562C56.2452 29.4855 56.3755 29.5181 56.5049 29.5539C56.6344 29.5897 56.763 29.6286 56.8905 29.6707C57.0181 29.7128 57.1446 29.758 57.27 29.8063C57.3953 29.8546 57.5194 29.9059 57.6422 29.9603C57.7651 30.0147 57.8865 30.0721 58.0065 30.1325C58.1265 30.1928 58.245 30.2561 58.3619 30.3222C58.4788 30.3884 58.594 30.4574 58.7076 30.5292C58.8211 30.6011 58.9328 30.6756 59.0426 30.7529C59.1525 30.8303 59.2604 30.9102 59.3664 30.9928C59.4723 31.0754 59.5762 31.1606 59.6779 31.2483C59.7797 31.336 59.8792 31.4262 59.9766 31.5188C60.0739 31.6114 60.1689 31.7063 60.2615 31.8035C60.3542 31.9008 60.4445 32.0003 60.5322 32.102C60.62 32.2037 60.7052 32.3074 60.788 32.4133C60.8706 32.5192 60.9507 32.627 61.0281 32.7368C61.1055 32.8466 61.1802 32.9583 61.2521 33.0717C61.324 33.1852 61.3931 33.3004 61.4594 33.4172C61.5256 33.5341 61.589 33.6525 61.6494 33.7725C61.7098 33.8925 61.7673 34.0138 61.8218 34.1366C61.8763 34.2594 61.9277 34.3835 61.9761 34.5088C62.0245 34.6341 62.0698 34.7606 62.112 34.8881C62.1542 35.0156 62.1932 35.1441 62.2291 35.2736C62.265 35.4031 62.2976 35.5333 62.3272 35.6644C62.3567 35.7955 62.3829 35.9272 62.4059 36.0595C62.4289 36.1919 62.4487 36.3247 62.4652 36.458C62.4817 36.5914 62.4949 36.725 62.5048 36.8589C62.5148 36.9929 62.5214 37.1271 62.5248 37.2613C62.5281 37.3957 62.5281 37.53 62.5249 37.6642C62.5216 37.7985 62.5151 37.9327 62.5053 38.0667C62.4955 38.2007 62.4823 38.3343 62.4659 38.4677C62.4496 38.601 62.4299 38.7339 62.407 38.8663C62.3841 38.9986 62.3579 39.1303 62.3286 39.2614C62.2992 39.3925 62.2666 39.5228 62.2308 39.6523C62.195 39.7818 62.1561 39.9103 62.114 40.0379C62.0719 40.1655 62.0267 40.2919 61.9784 40.4172C61.9301 40.5426 61.8788 40.6667 61.8243 40.7896C61.77 40.9124 61.7126 41.0338 61.6523 41.1538C61.5919 41.2738 61.5287 41.3923 61.4625 41.5093C61.3963 41.6261 61.3273 41.7414 61.2555 41.8549C61.1836 41.9685 61.109 42.0802 61.0318 42.19C60.9544 42.2999 60.8745 42.4078 60.7919 42.5137C60.7093 42.6196 60.6241 42.7235 60.5364 42.8253C60.4487 42.927 60.3586 43.0266 60.266 43.1239C60.1734 43.2212 60.0784 43.3162 59.9812 43.4089C59.8839 43.5015 59.7845 43.5918 59.6828 43.6796C59.5811 43.7673 59.4773 43.8526 59.3714 43.9353C59.2655 44.018 59.1577 44.098 59.0479 44.1754C58.938 44.2528 58.8264 44.3275 58.713 44.3994C58.5995 44.4713 58.4843 44.5404 58.3675 44.6067C58.2506 44.673 58.1322 44.7363 58.0122 44.7967C57.8922 44.8572 57.7708 44.9146 57.6481 44.9691C57.5253 45.0236 57.4012 45.075 57.2759 45.1234C57.1506 45.1718 57.0241 45.2171 56.8966 45.2593C56.769 45.3015 56.6406 45.3406 56.5111 45.3765C56.3816 45.4123 56.2514 45.445 56.1203 45.4744C55.9892 45.504 55.8575 45.5302 55.7252 45.5532C55.5928 45.5762 55.46 45.596 55.3267 45.6126C55.1933 45.629 55.0597 45.6422 54.9258 45.6522C54.7918 45.6621 54.6576 45.6687 54.5234 45.6721C54.389 45.6754 54.2547 45.6755 54.1205 45.6722C53.9862 45.669 53.852 45.6625 53.718 45.6527C53.584 45.6428 53.4504 45.6297 53.317 45.6133C53.1837 45.5969 53.0508 45.5772 52.9184 45.5543C52.7861 45.5314 52.6544 45.5052 52.5233 45.4759C52.3922 45.4465 52.2619 45.4139 52.1324 45.3781C52.0029 45.3424 51.8744 45.3034 51.7468 45.2613C51.6192 45.2192 51.4928 45.174 51.3675 45.1257C51.2421 45.0775 51.118 45.0261 50.9951 44.9717C50.8723 44.9173 50.7508 44.86 50.6308 44.7996C50.5109 44.7393 50.3924 44.676 50.2754 44.6098C50.1586 44.5437 50.0433 44.4747 49.9298 44.4028C49.8163 44.3309 49.7046 44.2564 49.5947 44.1791C49.4848 44.1018 49.3769 44.0218 49.271 43.9392C49.1651 43.8566 49.0612 43.7714 48.9594 43.6837C48.8577 43.596 48.7581 43.5059 48.6608 43.4133C48.5635 43.3207 48.4685 43.2258 48.3758 43.1285C48.2832 43.0312 48.1929 42.9317 48.1051 42.8301C48.0174 42.7284 47.9321 42.6246 47.8494 42.5187C47.7667 42.4129 47.6867 42.305 47.6093 42.1952C47.5319 42.0854 47.4573 41.9737 47.3854 41.8603C47.3134 41.7468 47.2443 41.6316 47.178 41.5148C47.1117 41.398 47.0484 41.2795 46.988 41.1595C46.9275 41.0396 46.8701 40.9182 46.8156 40.7954C46.7611 40.6726 46.7097 40.5486 46.6613 40.4232C46.6129 40.2979 46.5676 40.1715 46.5254 40.0439C46.4832 39.9164 46.4441 39.7879 46.4082 39.6584C46.3724 39.529 46.3397 39.3987 46.3103 39.2677C46.2808 39.1366 46.2545 39.0049 46.2315 38.8725C46.2085 38.7401 46.1887 38.6073 46.1722 38.474C46.1557 38.3407 46.1425 38.207 46.1325 38.073C46.1226 37.9391 46.116 37.805 46.1126 37.6706C46.1093 37.5363 46.1092 37.402 46.1125 37.2677C46.1157 37.1335 46.1223 36.9993 46.1321 36.8653C46.1419 36.7314 46.155 36.5977 46.1714 36.4643C46.1878 36.331 46.2074 36.1982 46.2304 36.0658C46.2533 35.9334 46.2794 35.8017 46.3088 35.6706C46.3382 35.5395 46.3708 35.4092 46.4066 35.2797C46.4423 35.1503 46.4813 35.0217 46.5234 34.8941C46.5655 34.7666 46.6107 34.6401 46.659 34.5148C46.7072 34.3894 46.7586 34.2653 46.813 34.1425C46.8674 34.0196 46.9247 33.8982 46.9851 33.7782C47.0454 33.6582 47.1087 33.5397 47.1749 33.4228C47.2411 33.3059 47.3101 33.1906 47.3819 33.0771C47.4537 32.9636 47.5283 32.8519 47.6056 32.742C47.6829 32.6322 47.7629 32.5243 47.8455 32.4183C47.9281 32.3124 48.0133 32.2085 48.101 32.1068C48.1887 32.005 48.2788 31.9055 48.3714 31.8082C48.464 31.7108 48.5589 31.6158 48.6562 31.5232C48.7535 31.4305 48.853 31.3403 48.9546 31.2525C49.0563 31.1647 49.1601 31.0794 49.266 30.9967C49.3719 30.9141 49.4797 30.834 49.5895 30.7566C49.6993 30.6792 49.811 30.6046 49.9244 30.5326C50.0379 30.4607 50.1531 30.3916 50.2699 30.3254C50.3867 30.2591 50.5052 30.1958 50.6252 30.1353C50.7451 30.0749 50.8665 30.0174 50.9893 29.9629C51.1121 29.9084 51.2361 29.857 51.3615 29.8086C51.4868 29.7602 51.6132 29.7149 51.7408 29.6727C51.8683 29.6305 51.9968 29.5915 52.1263 29.5556C52.2557 29.5197 52.386 29.487 52.517 29.4576C52.6481 29.4281 52.7798 29.4018 52.9122 29.3788C53.0446 29.3558 53.1774 29.336 53.3107 29.3195C53.444 29.303 53.5777 29.2898 53.7117 29.2799C53.8456 29.2699 53.9797 29.2633 54.1141 29.26ZM24.6529 33.2784C24.7872 33.275 24.9215 33.275 25.0558 33.2782C25.1901 33.2815 25.3243 33.288 25.4583 33.2979C25.5922 33.3077 25.7259 33.3208 25.8593 33.3372C25.9926 33.3536 26.1254 33.3732 26.2578 33.3962C26.3902 33.4191 26.5219 33.4452 26.653 33.4746C26.7841 33.504 26.9144 33.5366 27.0438 33.5724C27.1733 33.6081 27.3019 33.6471 27.4294 33.6892C27.557 33.7312 27.6835 33.7764 27.8088 33.8247C27.9342 33.873 28.0583 33.9244 28.1811 33.9788C28.304 34.0332 28.4254 34.0905 28.5454 34.1509C28.6654 34.2113 28.7839 34.2745 28.9008 34.3407C29.0177 34.4069 29.1329 34.4759 29.2465 34.5477C29.36 34.6195 29.4717 34.6941 29.5815 34.7714C29.6914 34.8487 29.7993 34.9287 29.9053 35.0113C30.0112 35.0939 30.115 35.179 30.2168 35.2667C30.3186 35.3545 30.4181 35.4446 30.5155 35.5372C30.6128 35.6298 30.7078 35.7247 30.8004 35.822C30.8931 35.9192 30.9833 36.0187 31.0711 36.1204C31.1589 36.2221 31.2441 36.3259 31.3269 36.4317C31.4095 36.5376 31.4896 36.6455 31.567 36.7553C31.6444 36.8651 31.7191 36.9767 31.791 37.0902C31.8629 37.2036 31.932 37.3188 31.9983 37.4356C32.0645 37.5525 32.1279 37.671 32.1883 37.7909C32.2487 37.9109 32.3062 38.0323 32.3607 38.1551C32.4152 38.2779 32.4666 38.4019 32.515 38.5272C32.5634 38.6526 32.6087 38.779 32.6509 38.9065C32.6931 39.0341 32.7321 39.1626 32.768 39.2921C32.8039 39.4215 32.8365 39.5518 32.866 39.6828C32.8955 39.8139 32.9218 39.9456 32.9448 40.078C32.9678 40.2103 32.9876 40.3431 33.0041 40.4765C33.0206 40.6098 33.0338 40.7434 33.0437 40.8774C33.0537 41.0114 33.0603 41.1455 33.0637 41.2798C33.067 41.4141 33.0671 41.5484 33.0638 41.6827C33.0605 41.817 33.054 41.9512 33.0442 42.0851C33.0344 42.2191 33.0212 42.3528 33.0048 42.4861C32.9885 42.6195 32.9688 42.7523 32.9458 42.8847C32.9229 43.0171 32.8968 43.1488 32.8675 43.2799C32.8381 43.4109 32.8055 43.5412 32.7697 43.6707C32.7339 43.8002 32.695 43.9287 32.6529 44.0563C32.6108 44.1839 32.5656 44.3103 32.5173 44.4357C32.469 44.5611 32.4177 44.6852 32.3632 44.8081C32.3089 44.9308 32.2515 45.0523 32.1912 45.1723C32.1308 45.2923 32.0676 45.4108 32.0014 45.5277C31.9352 45.6446 31.8662 45.7598 31.7944 45.8734C31.7225 45.9869 31.6479 46.0986 31.5707 46.2085C31.4933 46.3183 31.4134 46.4262 31.3308 46.5321C31.2481 46.6381 31.163 46.7419 31.0753 46.8437C30.9876 46.9454 30.8975 47.0449 30.8049 47.1423C30.7123 47.2396 30.6173 47.3346 30.5201 47.4274C30.4228 47.52 30.3233 47.6102 30.2217 47.6981C30.12 47.7858 30.0162 47.871 29.9103 47.9537C29.8044 48.0364 29.6966 48.1164 29.5868 48.1938C29.4769 48.2712 29.3653 48.3459 29.2519 48.4178C29.1384 48.4897 29.0232 48.5588 28.9064 48.6251C28.7895 48.6913 28.6711 48.7547 28.5511 48.8152C28.4311 48.8756 28.3097 48.9331 28.1869 48.9876C28.0642 49.0421 27.9401 49.0935 27.8148 49.1419C27.6895 49.1903 27.563 49.2356 27.4355 49.2778C27.3079 49.32 27.1795 49.359 27.05 49.3948C26.9205 49.4308 26.7903 49.4634 26.6592 49.4929C26.5281 49.5224 26.3964 49.5486 26.2641 49.5717C26.1317 49.5947 25.9989 49.6145 25.8656 49.6309C25.7322 49.6475 25.5986 49.6607 25.4646 49.6706C25.3306 49.6805 25.1965 49.6871 25.0622 49.6905C24.9279 49.6938 24.7936 49.6939 24.6593 49.6907C24.525 49.6875 24.3909 49.6809 24.2569 49.6711C24.1229 49.6613 23.9893 49.6482 23.8559 49.6317C23.7226 49.6153 23.5897 49.5957 23.4574 49.5728C23.325 49.5499 23.1933 49.5237 23.0622 49.4943C22.9311 49.465 22.8008 49.4324 22.6713 49.3966C22.5418 49.3608 22.4133 49.3219 22.2857 49.2798C22.1581 49.2377 22.0317 49.1925 21.9063 49.1442C21.781 49.0959 21.6569 49.0445 21.534 48.9902C21.4112 48.9357 21.2898 48.8784 21.1697 48.818C21.0497 48.7576 20.9313 48.6944 20.8143 48.6282C20.6974 48.5621 20.5822 48.493 20.4687 48.4212C20.3552 48.3494 20.2435 48.2748 20.1336 48.1975C20.0237 48.1202 19.9158 48.0402 19.8099 47.9576C19.704 47.875 19.6001 47.7899 19.4983 47.7022C19.3966 47.6144 19.297 47.5243 19.1997 47.4317C19.1024 47.3391 19.0074 47.2442 18.9147 47.1469C18.822 47.0497 18.7318 46.9502 18.644 46.8485C18.5562 46.7468 18.471 46.643 18.3883 46.5372C18.3056 46.4313 18.2256 46.3235 18.1482 46.2137C18.0708 46.1039 17.9961 45.9922 17.9242 45.8787C17.8523 45.7653 17.7832 45.6501 17.7169 45.5333C17.6507 45.4164 17.5873 45.2979 17.5269 45.178C17.4664 45.058 17.409 44.9366 17.3545 44.8138C17.3 44.691 17.2485 44.567 17.2002 44.4417C17.1518 44.3163 17.1065 44.1899 17.0643 44.0624C17.0221 43.9348 16.983 43.8063 16.9472 43.6769C16.9113 43.5474 16.8786 43.4172 16.8491 43.2861C16.8196 43.155 16.7934 43.0233 16.7704 42.8909C16.7473 42.7586 16.7276 42.6258 16.7111 42.4924C16.6946 42.3591 16.6814 42.2255 16.6714 42.0915C16.6615 41.9575 16.6549 41.8234 16.6515 41.6891C16.6482 41.5548 16.6481 41.4205 16.6514 41.2862C16.6546 41.1519 16.6611 41.0177 16.671 40.8838C16.6808 40.7498 16.6939 40.6161 16.7103 40.4828C16.7267 40.3494 16.7464 40.2166 16.7693 40.0843C16.7922 39.9518 16.8183 39.8201 16.8477 39.689C16.8771 39.558 16.9097 39.4277 16.9455 39.2982C16.9813 39.1687 17.0202 39.0402 17.0623 38.9126C17.1044 38.785 17.1496 38.6586 17.1979 38.5332C17.2462 38.4078 17.2975 38.2837 17.3519 38.1609C17.4063 38.0381 17.4637 37.9166 17.524 37.7966C17.5844 37.6766 17.6476 37.5581 17.7138 37.4413C17.78 37.3243 17.849 37.2091 17.9208 37.0956C17.9926 36.9821 18.0672 36.8703 18.1445 36.7605C18.2218 36.6506 18.3018 36.5427 18.3844 36.4368C18.467 36.3308 18.5522 36.227 18.6399 36.1252C18.7276 36.0235 18.8177 35.9239 18.9103 35.8266C19.0029 35.7293 19.0978 35.6343 19.1951 35.5416C19.2924 35.4489 19.3918 35.3587 19.4935 35.2709C19.5952 35.1831 19.699 35.0979 19.8049 35.0152C19.9107 34.9325 20.0186 34.8525 20.1284 34.7751C20.2382 34.6977 20.3498 34.623 20.4633 34.5511C20.5768 34.4792 20.6919 34.4101 20.8088 34.3438C20.9257 34.2776 21.0441 34.2142 21.164 34.1538C21.284 34.0933 21.4054 34.0358 21.5282 33.9814C21.651 33.9269 21.775 33.8754 21.9004 33.827C22.0257 33.7786 22.1521 33.7333 22.2797 33.6912C22.4072 33.649 22.5357 33.6099 22.6652 33.574C22.7946 33.5382 22.9249 33.5055 23.0559 33.476C23.187 33.4465 23.3187 33.4203 23.4511 33.3972C23.5835 33.3742 23.7163 33.3545 23.8496 33.338C23.9829 33.3215 24.1166 33.3083 24.2505 33.2983C24.3845 33.2884 24.5186 33.2817 24.6529 33.2784Z" fill="#091F53"/>
</g>
<defs>
<filter id="filter0_i_116_1549" x="13.3647" y="25.9731" width="52.4468" height="27.0042" filterUnits="userSpaceOnUse" color-interpolation-filters="sRGB">
<feFlood flood-opacity="0" result="BackgroundImageFix"/>
<feBlend mode="normal" in="SourceGraphic" in2="BackgroundImageFix" result="shape"/>
<feColorMatrix in="SourceAlpha" type="matrix" values="0 0 0 0 0 0 0 0 0 0 0 0 0 0 0 0 0 0 127 0" result="hardAlpha"/>
<feOffset dy="0.328441"/>
<feComposite in2="hardAlpha" operator="arithmetic" k2="-1" k3="1"/>
<feColorMatrix type="matrix" values="0 0 0 0 1 0 0 0 0 1 0 0 0 0 1 0 0 0 1 0"/>
<feBlend mode="normal" in2="shape" result="effect1_innerShadow_116_1549"/>
</filter>
</defs>
</svg>
