<svg width="80" height="80" viewBox="0 0 80 80" fill="none" xmlns="http://www.w3.org/2000/svg">
<rect width="80" height="80" rx="12" fill="#001C39" fill-opacity="0.03"/>
<path d="M17.183 29.5796C22.7913 32.5421 28.0264 40.8253 32.8884 54.4291C33.2633 55.4781 34.2976 56.1355 35.406 56.0238L64.9364 53.0469C66.3449 52.9049 67.331 51.5966 67.0198 50.2156C63.6452 35.2401 57.3998 23.5835 50.5837 24.1919L17.183 29.5796Z" fill="url(#paint0_radial_116_1465)"/>
<path fill-rule="evenodd" clip-rule="evenodd" d="M17.183 29.5796C17.4059 29.6973 17.6283 29.8235 17.85 29.958C23.2069 33.209 28.2197 41.366 32.8884 54.4291C33.2633 55.4781 34.2976 56.1355 35.406 56.0238L64.9364 53.0469C66.3449 52.9049 67.331 51.5966 67.0198 50.2156C63.6452 35.2401 57.3998 23.5835 50.5837 24.1919L17.9461 29.4565L17.183 29.5796ZM33.3403 54.2676C28.7687 41.4763 23.8432 33.3347 18.5638 29.8429L50.6429 24.6684C53.7239 24.4026 56.7366 26.7156 59.6812 31.6072C62.5087 36.3045 64.7988 42.5424 66.5517 50.3211C66.6744 50.8658 66.5697 51.3621 66.2375 51.8101C65.9045 52.2592 65.4547 52.5123 64.8883 52.5694L35.3579 55.5463C34.914 55.5911 34.5044 55.4944 34.1291 55.2564C33.7538 55.0185 33.4909 54.6888 33.3403 54.2676Z" fill="url(#paint1_linear_116_1465)"/>
<path d="M11.2973 36.3118C10.7755 37.5165 11.8364 38.7461 13.1329 38.5399L41.5509 34.0218C42.5628 33.8609 43.3424 33.0774 43.6079 32.0877C44.7094 27.9802 47.0346 25.3473 50.5835 24.189L16.6862 29.7847C14.3345 31.2713 12.5382 33.4469 11.2973 36.3118Z" fill="url(#paint2_linear_116_1465)"/>
<path fill-rule="evenodd" clip-rule="evenodd" d="M50.5835 24.189L48.236 24.5765L16.6862 29.7847C14.3345 31.2713 12.5382 33.4469 11.2973 36.3118C10.7755 37.5165 11.8364 38.7461 13.1329 38.5399L41.5509 34.0218C42.5628 33.8609 43.3424 33.0774 43.6079 32.0877C44.4708 28.8699 46.0848 26.557 48.4497 25.1492C49.1035 24.7599 49.8148 24.4399 50.5835 24.189ZM11.8478 36.5502C11.6867 36.922 11.7352 37.2618 11.9931 37.5697C12.2612 37.8898 12.6097 38.0157 13.0388 37.9475L41.4567 33.4294C42.2716 33.2999 42.7956 32.8008 43.0285 31.9323C43.7967 29.0678 45.1368 26.8838 47.0486 25.3805L16.9054 30.3565C14.7075 31.7755 13.0217 33.84 11.8478 36.5502Z" fill="url(#paint3_linear_116_1465)" fill-opacity="0.8"/>
<defs>
<radialGradient id="paint0_radial_116_1465" cx="0" cy="0" r="1" gradientUnits="userSpaceOnUse" gradientTransform="translate(41.7167 21.9601) rotate(103.513) scale(27.6778 53.6954)">
<stop stop-color="#3967FF"/>
<stop offset="1" stop-color="#DAE3FF"/>
</radialGradient>
<linearGradient id="paint1_linear_116_1465" x1="42.9335" y1="43.3805" x2="39.4399" y2="55.1455" gradientUnits="userSpaceOnUse">
<stop stop-color="#B1C3FF" stop-opacity="0"/>
<stop offset="1" stop-color="#C8D5FF"/>
</linearGradient>
<linearGradient id="paint2_linear_116_1465" x1="45.1087" y1="27.9341" x2="12.6383" y2="34.3615" gradientUnits="userSpaceOnUse">
<stop stop-color="#7496FF"/>
<stop offset="1" stop-color="#D2DDFF" stop-opacity="0.8"/>
</linearGradient>
<linearGradient id="paint3_linear_116_1465" x1="46.4165" y1="31.7722" x2="44.6792" y2="26.5124" gradientUnits="userSpaceOnUse">
<stop stop-color="white"/>
<stop offset="1" stop-color="white" stop-opacity="0"/>
</linearGradient>
</defs>
</svg>
