<svg width="80" height="80" viewBox="0 0 80 80" fill="none" xmlns="http://www.w3.org/2000/svg">
<rect width="80" height="80" rx="12" fill="#001C39" fill-opacity="0.03"/>
<path d="M44.4003 16.4435L20.5903 25.9452C16.6812 27.5052 14.7768 31.9388 16.3368 35.8479L25.6969 59.303C27.2568 63.2122 31.6905 65.1166 35.5996 63.5566L59.4096 54.0549C63.3187 52.4949 65.2231 48.0613 63.6631 44.1522L54.3031 20.697C52.7431 16.7879 48.3095 14.8835 44.4003 16.4435Z" fill="url(#paint0_linear_116_1487)"/>
<path fill-rule="evenodd" clip-rule="evenodd" d="M49.0289 28.7653C49.0804 28.5939 49.1104 28.4189 49.1187 28.2401C49.127 28.0614 49.1135 27.8843 49.0781 27.7088C49.0641 27.639 49.0466 27.5701 49.0257 27.502C49.0049 27.4339 48.9807 27.367 48.9533 27.3013C48.9259 27.2355 48.8953 27.1713 48.8616 27.1086C48.8278 27.0459 48.7911 26.985 48.7514 26.9259C48.7116 26.8667 48.6691 26.8097 48.6238 26.7548C48.5785 26.6999 48.5305 26.6473 48.48 26.5971C48.4296 26.5468 48.3767 26.4992 48.3215 26.4542C48.2664 26.4091 48.2091 26.3669 48.1498 26.3275C48.0905 26.2881 48.0294 26.2517 47.9665 26.2183C47.9036 26.1849 47.8392 26.1547 47.7733 26.1276C47.7075 26.1005 47.6404 26.0767 47.5722 26.0562C47.504 26.0357 47.435 26.0186 47.3651 26.0049C47.2952 25.9912 47.2248 25.981 47.1539 25.9742C47.083 25.9674 47.012 25.9641 46.9407 25.9643C46.8695 25.9645 46.7985 25.9682 46.7276 25.9753C46.6568 25.9825 46.5864 25.9931 46.5166 26.0072C46.4206 26.0266 46.3263 26.0523 46.2338 26.0844C46.1412 26.1165 46.0513 26.1547 45.9639 26.199C45.8765 26.2433 45.7925 26.2932 45.7119 26.3488C45.6312 26.4044 45.5547 26.4652 45.4823 26.5312C45.4099 26.5972 45.3422 26.6677 45.2793 26.7428C45.2164 26.8179 45.1589 26.8969 45.1067 26.9798C45.0545 27.0627 45.0081 27.1487 44.9675 27.2378C44.9269 27.327 44.8925 27.4185 44.8643 27.5123L44.8617 27.5115L42.2022 36.3504C41.9286 37.2599 41.3321 37.5956 40.4126 37.3576C38.8453 36.9518 37.3653 37.162 35.9729 37.9881C34.5804 38.8141 33.6865 40.0122 33.2912 41.5822L30.7838 51.5414L30.7865 51.5421C30.7063 51.8606 30.6986 52.1809 30.7636 52.5029C30.7777 52.5727 30.7951 52.6417 30.816 52.7098C30.8369 52.7779 30.861 52.8448 30.8884 52.9105C30.9159 52.9762 30.9464 53.0404 30.9802 53.1031C31.0139 53.1659 31.0507 53.2268 31.0904 53.2859C31.1301 53.345 31.1726 53.402 31.218 53.4569C31.2633 53.5119 31.3112 53.5645 31.3617 53.6147C31.4122 53.6649 31.465 53.7125 31.5202 53.7576C31.5754 53.8026 31.6326 53.8448 31.6919 53.8842C31.7512 53.9236 31.8124 53.96 31.8753 53.9934C31.9382 54.0268 32.0025 54.0571 32.0684 54.0842C32.1343 54.1112 32.2013 54.135 32.2695 54.1555C32.3377 54.176 32.4068 54.1931 32.4767 54.2068C32.5465 54.2205 32.6169 54.2308 32.6878 54.2375C32.7587 54.2443 32.8298 54.2476 32.901 54.2474C32.9722 54.2473 33.0432 54.2436 33.1141 54.2364C33.185 54.2292 33.2553 54.2186 33.3251 54.2045C33.4252 54.1843 33.5234 54.1572 33.6197 54.1232C33.7159 54.0892 33.8093 54.0486 33.8999 54.0014C33.9905 53.9542 34.0773 53.9009 34.1603 53.8415C34.2434 53.7821 34.3218 53.7172 34.3957 53.6467C34.4696 53.5763 34.5382 53.501 34.6015 53.4208C34.6648 53.3407 34.7222 53.2565 34.7736 53.1683C34.8251 53.0801 34.8701 52.9888 34.9086 52.8942C34.9472 52.7997 34.9789 52.7029 35.0039 52.6039L35.0065 52.6045L37.5139 42.6454C37.6142 42.2468 37.8411 41.9427 38.1945 41.7331C38.548 41.5234 38.9236 41.4701 39.3214 41.573C40.8387 41.9658 42.2802 41.7778 43.646 41.0092C45.0118 40.2405 45.9204 39.1058 46.372 37.605L49.0315 28.7661L49.0289 28.7653Z" fill="url(#paint1_linear_116_1487)"/>
<defs>
<linearGradient id="paint0_linear_116_1487" x1="23.2644" y1="29.9743" x2="54.8087" y2="47.0441" gradientUnits="userSpaceOnUse">
<stop offset="0.0428571" stop-color="#B5C3FF"/>
<stop offset="0.992857" stop-color="#FFF0F9" stop-opacity="0.62"/>
</linearGradient>
<linearGradient id="paint1_linear_116_1487" x1="45.5446" y1="29.5558" x2="35.0036" y2="54.1613" gradientUnits="userSpaceOnUse">
<stop stop-color="white"/>
<stop offset="1" stop-color="#F7ECF9" stop-opacity="0"/>
</linearGradient>
</defs>
</svg>
